<?xml version="1.0" encoding="utf-8"?>
<svg id="master-artboard" viewBox="0 0 400 400" version="1.1" xmlns="http://www.w3.org/2000/svg" x="0px" y="0px" style="enable-background:new 0 0 1400 980;" width="400px" height="400px"><rect id="ee-background" x="0" y="0" width="400" height="400" style="fill: white; fill-opacity: 0; pointer-events: none;"/>





























































<g transform="matrix(1, 0, 0, 1, -927.0017242431641, -71.79225158691406)">
	<path d="M 1293 114.5999984741211 L 1293 286 L 1127.0999755859375 438.79998779296875 L 1115.9000244140625 241.5 Z" class="st2" style="fill: rgb(218, 164, 104);"/>
	<path class="st0" d="M963,317.6v64.2c39.6,24.7,98,44.6,165,57v-72.2C1061,355.9,1002.6,338.9,963,317.6z" style="fill: rgb(255, 230, 166);"/>
	<path class="st0" d="M1128,285.7c-74-12.9-125.8-34.3-165-59.3v61.4c39.6,21.3,98,38.3,165,48.9V285.7z" style="fill: rgb(255, 230, 166);"/>
	<path class="st3" d="M963,295.3v29.8c39.6,21.3,98,38.3,165,48.9v-29.8C1061,333.5,1002.6,316.5,963,295.3z" style="opacity: 0.1;"/>
	<path class="st11" d="M963,287.8v29.8c39.6,21.3,98,38.3,165,48.9v-29.8C1061,326.1,1002.6,309.1,963,287.8z" style="fill: rgb(158, 76, 40);"/>
	<path class="st14" d="M1124.7,283.2c-0.1,2.9-0.1,6.2,2,8.2c3.8,3.7,10.2-0.4,12.7-5s4.1-10.5,9-12.7c3.9-1.7,8.4-0.2,12.7-0.6&#10;&#9;&#9;c8.6-0.7,14.6-8.6,19.2-15.9c4.6-7.3,9.9-15.4,18.4-17.2c2.9-0.6,6-0.4,8.9-0.9c8.9-1.6,15.1-9.6,19.3-17.7&#10;&#9;&#9;c4.2-8,7.6-16.9,14.5-22.7c8.6-7.3,21.7-9,28.1-18.3c6.3-9.2,4.3-23.6,13.5-29.9c3.1-2.1,7.3-3.1,9.2-6.3c1.1-1.8,1.2-4,1.3-6.1&#10;&#9;&#9;c0.3-6.5,0.6-12.9,0.9-19.4c0.1-1.2,0.1-2.5-0.6-3.5c-1.6-2.3-5.2-1.1-7.6,0.3c-14.2,8.5-28.4,17.1-42.5,25.8&#10;&#9;&#9;c-21.3,13.1-42.7,26.7-59.3,45.4c-8.1,9.1-15,19.3-22.8,28.8c-9.6,11.6-21.7,19.8-32,30.4C1121.7,254.2,1125.1,272.1,1124.7,283.2z&#10;&#9;&#9;" style="fill: rgb(197, 207, 226);"/>
	<path class="st15" d="M963,228.2c-0.1,4.5,0.9,10.5,5.4,11c3.2,0.3,6.3-2.7,9.4-1.7c2,0.7,3,2.8,3.8,4.8&#10;&#9;&#9;c2.2,5.3,5.4,11.3,11.1,11.9c4.5,0.5,8.6-2.8,13-2.8c7.4-0.1,11.8,7.7,16.9,13c5,5.2,12.3,8.4,19.5,7.7c2.6-0.3,5.2-1.1,7.9-1.1&#10;&#9;&#9;c7.9-0.1,14.2,6.2,19.9,11.7c5.7,5.5,13.1,11.1,20.8,9.1c3-0.8,5.7-2.7,8.6-4c8.3-3.6,18.9-0.7,24.3,6.6c5.9-0.9,7.3-8.7,7.3-14.7&#10;&#9;&#9;c0-4.7-0.1-9.4-0.1-14c0-3.6-0.1-7.4-2.1-10.3c-1.7-2.5-4.4-4-7.1-5.5c-11.8-6.4-23.5-12.8-35.3-19.2&#10;&#9;&#9;c-12.2-6.7-24.5-13.4-37.6-18.3c-19.4-7.4-40.1-10.7-60.7-12.9c-5.7-0.6-18.9-4.5-23.3,0.7C960.6,205,963.2,221.8,963,228.2z" style="fill: rgb(240, 244, 252);"/>
	<path class="st16" d="M1128,254.4L1293.5,114h-1L963,196.5v0.7c39.6,24.7,98,44.7,165,57.3V254.4z" style="fill: rgb(222, 232, 255);"/>
	<path d="M 1128 344.20001220703125 L 1293 202.10000610351562 L 1293 233.8000030517578 L 1128 374 Z" class="st3" style="opacity: 0.1;"/>
	<path d="M 1128 336.70001220703125 L 1293 194.6999969482422 L 1293 226.39999389648438 L 1128 366.5 Z" class="st10" style="fill: rgb(84, 34, 12);"/>
</g>
























<path class="st8" d="M1091.2,109c4.4,1.7,8.5,4.2,12,7.4c3.2-4.1,6.9-7.8,10.9-11.1c-0.8,5.2-1.6,10.5-2.3,15.7&#10;&#9;c9.3-1.2,18.6-1.4,27.9-0.5c-6.8,3-14,5.3-21.2,6.9c4.8,1.3,9.5,2.6,14.3,3.9c3,0.8,6.5,2.2,7,5.3c-4.8-2.3-10.2-3.4-15.5-3.4&#10;&#9;c2.3,4.9,4.6,9.8,6.8,14.7c-8.8-5.9-19.4-11.3-27.2-18.5C1098.3,124.3,1095,115.5,1091.2,109z" style="fill: rgb(26, 170, 70);" transform="matrix(1, 0, 0, 1, -927.0017242431641, -71.79225158691406)"/>
<path d="M 1115.799999 207.699997 A 34.799999 9.6 0 0 1 1081 217.299997 A 34.799999 9.6 0 0 1 1046.200001 207.699997 A 34.799999 9.6 0 0 1 1081 198.099997 A 34.799999 9.6 0 0 1 1115.799999 207.699997 Z" class="st14" style="fill: rgb(197, 207, 226);" transform="matrix(1, 0, 0, 1, -927.0017242431641, -71.79225158691406)"/>
<path class="st17" d="M1041,168.5c-3.4,4-7.7,7.3-9.8,12.1c-3.2,7.3-0.1,16.3,5.9,21.6c6,5.3,14.2,7.4,22.1,8&#10;&#9;c18.9,1.3,38.3-5.7,51.9-18.9c22.5-21.7,22.3-62.2-11.5-72.9C1064.5,107.3,1057.5,149.2,1041,168.5z" style="fill: rgb(244, 55, 55);" transform="matrix(1, 0, 0, 1, -927.0017242431641, -71.79225158691406)"/>
<path class="st18" d="M1080.8,126.2c-0.5,0.1-1,0.2-1.4,0.5c-0.4,0.3-0.7,0.7-0.7,1.2c0,0.5,0.4,0.9,0.8,1.1&#10;&#9;c0.4,0.2,0.9,0.3,1.4,0.3c1.2,0,3.5-0.6,3.2-2.2C1083.9,125.7,1081.8,126.1,1080.8,126.2z" style="fill: rgb(255, 226, 153);" transform="matrix(1, 0, 0, 1, -927.0017242431641, -71.79225158691406)"/>
<path class="st18" d="M1092.8,129.2c-0.5,0.1-1,0.2-1.4,0.5c-0.4,0.3-0.7,0.7-0.7,1.2c0,0.5,0.4,0.9,0.8,1.1&#10;&#9;c0.4,0.2,0.9,0.3,1.4,0.3c1.2,0,3.5-0.6,3.2-2.2C1095.9,128.7,1093.8,129.1,1092.8,129.2z" style="fill: rgb(255, 226, 153);" transform="matrix(1, 0, 0, 1, -927.0017242431641, -71.79225158691406)"/>
<path class="st18" d="M1103.8,134.2c-0.5,0.1-1,0.2-1.4,0.5c-0.4,0.3-0.7,0.7-0.7,1.2c0,0.5,0.4,0.9,0.8,1.1&#10;&#9;c0.4,0.2,0.9,0.3,1.4,0.3c1.2,0,3.5-0.6,3.2-2.2C1106.9,133.7,1104.8,134.1,1103.8,134.2z" style="fill: rgb(255, 226, 153);" transform="matrix(1, 0, 0, 1, -927.0017242431641, -71.79225158691406)"/>
<path class="st18" d="M1114.8,142.2c-0.5,0.1-1,0.2-1.4,0.5c-0.4,0.3-0.7,0.7-0.7,1.2c0,0.5,0.4,0.9,0.8,1.1&#10;&#9;c0.4,0.2,0.9,0.3,1.4,0.3c1.2,0,3.5-0.6,3.2-2.2C1117.9,141.7,1115.8,142.1,1114.8,142.2z" style="fill: rgb(255, 226, 153);" transform="matrix(1, 0, 0, 1, -927.0017242431641, -71.79225158691406)"/>
<path class="st18" d="M1117.8,156.2c-0.5,0.1-1,0.2-1.4,0.5c-0.4,0.3-0.7,0.7-0.7,1.2c0,0.5,0.4,0.9,0.8,1.1&#10;&#9;c0.4,0.2,0.9,0.3,1.4,0.3c1.2,0,3.5-0.6,3.2-2.2C1120.9,155.7,1118.8,156.1,1117.8,156.2z" style="fill: rgb(255, 226, 153);" transform="matrix(1, 0, 0, 1, -927.0017242431641, -71.79225158691406)"/>
<path class="st18" d="M1103.8,149.2c-0.5,0.1-1,0.2-1.4,0.5c-0.4,0.3-0.7,0.7-0.7,1.2c0,0.5,0.4,0.9,0.8,1.1&#10;&#9;c0.4,0.2,0.9,0.3,1.4,0.3c1.2,0,3.5-0.6,3.2-2.2C1106.9,148.7,1104.8,149.1,1103.8,149.2z" style="fill: rgb(255, 226, 153);" transform="matrix(1, 0, 0, 1, -927.0017242431641, -71.79225158691406)"/>
<path class="st18" d="M1089.8,141.2c-0.5,0.1-1,0.2-1.4,0.5c-0.4,0.3-0.7,0.7-0.7,1.2c0,0.5,0.4,0.9,0.8,1.1&#10;&#9;c0.4,0.2,0.9,0.3,1.4,0.3c1.2,0,3.5-0.6,3.2-2.2C1092.9,140.7,1090.8,141.1,1089.8,141.2z" style="fill: rgb(255, 226, 153);" transform="matrix(1, 0, 0, 1, -927.0017242431641, -71.79225158691406)"/>
<path class="st18" d="M1069.8,136.2c-0.5,0.1-1,0.2-1.4,0.5c-0.4,0.3-0.7,0.7-0.7,1.2c0,0.5,0.4,0.9,0.8,1.1&#10;&#9;c0.4,0.2,0.9,0.3,1.4,0.3c1.2,0,3.5-0.6,3.2-2.2C1072.9,135.7,1070.8,136.1,1069.8,136.2z" style="fill: rgb(255, 226, 153);" transform="matrix(1, 0, 0, 1, -927.0017242431641, -71.79225158691406)"/>
<path class="st18" d="M1075.8,145.2c-0.5,0.1-1,0.2-1.4,0.5c-0.4,0.3-0.7,0.7-0.7,1.2c0,0.5,0.4,0.9,0.8,1.1&#10;&#9;c0.4,0.2,0.9,0.3,1.4,0.3c1.2,0,3.5-0.6,3.2-2.2C1078.9,144.7,1076.8,145.1,1075.8,145.2z" style="fill: rgb(255, 226, 153);" transform="matrix(1, 0, 0, 1, -927.0017242431641, -71.79225158691406)"/>
<path class="st18" d="M1060.8,151.2c-0.5,0.1-1,0.2-1.4,0.5c-0.4,0.3-0.7,0.7-0.7,1.2c0,0.5,0.4,0.9,0.8,1.1&#10;&#9;c0.4,0.2,0.9,0.3,1.4,0.3c1.2,0,3.5-0.6,3.2-2.2C1063.9,150.7,1061.8,151.1,1060.8,151.2z" style="fill: rgb(255, 226, 153);" transform="matrix(1, 0, 0, 1, -927.0017242431641, -71.79225158691406)"/>
<path class="st18" d="M1087.8,156.2c-0.5,0.1-1,0.2-1.4,0.5c-0.4,0.3-0.7,0.7-0.7,1.2c0,0.5,0.4,0.9,0.8,1.1&#10;&#9;c0.4,0.2,0.9,0.3,1.4,0.3c1.2,0,3.5-0.6,3.2-2.2C1090.9,155.7,1088.8,156.1,1087.8,156.2z" style="fill: rgb(255, 226, 153);" transform="matrix(1, 0, 0, 1, -927.0017242431641, -71.79225158691406)"/>
<path class="st18" d="M1105.8,169.2c-0.5,0.1-1,0.2-1.4,0.5c-0.4,0.3-0.7,0.7-0.7,1.2c0,0.5,0.4,0.9,0.8,1.1&#10;&#9;c0.4,0.2,0.9,0.3,1.4,0.3c1.2,0,3.5-0.6,3.2-2.2C1108.9,168.7,1106.8,169.1,1105.8,169.2z" style="fill: rgb(255, 226, 153);" transform="matrix(1, 0, 0, 1, -927.0017242431641, -71.79225158691406)"/>
<path class="st18" d="M1100.8,185.2c-0.5,0.1-1,0.2-1.4,0.5c-0.4,0.3-0.7,0.7-0.7,1.2c0,0.5,0.4,0.9,0.8,1.1&#10;&#9;c0.4,0.2,0.9,0.3,1.4,0.3c1.2,0,3.5-0.6,3.2-2.2C1103.9,184.7,1101.8,185.1,1100.8,185.2z" style="fill: rgb(255, 226, 153);" transform="matrix(1, 0, 0, 1, -927.0017242431641, -71.79225158691406)"/>
<path class="st18" d="M1088.8,170.2c-0.5,0.1-1,0.2-1.4,0.5c-0.4,0.3-0.7,0.7-0.7,1.2c0,0.5,0.4,0.9,0.8,1.1&#10;&#9;c0.4,0.2,0.9,0.3,1.4,0.3c1.2,0,3.5-0.6,3.2-2.2C1091.9,169.7,1089.8,170.1,1088.8,170.2z" style="fill: rgb(255, 226, 153);" transform="matrix(1, 0, 0, 1, -927.0017242431641, -71.79225158691406)"/>
<path class="st18" d="M1072.8,161.2c-0.5,0.1-1,0.2-1.4,0.5c-0.4,0.3-0.7,0.7-0.7,1.2c0,0.5,0.4,0.9,0.8,1.1&#10;&#9;c0.4,0.2,0.9,0.3,1.4,0.3c1.2,0,3.5-0.6,3.2-2.2C1075.9,160.7,1073.8,161.1,1072.8,161.2z" style="fill: rgb(255, 226, 153);" transform="matrix(1, 0, 0, 1, -927.0017242431641, -71.79225158691406)"/>
<path class="st18" d="M1055.8,167.2c-0.5,0.1-1,0.2-1.4,0.5c-0.4,0.3-0.7,0.7-0.7,1.2c0,0.5,0.4,0.9,0.8,1.1&#10;&#9;c0.4,0.2,0.9,0.3,1.4,0.3c1.2,0,3.5-0.6,3.2-2.2C1058.9,166.7,1056.8,167.1,1055.8,167.2z" style="fill: rgb(255, 226, 153);" transform="matrix(1, 0, 0, 1, -927.0017242431641, -71.79225158691406)"/>
<path class="st18" d="M1074.8,175.2c-0.5,0.1-1,0.2-1.4,0.5c-0.4,0.3-0.7,0.7-0.7,1.2c0,0.5,0.4,0.9,0.8,1.1&#10;&#9;c0.4,0.2,0.9,0.3,1.4,0.3c1.2,0,3.5-0.6,3.2-2.2C1077.9,174.7,1075.8,175.1,1074.8,175.2z" style="fill: rgb(255, 226, 153);" transform="matrix(1, 0, 0, 1, -927.0017242431641, -71.79225158691406)"/>
<path class="st18" d="M1085.8,185.2c-0.5,0.1-1,0.2-1.4,0.5c-0.4,0.3-0.7,0.7-0.7,1.2c0,0.5,0.4,0.9,0.8,1.1&#10;&#9;c0.4,0.2,0.9,0.3,1.4,0.3c1.2,0,3.5-0.6,3.2-2.2C1088.9,184.7,1086.8,185.1,1085.8,185.2z" style="fill: rgb(255, 226, 153);" transform="matrix(1, 0, 0, 1, -927.0017242431641, -71.79225158691406)"/>
<path class="st18" d="M1068.8,193.2c-0.5,0.1-1,0.2-1.4,0.5c-0.4,0.3-0.7,0.7-0.7,1.2c0,0.5,0.4,0.9,0.8,1.1&#10;&#9;c0.4,0.2,0.9,0.3,1.4,0.3c1.2,0,3.5-0.6,3.2-2.2C1071.9,192.7,1069.8,193.1,1068.8,193.2z" style="fill: rgb(255, 226, 153);" transform="matrix(1, 0, 0, 1, -927.0017242431641, -71.79225158691406)"/>
<path class="st18" d="M1059.8,182.2c-0.5,0.1-1,0.2-1.4,0.5c-0.4,0.3-0.7,0.7-0.7,1.2c0,0.5,0.4,0.9,0.8,1.1&#10;&#9;c0.4,0.2,0.9,0.3,1.4,0.3c1.2,0,3.5-0.6,3.2-2.2C1062.9,181.7,1060.8,182.1,1059.8,182.2z" style="fill: rgb(255, 226, 153);" transform="matrix(1, 0, 0, 1, -927.0017242431641, -71.79225158691406)"/>
<path class="st18" d="M1042.8,182.2c-0.5,0.1-1,0.2-1.4,0.5c-0.4,0.3-0.7,0.7-0.7,1.2c0,0.5,0.4,0.9,0.8,1.1&#10;&#9;c0.4,0.2,0.9,0.3,1.4,0.3c1.2,0,3.5-0.6,3.2-2.2C1045.9,181.7,1043.8,182.1,1042.8,182.2z" style="fill: rgb(255, 226, 153);" transform="matrix(1, 0, 0, 1, -927.0017242431641, -71.79225158691406)"/>
<path class="st18" d="M1052.8,195.2c-0.5,0.1-1,0.2-1.4,0.5c-0.4,0.3-0.7,0.7-0.7,1.2c0,0.5,0.4,0.9,0.8,1.1&#10;&#9;c0.4,0.2,0.9,0.3,1.4,0.3c1.2,0,3.5-0.6,3.2-2.2C1055.9,194.7,1053.8,195.1,1052.8,195.2z" style="fill: rgb(255, 226, 153);" transform="matrix(1, 0, 0, 1, -927.0017242431641, -71.79225158691406)"/>

























</svg>