<?xml version="1.0" encoding="utf-8"?>
<svg id="master-artboard" viewBox="0 0 400 400" version="1.1" xmlns="http://www.w3.org/2000/svg" x="0px" y="0px" style="enable-background:new 0 0 1400 980;" width="400px" height="400px"><rect id="ee-background" x="0" y="0" width="400" height="400" style="fill: white; fill-opacity: 0; pointer-events: none;"/>


















































































































<g transform="matrix(-1, 0, 0, 1, 856.3177490234375, -503.8052673339844)">
	<g>
		<g>
			<path class="st2" d="M494.9,539.7c-6.5,3.2-0.2,7.6-0.2,14.9c0,7.3,0.2,7.3,0.2,14.6c0,7.3,0.5,7.3,0.5,14.6&#10;&#9;&#9;&#9;&#9;c0,7.3-0.8,7.3-0.8,14.6c0,7.3,0.2,7.3,0.2,14.6c0,7.3,0.1,7.3,0.1,14.6c0,7.3,0.1,7.3,0.1,14.6c0,7.3,0.5,7.3,0.5,14.6&#10;&#9;&#9;&#9;&#9;c0,7.3-0.3,7.3-0.3,14.6c0,7.3-0.7,7.3-0.7,14.6c0,7.3,1,7.3,1,14.6c0,7.3-3.3,7.8-0.3,14.5c2.9,6.6,5.5,4.5,10.8,9.4&#10;&#9;&#9;&#9;&#9;c5.3,4.9,4.8,5.4,10.1,10.2c5.3,4.9,5,5.2,10.3,10.1c5.3,4.9,5.4,4.7,10.7,9.6c5.3,4.9,5.8,4.3,11.1,9.2&#10;&#9;&#9;&#9;&#9;c5.3,4.9,5.2,4.9,10.5,9.8c5.3,4.9,4.7,5.5,10,10.4c5.3,4.9,5.3,4.8,10.6,9.7c5.3,4.9,5.3,4.8,10.6,9.7c5.3,4.9,5.9,4.2,11.2,9.1&#10;&#9;&#9;&#9;&#9;c5.3,4.9,4.6,5.6,9.9,10.5c5.3,4.9,5.9,4.2,11.2,9.1c5.3,4.9,4.8,5.4,10.1,10.3c5.3,4.9,5.3,4.9,10.6,9.7&#10;&#9;&#9;&#9;&#9;c5.3,4.9,5.9,4.2,11.2,9.1c5.3,4.9,3.3,12.6,10,9.9c6.7-2.7,0.3-6.8,0.7-14c0.4-7.2,0.3-7.2,0.7-14.4c0.4-7.2,0.6-7.2,1-14.4&#10;&#9;&#9;&#9;&#9;c0.4-7.2,1.1-7.2,1.5-14.4c0.4-7.2-0.2-7.2,0.2-14.4c0.4-7.2-0.1-7.2,0.3-14.4c0.4-7.2,0.9-7.2,1.3-14.4&#10;&#9;&#9;&#9;&#9;c0.4-7.2,0.8-7.2,1.2-14.4c0.4-7.2,0.3-7.2,0.7-14.4c0.4-7.2,0.8-7.2,1.2-14.4c0.4-7.2-0.5-7.3-0.1-14.5&#10;&#9;&#9;&#9;&#9;c0.4-7.2,0.2-7.2,0.6-14.4c0.4-7.2,1-7.2,1.4-14.4s4.4-8.1,1.2-14.6c-3.2-6.7-6.3-4.3-12.3-8.6c-6-4.3-5.9-4.4-12-8.8&#10;&#9;&#9;&#9;&#9;c-6-4.3-6.5-3.7-12.5-8c-6-4.3-5.3-5.3-11.4-9.6c-6-4.3-6.6-3.5-12.6-7.9c-6-4.3-6.1-4.2-12.1-8.5c-6-4.3-5.8-4.6-11.9-8.9&#10;&#9;&#9;&#9;&#9;c-6-4.3-6.2-4.1-12.2-8.4c-6-4.3-5.5-5-11.6-9.4c-6-4.3-5.9-4.4-12-8.8c-6-4.3-6-4.3-12.1-8.7c-6-4.3-6.2-4-12.3-8.4&#10;&#9;&#9;&#9;&#9;c-6-4.3-5.9-4.5-11.9-8.9c-6-4.3-7.8-2.4-12.6-8C501.5,542.4,501.5,536.5,494.9,539.7z" style="fill: rgb(218, 164, 104);"/>
		</g>
		<g>
			<path class="st0" d="M831.9,747.6c2.4,6.1,0.1,6.5,0.1,13.1c0,6.6-0.1,6.6-0.1,13.1c0,6.6,0.1,6.6,0.1,13.1&#10;&#9;&#9;&#9;&#9;c0,6.6-0.2,6.6-0.2,13.1s2.1,6.8,0.4,13.2c-4.1,2.5-8.8,4.7-13.3,7.1c-4.3,2.3-8.5,4.9-13.1,7.1c-4.4,2.1-8.8,4.4-13.4,6.4&#10;&#9;&#9;&#9;&#9;c-4.5,2-9.1,3.8-13.8,5.7c-4.5,1.8-9.1,3.7-13.9,5.4c-4.6,1.7-9.4,3-14.2,4.5c-4.6,1.5-9.4,3-14.2,4.4c-4.7,1.4-9.4,3.1-14.2,4.4&#10;&#9;&#9;&#9;&#9;c-4.7,1.3-9.6,2.3-14.5,3.5c-4.8,1.2-9.6,2.4-14.5,3.5c-4.8,1.1-9.7,1.8-14.6,2.8c-4.8,1-9.7,2.2-14.6,3.1&#10;&#9;&#9;&#9;&#9;c-2.5-7,0.2-7.4,0.2-14.8c0-7.4,0-7.4,0-14.8c0-7.4-0.1-7.4-0.1-14.8c0-7.4-0.2-7.4-0.2-14.8c0-7.4-1.8-7.6,0.4-14.7&#10;&#9;&#9;&#9;&#9;c4.9-0.8,9.5-1.5,14.2-2.3c4.9-0.9,9.7-1.8,14.4-2.7c4.9-0.9,9.6-2,14.4-3c4.8-1,9.6-2.3,14.3-3.4c4.8-1.1,9.6-2.2,14.3-3.4&#10;&#9;&#9;&#9;&#9;c4.8-1.2,9.6-2.2,14.3-3.5c4.8-1.3,9.3-3.2,13.9-4.7c4.8-1.5,9.5-2.8,14-4.4c4.7-1.6,9.3-3.4,13.7-5.1c4.7-1.8,9.3-3.3,13.7-5.1&#10;&#9;&#9;&#9;&#9;c4.6-1.9,9.2-3.7,13.5-5.7C823.6,752.2,827.7,749.8,831.9,747.6z" style="fill: rgb(255, 230, 166);"/>
		</g>
		<g>
			<path class="st0" d="M664,714.9c5-0.9,10-1.5,14.8-2.5c5-1,9.8-2.4,14.6-3.5c5-1.1,9.8-2.5,14.5-3.7c4.9-1.2,9.8-2.2,14.6-3.5&#10;&#9;&#9;&#9;&#9;c4.9-1.4,9.7-2.8,14.4-4.3c4.9-1.5,9.6-3.2,14.2-4.8c4.8-1.7,9.6-3.2,14.1-4.9c4.8-1.8,9.3-4,13.8-5.9c4.7-2,9.5-3.6,13.9-5.7&#10;&#9;&#9;&#9;&#9;c4.6-2.2,9.1-4.4,13.4-6.7c4.5-2.4,8.6-5.2,12.9-7.7c4.4-2.5,8.6-4.8,12.7-7.4c2.4,7.5,0,7.8,0,15.6c0,7.9,0.1,7.9,0.1,15.7&#10;&#9;&#9;&#9;&#9;c0,7.9,0.5,7.9,0.5,15.7c0,7.9,1.7,8.1-0.1,15.7c-4.2,2.2-8.8,4.3-13.3,6.4c-4.3,2-8.7,4.1-13.3,6.1c-4.4,1.8-9,3.6-13.7,5.4&#10;&#9;&#9;&#9;&#9;c-4.5,1.7-9.1,3.4-13.8,5c-4.5,1.5-9.3,2.8-14,4.3c-4.6,1.4-9.2,3.2-14,4.5c-4.6,1.3-9.5,2-14.3,3.3c-4.7,1.2-9.3,2.7-14.2,3.8&#10;&#9;&#9;&#9;&#9;c-4.7,1.1-9.4,2.4-14.3,3.4c-4.7,1-9.5,1.9-14.4,2.8c-4.7,0.9-9.5,1.9-14.4,2.8c-4.8,0.8-9.5,1.4-14.4,2.1c-2.4-6.1,0-6.5,0-13&#10;&#9;&#9;&#9;&#9;c0-6.5-0.3-6.5-0.3-13c0-6.5,1-6.6,0.3-13C663.3,721.4,661.8,721.1,664,714.9z" style="fill: rgb(255, 230, 166);"/>
		</g>
		<g class="st3" style="opacity: 0.1;">
			<path d="M831.8,724.8c2.3,7.3,0.4,7.6,0.4,15.2s1.5,7.8-0.3,15.2c-4.2,2.2-8.4,4.6-13,6.7c-4.3,2-8.7,4.2-13.4,6.1&#10;&#9;&#9;&#9;&#9;c-4.4,1.8-9.2,3.1-13.8,4.9c-4.5,1.7-9,3.5-13.7,5.1c-4.5,1.5-9.1,3.3-13.9,4.8c-4.6,1.4-9.4,2.5-14.2,3.8&#10;&#9;&#9;&#9;&#9;c-4.6,1.3-9.4,2.5-14.2,3.7c-4.7,1.2-9.4,2.6-14.2,3.7c-4.7,1.1-9.4,2.4-14.3,3.4c-4.7,1-9.5,2.2-14.3,3.1&#10;&#9;&#9;&#9;&#9;c-4.7,0.9-9.7,1.3-14.5,2.2c-4.8,0.8-9.6,1.8-14.5,2.6c-2.4-7.2,0.3-7.6,0.3-15.3s-2.6-8-0.4-15.3c4.9-0.8,9.8-1.8,14.5-2.7&#10;&#9;&#9;&#9;&#9;c4.9-0.9,9.7-1.4,14.5-2.3c4.9-0.9,9.7-1.9,14.4-2.9c4.8-1,9.6-2.2,14.3-3.3c4.8-1.1,9.6-2.1,14.3-3.3c4.8-1.2,9.4-2.8,14.1-4.1&#10;&#9;&#9;&#9;&#9;c4.8-1.3,9.6-2.3,14.2-3.7c4.8-1.5,9.4-3,13.9-4.6c4.7-1.6,9.1-3.8,13.6-5.5c4.7-1.8,9.4-3,13.9-4.8c4.6-1.9,9.1-3.9,13.4-5.9&#10;&#9;&#9;&#9;&#9;C823.6,729.4,827.6,727,831.8,724.8z"/>
		</g>
		<g>
			<path class="st19" d="M831.7,717.2c2.3,7.3,0.3,7.5,0.3,15.1s1.8,7.8,0,15.2c-4.2,2.2-8.7,4.1-13.3,6.2c-4.3,2-8.7,4.1-13.4,6&#10;&#9;&#9;&#9;&#9;c-4.4,1.8-9,3.6-13.6,5.4c-4.5,1.7-9,3.6-13.7,5.2c-4.5,1.5-9.1,3.2-13.9,4.7c-4.6,1.4-9.4,2.5-14.2,3.8&#10;&#9;&#9;&#9;&#9;c-4.6,1.3-9.3,2.9-14.1,4.1c-4.7,1.2-9.4,2.3-14.3,3.5c-4.7,1.1-9.5,2-14.4,3c-4.7,1-9.6,1.7-14.4,2.7c-4.7,0.9-9.5,2.1-14.4,3&#10;&#9;&#9;&#9;&#9;c-4.8,0.8-9.4,1.6-14.3,2.4c-2.4-7.2-0.4-7.6-0.4-15.2s-1.9-7.9,0.3-15.2c4.9-0.8,9.6-1.7,14.4-2.6c4.9-0.9,9.6-1.9,14.4-2.8&#10;&#9;&#9;&#9;&#9;c4.9-0.9,9.8-1.3,14.5-2.3c4.8-1,9.6-2.3,14.3-3.4c4.8-1.1,9.5-2.6,14.2-3.8c4.8-1.2,9.6-2.2,14.3-3.5c4.8-1.3,9.5-2.6,14.1-4&#10;&#9;&#9;&#9;&#9;c4.8-1.5,9.3-3.2,13.9-4.7c4.7-1.6,9.2-3.5,13.7-5.2c4.7-1.8,9.1-3.7,13.6-5.6c4.6-1.9,9.3-3.4,13.6-5.5&#10;&#9;&#9;&#9;&#9;C823.5,721.7,827.5,719.4,831.7,717.2z" style="fill: rgb(216, 163, 119);"/>
		</g>
		<g>
			<path class="st20" d="M664.3,715.1c-6.4,2.9-5.4-4.7-10.8-9.2c-5.3-4.6-5.5-4.4-10.8-9c-5.3-4.6-4.9-5.1-10.2-9.7&#10;&#9;&#9;&#9;&#9;c-5.3-4.6-5.8-4.1-11.1-8.6c-5.3-4.6-5.1-4.8-10.4-9.4c-5.3-4.6-5.2-4.7-10.5-9.3c-5.3-4.6-5.5-4.3-10.9-8.9&#10;&#9;&#9;&#9;&#9;c-5.3-4.6-5.4-4.4-10.8-9c-5.3-4.6-5.1-4.9-10.4-9.4c-5.3-4.6-5.4-4.5-10.7-9c-5.3-4.6-5.4-4.5-10.7-9c-5.3-4.6-5.3-4.6-10.6-9.2&#10;&#9;&#9;&#9;&#9;c-5.3-4.6-5.1-4.8-10.4-9.4c-5.3-4.6-5.5-4.3-10.9-8.9c-5.3-4.6-5-5-10.3-9.6c-5.3-4.6-8.2-2.4-11-8.8c-2.8-6.6,0.3-7.2,0.5-14.3&#10;&#9;&#9;&#9;&#9;c0.3-7.1-5.7-11,0.8-14c6.6-3,5.5,4.3,11.4,8.6c5.9,4.3,6.1,4,11.9,8.3c5.9,4.3,5.8,4.3,11.7,8.7c5.9,4.3,5.6,4.6,11.5,9&#10;&#9;&#9;&#9;&#9;c5.9,4.3,5.9,4.2,11.8,8.6c5.9,4.3,5.8,4.4,11.7,8.7c5.9,4.3,6,4.1,11.9,8.4c5.9,4.3,6,4.2,11.8,8.5c5.9,4.3,5.7,4.6,11.5,8.9&#10;&#9;&#9;&#9;&#9;c5.9,4.3,6.1,4,11.9,8.4c5.9,4.3,5.8,4.3,11.7,8.7c5.9,4.3,5.7,4.5,11.6,8.8c5.9,4.3,5.7,4.5,11.6,8.9c5.9,4.3,6.1,4.1,11.9,8.4&#10;&#9;&#9;&#9;&#9;c5.9,4.3,8.8,2,11.6,8.7c2.8,7.1-0.7,7.5-1.8,15c-1.1,7.5-3.3,7.5-2.6,15C667.2,708.3,671.3,711.9,664.3,715.1z" style="fill: rgb(127, 79, 40);"/>
		</g>
		<g>
			<path class="st19" d="M663.9,683.1c4.9-0.9,9.8-2,14.7-3c4.9-1,9.8-2.1,14.6-3.2c4.9-1.1,9.8-1.9,14.6-3.1&#10;&#9;&#9;&#9;&#9;c4.9-1.2,9.7-2.5,14.4-3.8c4.9-1.3,9.5-3.1,14.2-4.5c4.8-1.5,9.7-2.6,14.3-4.1c4.8-1.6,9.4-3.6,14-5.2c4.7-1.7,9.5-3.3,14-5.1&#10;&#9;&#9;&#9;&#9;c4.7-1.9,9.3-3.8,13.7-5.8c4.6-2,9.1-4.3,13.4-6.4c4.6-2.2,9.1-4.3,13.4-6.6c4.5-2.4,8.6-5,12.7-7.6c2.4,7,0.4,7.4,0.4,14.8&#10;&#9;&#9;&#9;&#9;c0,7.4,1.3,7.6-0.4,14.8c-4.1,2.6-8.1,5.4-12.6,8c-4.2,2.4-8.6,4.8-13.2,7.2c-4.3,2.3-8.8,4.4-13.5,6.6&#10;&#9;&#9;&#9;&#9;c-4.4,2.1-8.9,4.3-13.6,6.3c-4.5,1.9-9.4,3.2-14.1,5c-4.6,1.8-9,4.1-13.9,5.7c-4.6,1.6-9.5,2.9-14.3,4.4&#10;&#9;&#9;&#9;&#9;c-4.7,1.5-9.5,2.7-14.4,4.1c-4.7,1.3-9.5,2.9-14.4,4.1c-4.8,1.2-9.6,2.5-14.5,3.6c-4.8,1.1-9.8,1.8-14.7,2.8&#10;&#9;&#9;&#9;&#9;c-4.8,1-9.8,2-14.8,2.9c-2.5-7.6,0.6-8-0.2-15.9C663,691,661.7,690.7,663.9,683.1z" style="fill: rgb(216, 163, 119);"/>
		</g>
		<g>
			<path class="st21" d="M664.1,682.8c-5.6-4.8-5.8-4.6-11.5-9.4c-5.7-4.8-5.2-5.3-10.9-10.1c-5.7-4.8-6.2-4.2-11.8-8.9&#10;&#9;&#9;&#9;&#9;c-5.7-4.8-5.4-5.1-11-9.9c-5.7-4.8-5.8-4.6-11.5-9.4c-5.7-4.8-6-4.3-11.7-9.1c-5.7-4.8-5.7-4.7-11.4-9.5&#10;&#9;&#9;&#9;&#9;c-5.7-4.8-5.1-5.4-10.8-10.1c-5.7-4.8-5.9-4.5-11.6-9.2c-5.7-4.8-5.8-4.6-11.4-9.4c-5.7-4.8-5.4-5.1-11.1-9.8&#10;&#9;&#9;&#9;&#9;c-5.7-4.8-5.4-5.1-11-9.9c-5.7-4.8-5.9-4.5-11.6-9.2c-5.7-4.8-5.4-5.1-11-9.9c-5.7-4.8-6.6-3.7-12-8.7c-0.4-0.4,0.9-0.5,1.4-0.4&#10;&#9;&#9;&#9;&#9;c7,1.6,7.1,1.6,14.1,3.3c7,1.7,6.9,2.4,13.9,4.1c7,1.7,7.1,1.4,14.1,3.1c7,1.7,7.2,1.2,14.2,3c7,1.7,6.8,2.4,13.9,4.2&#10;&#9;&#9;&#9;&#9;c7,1.7,6.9,2.1,13.9,3.9c7,1.7,7.3,0.7,14.3,2.4c7,1.7,6.9,2.3,13.9,4c7,1.7,7,1.8,14,3.6c7,1.7,7,1.9,14,3.6&#10;&#9;&#9;&#9;&#9;c7,1.7,7.1,1.4,14.1,3.1c7,1.7,7.1,1.4,14.1,3.2c7,1.7,7,1.8,14,3.6c7,1.7,6.9,2.2,13.9,3.9c7,1.7,7.1,1.5,14.1,3.3&#10;&#9;&#9;&#9;&#9;c7,1.7,7.1,1.6,14.1,3.3c7,1.7,7,1.7,14,3.5c7,1.7,6.8,2.5,13.9,4.2c7,1.7,7,1.8,14,3.5c7,1.7,7.2,0.9,14.2,2.7&#10;&#9;&#9;&#9;&#9;c7,1.7,6.8,2.5,13.9,4.2c7,1.7,7.2,1,14.2,2.8c7,1.7,6.9,2.2,13.9,3.9s7.1,1.4,14.1,3.5c0.4,0.1,0.5,0.6,0.2,0.9&#10;&#9;&#9;&#9;&#9;c-4.1,2.5-8.7,4.6-13.2,7c-4.3,2.3-8.6,4.7-13.2,6.9c-4.4,2.1-8.5,5-13.2,7c-4.5,2-9.4,3.1-14.1,5c-4.5,1.8-8.9,4.2-13.7,6&#10;&#9;&#9;&#9;&#9;c-4.6,1.7-9.3,3.2-14.1,4.8c-4.6,1.5-9.4,2.9-14.3,4.3c-4.7,1.4-9.3,3.2-14.2,4.6c-4.7,1.3-9.9,1.3-14.7,2.6&#10;&#9;&#9;&#9;&#9;c-4.8,1.2-9.3,3.6-14.2,4.7c-4.8,1.1-9.8,1.6-14.7,2.6c-4.8,1-9.8,1.5-14.7,2.5C663.8,682.8,664.2,682.9,664.1,682.8z" style="fill: rgb(178, 114, 52);"/>
		</g>
		<g class="st3" style="opacity: 0.1;">
			<path d="M663.7,774.9c-3.1-6.8-5.4-4.9-11-9.7c-5.6-4.8-5.5-5-11.1-9.8c-5.6-4.8-5.6-4.9-11.2-9.8c-5.6-4.8-5.6-4.8-11.3-9.7&#10;&#9;&#9;&#9;&#9;c-5.6-4.8-5.6-4.9-11.2-9.7c-5.6-4.8-6-4.4-11.7-9.2c-5.6-4.8-5.6-4.8-11.3-9.7c-5.6-4.8-5.6-4.9-11.2-9.7&#10;&#9;&#9;&#9;&#9;c-5.6-4.8-5.7-4.8-11.3-9.6c-5.6-4.8-5.6-4.9-11.2-9.7c-5.6-4.8-5.3-5.2-11-10c-5.6-4.8-5.8-4.7-11.4-9.5&#10;&#9;&#9;&#9;&#9;c-5.6-4.8-5.5-5-11.2-9.8c-5.6-4.8-5.5-5-11.1-9.9s-5.1-13.3-11.6-9.6c-7,4,0,8.2,0,16.3c0,8.1-3.1,8.7,0.2,16.1&#10;&#9;&#9;&#9;&#9;c3,6.8,5.5,4.9,11.1,9.7c5.6,4.8,5.7,4.7,11.3,9.5c5.6,4.8,5.4,5,11,9.8c5.6,4.8,5.9,4.5,11.5,9.2c5.6,4.8,5.5,5,11.1,9.7&#10;&#9;&#9;&#9;&#9;c5.6,4.8,5.7,4.7,11.3,9.5c5.6,4.8,5.8,4.6,11.5,9.3c5.6,4.8,5.7,4.7,11.3,9.5c5.6,4.8,5.4,5.1,11,9.9c5.6,4.8,5.8,4.6,11.4,9.4&#10;&#9;&#9;&#9;&#9;c5.6,4.8,5.7,4.7,11.3,9.5c5.6,4.8,5.5,4.9,11.1,9.7c5.6,4.8,5.5,5,11.1,9.7c5.6,4.8,5.8,4.6,11.4,9.4c5.6,4.8,4.9,13.1,11.5,9.8&#10;&#9;&#9;&#9;&#9;c6.8-3.4-1.3-8-0.4-15.6C664.7,782.3,666.8,781.8,663.7,774.9z"/>
		</g>
		<g>
			<path class="st20" d="M663.9,767.1c-3.1-6.8-5.5-4.9-11.1-9.8c-5.6-4.8-5.8-4.7-11.4-9.5c-5.6-4.8-5.7-4.8-11.3-9.6&#10;&#9;&#9;&#9;&#9;c-5.6-4.8-5.6-4.8-11.3-9.7c-5.6-4.8-5.5-5-11.1-9.9c-5.6-4.8-5.9-4.5-11.5-9.4c-5.6-4.8-5.4-5.1-11-10&#10;&#9;&#9;&#9;&#9;c-5.6-4.8-5.6-4.9-11.2-9.7c-5.6-4.8-5.7-4.8-11.3-9.6c-5.6-4.8-5.6-4.9-11.2-9.7c-5.6-4.8-5.8-4.6-11.4-9.5&#10;&#9;&#9;&#9;&#9;c-5.6-4.8-5.8-4.7-11.4-9.5c-5.6-4.8-5.5-5-11.1-9.8c-5.6-4.8-5.8-4.7-11.4-9.5c-5.6-4.8-4.7-13.8-11.2-10c-7,4,0,8.2,0,16.3&#10;&#9;&#9;&#9;&#9;c0,8.1-3.2,8.8,0,16.2c3,6.8,5.9,4.5,11.6,9.3c5.6,4.8,5.5,5,11.1,9.7c5.6,4.8,5.5,4.9,11.1,9.7c5.6,4.8,5.6,4.9,11.2,9.6&#10;&#9;&#9;&#9;&#9;c5.6,4.8,5.6,4.8,11.3,9.6c5.6,4.8,5.6,4.8,11.2,9.6c5.6,4.8,6,4.3,11.7,9.1c5.6,4.8,5.6,4.8,11.3,9.6c5.6,4.8,5.6,4.8,11.3,9.6&#10;&#9;&#9;&#9;&#9;c5.6,4.8,5.7,4.7,11.3,9.5c5.6,4.8,5.6,4.8,11.2,9.6c5.6,4.8,5.3,5.1,11,9.9c5.6,4.8,5.8,4.6,11.4,9.4c5.6,4.8,5.5,4.9,11.2,9.7&#10;&#9;&#9;&#9;&#9;c5.6,4.8,4.9,13.1,11.5,9.8c6.8-3.4-1-8,0-15.5C665.2,774.6,667.1,774.1,663.9,767.1z" style="fill: rgb(127, 79, 40);"/>
		</g>
		<g>
			<path class="st0" d="M503.9,618.5c3.7,7.1,6.1,5.2,12.1,10.5c6,5.3,6,5.4,11.9,10.7c6,5.3,6,5.3,12,10.6s4.5,7.8,12,10.5&#10;&#9;&#9;&#9;&#9;c6.8,2.5-0.1-6.2-1.3-14.3c-0.7-4.4-1.6-9.3-3.1-14.1c-1.4-4.7-3.4-9.3-6-13.1c-2.8-4.2-6.4-7.4-11-8.8&#10;&#9;&#9;&#9;&#9;c-3.9-1.2-8.6-1.3-14.1,0.8C512.8,612.8,508.5,615.2,503.9,618.5z" style="fill: rgb(255, 230, 166);"/>
		</g>
		<g>
			<path class="st0" d="M503.9,679.5c-0.5-1.6,4.1,1.5,10.9,6.8c3.1,2.4,6.7,5.4,10.5,8.6c3.4,2.8,6.9,5.7,10.4,8.6&#10;&#9;&#9;&#9;&#9;c3.5,3,7,6,10.3,8.8c3.7,3.2,7.3,6.1,10.3,8.8c6.1,5.3,10.4,2.1,10.1,8.9c-0.3,7.2-4.4,5.6-11.5,8.4c-4,1.6-8.8,2.2-14.1,0.4&#10;&#9;&#9;&#9;&#9;c-3.7-1.3-7.7-3.7-11.8-7.9c-2.8-2.9-5.7-6.7-8.5-11.5c-2.2-3.6-4.5-7.8-6.7-12.7c-1.8-4-3.7-8.4-5.5-13.3&#10;&#9;&#9;&#9;&#9;C506.9,689,505.4,684.5,503.9,679.5z" style="fill: rgb(255, 230, 166);"/>
		</g>
		<g>
			<path class="st0" d="M547.4,752c3,6,5,4.4,10,8.9c5,4.4,5.1,4.4,10,8.8c5,4.4,5,4.4,10,8.9c5,4.4,4.9,4.5,9.9,8.9&#10;&#9;&#9;&#9;&#9;c5,4.4,5,4.5,10,8.9c5,4.4,3.6,7,10.1,8.7c6.8,1.8,0.8-5.9,0.2-13.9c-0.3-4.2-1-9-2.5-13.8c-1.4-4.3-3.3-8.7-6.1-12.6&#10;&#9;&#9;&#9;&#9;c-2.6-3.6-6.1-6.8-10.4-9.3c-3.7-2.1-8-3.8-13.2-4.7c-4.1-0.7-8.8-1-14-0.8C557.2,750.3,552.5,751,547.4,752z" style="fill: rgb(255, 230, 166);"/>
		</g>
		<g>
			<path class="st0" d="M562.4,639.5c-0.1-0.7,4.7,2.7,11.4,8c3.3,2.6,6.9,5.7,10.8,8.9c3.6,2.9,7.4,5.8,10.9,8.8&#10;&#9;&#9;&#9;&#9;c3.9,3.2,7.5,6.3,10.7,9c6.3,5.3,12.1,2.1,10.7,8.9c-1.4,7-5.7,3.2-13.5,4.3c-4.3,0.6-9.3,0.5-14.2-0.9&#10;&#9;&#9;&#9;&#9;c-4.2-1.2-8.5-3.4-12.3-7.2c-2.9-2.9-5.6-6.9-7.8-11.9c-1.7-3.8-3.3-8.3-4.4-13.6C563.7,649.5,562.9,644.8,562.4,639.5z" style="fill: rgb(255, 230, 166);"/>
		</g>
		<g>
			<path class="st0" d="M599.5,699.1c-0.6,0.2,3.9,4.1,10.5,9.7c3.3,2.8,7.1,6,11.1,9.4c3.7,3,7.6,6.1,11.3,9.1&#10;&#9;&#9;&#9;&#9;c4,3.3,7.8,6.5,11.2,9.2c6.6,5.3,5.1,12.7,11.4,9.1c6.3-3.7-0.4-6.4-2.2-14.5c-1-4.3-2.3-9.2-4.5-13.9c-2-4.4-4.7-8.6-8-12.2&#10;&#9;&#9;&#9;&#9;c-3.3-3.5-7.2-6.4-12.1-8.1c-4.2-1.4-9-2-14.5-1.4C609.4,695.8,604.7,697.1,599.5,699.1z" style="fill: rgb(255, 230, 166);"/>
		</g>
		<g>
			<path class="st0" d="M617.1,781c-0.3-1.1,4.4,2.1,10.9,6.7c3.3,2.3,6.9,5.1,10.6,7.9c3.7,2.7,7.3,5.5,10.6,7.9&#10;&#9;&#9;&#9;&#9;c6,4.6,9.2,1.6,10.5,8c1.3,6.5-2.4,6.7-6.6,11.6c-3,3.5-7,6-11.7,4.2c-2.9-1.1-6.1-3.9-9.5-9.1c-2-3.1-4-7-6.1-11.8&#10;&#9;&#9;&#9;&#9;c-1.6-3.6-3.1-7.8-4.7-12.5C619.7,789.9,618.4,785.6,617.1,781z" style="fill: rgb(255, 230, 166);"/>
		</g>
	</g>
</g>
<path d="M 688.400013 632 A 22.200001 22.200001 0 0 1 666.200012 654.200001 A 22.200001 22.200001 0 0 1 644.000011 632 A 22.200001 22.200001 0 0 1 666.200012 609.799999 A 22.200001 22.200001 0 0 1 688.400013 632 Z" class="st22" style="fill: rgb(19, 85, 140);" transform="matrix(-1, 0, 0, 1, 856.3177490234375, -503.8052673339844)"/>
<path d="M 672 617 L 667 617 L 670.9000244140625 619.5 L 668.9000244140625 626.7000122070312 L 674.5999755859375 622.4000244140625 L 682.5999755859375 625.2000122070312 L 678.5999755859375 620.9000244140625 L 680.2000122070312 617 L 675.9000244140625 619.2999877929688 L 672.7000122070312 613.9000244140625 Z" class="st23" style="fill: rgb(16, 67, 102);" transform="matrix(-1, 0, 0, 1, 856.3177490234375, -503.8052673339844)"/>
<path d="M 684.8 637.400024 A 4.8 5.4 0 0 1 680 642.800025 A 4.8 5.4 0 0 1 675.2 637.400024 A 4.8 5.4 0 0 1 680 632.000024 A 4.8 5.4 0 0 1 684.8 637.400024 Z" class="st24" style="opacity: 0.5; fill: rgb(255, 255, 255);" transform="matrix(-1, 0, 0, 1, 856.3177490234375, -503.8052673339844)"/>
<path d="M 739.800024 629.200012 A 17.4 17.4 0 0 1 722.400024 646.600012 A 17.4 17.4 0 0 1 705.000025 629.200012 A 17.4 17.4 0 0 1 722.400024 611.800013 A 17.4 17.4 0 0 1 739.800024 629.200012 Z" class="st22" style="fill: rgb(19, 85, 140);" transform="matrix(-1, 0, 0, 1, 856.3177490234375, -503.8052673339844)"/>
<path d="M 727 617 L 723 617 L 726.0999755859375 619.2000122070312 L 724.5 624.9000244140625 L 729 621.5999755859375 L 735.2999877929688 623.7999877929688 L 732.0999755859375 620.5 L 733.4000244140625 617.4000244140625 L 730 619.2999877929688 L 727.5 614.7999877929688 Z" class="st23" style="fill: rgb(16, 67, 102);" transform="matrix(-1, 0, 0, 1, 856.3177490234375, -503.8052673339844)"/>
<path d="M 737.000012 633.5 A 3.8 4.2 0 0 1 733.200012 637.7 A 3.8 4.2 0 0 1 729.400012 633.5 A 3.8 4.2 0 0 1 733.200012 629.3 A 3.8 4.2 0 0 1 737.000012 633.5 Z" class="st24" style="opacity: 0.5; fill: rgb(255, 255, 255);" transform="matrix(-1, 0, 0, 1, 856.3177490234375, -503.8052673339844)"/>
<path d="M 649.800024 591.200012 A 17.4 17.4 0 0 1 632.400024 608.600012 A 17.4 17.4 0 0 1 615.000025 591.200012 A 17.4 17.4 0 0 1 632.400024 573.800013 A 17.4 17.4 0 0 1 649.800024 591.200012 Z" class="st22" style="fill: rgb(19, 85, 140);" transform="matrix(-1, 0, 0, 1, 856.3177490234375, -503.8052673339844)"/>
<path d="M 637 579 L 633 579 L 636.0999755859375 581.2000122070312 L 634.5 586.9000244140625 L 639 583.5999755859375 L 645.2999877929688 585.7999877929688 L 642.0999755859375 582.5 L 643.4000244140625 579.4000244140625 L 640 581.2999877929688 L 637.5 576.7999877929688 Z" class="st23" style="fill: rgb(16, 67, 102);" transform="matrix(-1, 0, 0, 1, 856.3177490234375, -503.8052673339844)"/>
<path d="M 647.000012 595.5 A 3.8 4.2 0 0 1 643.200012 599.7 A 3.8 4.2 0 0 1 639.400012 595.5 A 3.8 4.2 0 0 1 643.200012 591.3 A 3.8 4.2 0 0 1 647.000012 595.5 Z" class="st24" style="opacity: 0.5; fill: rgb(255, 255, 255);" transform="matrix(-1, 0, 0, 1, 856.3177490234375, -503.8052673339844)"/>
<path d="M 600.800024 584.200012 A 17.4 17.4 0 0 1 583.400024 601.600012 A 17.4 17.4 0 0 1 566.000025 584.200012 A 17.4 17.4 0 0 1 583.400024 566.800013 A 17.4 17.4 0 0 1 600.800024 584.200012 Z" class="st22" style="fill: rgb(19, 85, 140);" transform="matrix(-1, 0, 0, 1, 856.3177490234375, -503.8052673339844)"/>
<path d="M 588 572 L 584 572 L 587.0999755859375 574.2000122070312 L 585.5 579.9000244140625 L 590 576.5999755859375 L 596.2999877929688 578.7999877929688 L 593.0999755859375 575.5 L 594.4000244140625 572.4000244140625 L 591 574.2999877929688 L 588.5 569.7999877929688 Z" class="st23" style="fill: rgb(16, 67, 102);" transform="matrix(-1, 0, 0, 1, 856.3177490234375, -503.8052673339844)"/>
<path d="M 598.000012 588.5 A 3.8 4.2 0 0 1 594.200012 592.7 A 3.8 4.2 0 0 1 590.400012 588.5 A 3.8 4.2 0 0 1 594.200012 584.3 A 3.8 4.2 0 0 1 598.000012 588.5 Z" class="st24" style="opacity: 0.5; fill: rgb(255, 255, 255);" transform="matrix(-1, 0, 0, 1, 856.3177490234375, -503.8052673339844)"/>
<path d="M 708.800024 597.200012 A 17.4 17.4 0 0 1 691.400024 614.600012 A 17.4 17.4 0 0 1 674.000025 597.200012 A 17.4 17.4 0 0 1 691.400024 579.800013 A 17.4 17.4 0 0 1 708.800024 597.200012 Z" class="st22" style="fill: rgb(19, 85, 140);" transform="matrix(-1, 0, 0, 1, 856.3177490234375, -503.8052673339844)"/>
<path d="M 696 585 L 692 585 L 695.0999755859375 587.2000122070312 L 693.5 592.9000244140625 L 698 589.5999755859375 L 704.2999877929688 591.7999877929688 L 701.0999755859375 588.5 L 702.4000244140625 585.4000244140625 L 699 587.2999877929688 L 696.5 582.7999877929688 Z" class="st23" style="fill: rgb(16, 67, 102);" transform="matrix(-1, 0, 0, 1, 856.3177490234375, -503.8052673339844)"/>
<path d="M 706.000012 601.5 A 3.8 4.2 0 0 1 702.200012 605.7 A 3.8 4.2 0 0 1 698.400012 601.5 A 3.8 4.2 0 0 1 702.200012 597.3 A 3.8 4.2 0 0 1 706.000012 601.5 Z" class="st24" style="opacity: 0.5; fill: rgb(255, 255, 255);" transform="matrix(-1, 0, 0, 1, 856.3177490234375, -503.8052673339844)"/>
<path d="M 786.800024 615.200012 A 17.4 17.4 0 0 1 769.400024 632.600012 A 17.4 17.4 0 0 1 752.000025 615.200012 A 17.4 17.4 0 0 1 769.400024 597.800013 A 17.4 17.4 0 0 1 786.800024 615.200012 Z" class="st22" style="fill: rgb(19, 85, 140);" transform="matrix(-1, 0, 0, 1, 856.3177490234375, -503.8052673339844)"/>
<path d="M 774 603 L 770 603 L 773.0999755859375 605.2000122070312 L 771.5 610.9000244140625 L 776 607.5999755859375 L 782.2999877929688 609.7999877929688 L 779.0999755859375 606.5 L 780.4000244140625 603.4000244140625 L 777 605.2999877929688 L 774.5 600.7999877929688 Z" class="st23" style="fill: rgb(16, 67, 102);" transform="matrix(-1, 0, 0, 1, 856.3177490234375, -503.8052673339844)"/>
<path d="M 784.000012 619.5 A 3.8 4.2 0 0 1 780.200012 623.7 A 3.8 4.2 0 0 1 776.400012 619.5 A 3.8 4.2 0 0 1 780.200012 615.3 A 3.8 4.2 0 0 1 784.000012 619.5 Z" class="st24" style="opacity: 0.5; fill: rgb(255, 255, 255);" transform="matrix(-1, 0, 0, 1, 856.3177490234375, -503.8052673339844)"/>



</svg>