<?xml version="1.0" standalone="no"?>
<!DOCTYPE svg PUBLIC "-//W3C//DTD SVG 20010904//EN"
 "http://www.w3.org/TR/2001/REC-SVG-20010904/DTD/svg10.dtd">
<svg version="1.0" xmlns="http://www.w3.org/2000/svg"
 width="1823.000000pt" height="786.000000pt" viewBox="0 0 1823.000000 786.000000"
 preserveAspectRatio="xMidYMid meet">
<metadata>
Created by potrace 1.15, written by Peter Selinger 2001-2017
</metadata>
<g transform="translate(0.000000,786.000000) scale(0.100000,-0.100000)"
fill="#000000" stroke="none">
<path d="M3150 7572 c-31 -26 -66 -57 -80 -69 -13 -13 -27 -23 -32 -23 -26 0
-173 -269 -199 -365 -30 -113 -54 -151 -174 -275 -192 -197 -215 -222 -215
-231 0 -5 -4 -9 -8 -9 -4 0 -45 -49 -91 -110 -45 -60 -88 -116 -96 -123 -7 -8
-19 -33 -26 -57 -7 -24 -28 -58 -46 -76 -18 -19 -33 -36 -33 -39 0 -9 -39 -45
-49 -45 -5 0 -11 -3 -13 -7 -4 -10 -65 -53 -73 -53 -9 0 -235 -151 -270 -180
-51 -43 -165 -161 -165 -171 0 -16 -25 -10 -37 11 -7 10 -17 36 -22 57 -6 21
-19 70 -31 108 -11 39 -25 97 -29 130 -5 33 -14 87 -20 120 -26 144 -41 256
-41 301 0 26 -7 74 -16 106 -18 64 -16 63 -119 58 -76 -3 -263 -47 -293 -69
-45 -31 -70 -35 -100 -14 -83 55 -195 78 -249 50 -17 -9 -51 -39 -75 -66 -38
-42 -46 -58 -51 -103 -14 -129 44 -247 122 -248 31 -1 48 -13 83 -60 38 -50
31 -102 -21 -185 -51 -80 -61 -110 -61 -192 0 -55 4 -84 14 -92 9 -7 43 -9
102 -5 91 6 182 -3 289 -29 71 -17 109 -33 158 -67 34 -23 37 -28 37 -77 0
-61 -36 -130 -120 -228 -28 -33 -57 -71 -65 -85 -105 -195 -145 -310 -145
-422 0 -68 4 -85 31 -137 17 -32 51 -76 75 -96 24 -21 44 -45 44 -54 0 -22
-110 -238 -149 -291 -17 -24 -31 -47 -31 -52 0 -5 -30 -71 -66 -146 -36 -75
-71 -147 -77 -159 -7 -16 -32 -30 -86 -47 -111 -36 -184 -80 -236 -140 -25
-29 -45 -58 -45 -64 0 -6 -3 -12 -7 -14 -27 -11 -89 -135 -102 -201 -4 -25
-15 -57 -24 -70 -13 -21 -14 -39 -6 -122 14 -158 27 -249 38 -279 6 -15 11
-38 11 -50 0 -30 32 -101 64 -145 15 -19 26 -41 26 -48 0 -7 4 -13 8 -13 5 0
22 -19 39 -42 17 -24 39 -52 50 -63 10 -11 39 -47 66 -79 40 -50 47 -65 47
-103 0 -24 -7 -58 -16 -75 -13 -26 -15 -60 -11 -227 6 -216 15 -298 42 -381
21 -67 57 -140 67 -140 5 0 8 -7 8 -15 0 -8 4 -15 8 -15 5 0 14 -10 21 -22 6
-13 20 -36 31 -53 11 -16 23 -37 26 -45 17 -37 127 -161 228 -257 135 -127
232 -179 386 -207 52 -9 129 -23 170 -31 173 -33 292 -46 510 -56 221 -11 236
-10 383 12 313 49 498 14 582 -110 33 -47 19 -82 -43 -112 -57 -28 -73 -44
-101 -103 -39 -79 -16 -152 61 -199 24 -14 53 -19 122 -20 79 -2 99 1 144 23
28 14 52 28 52 32 0 5 6 8 13 8 14 0 117 86 151 127 109 130 126 312 42 467
-30 56 -48 75 -131 138 -142 107 -416 155 -955 168 -311 7 -473 21 -545 46
-23 8 -50 14 -60 14 -29 0 -174 37 -188 48 -7 5 -48 17 -92 26 -94 21 -254 96
-307 145 -21 19 -48 41 -60 49 -58 39 -105 109 -118 175 -8 40 10 53 29 20 9
-16 25 -18 153 -15 105 2 153 7 181 19 34 15 40 15 72 0 98 -47 182 -77 213
-77 16 0 69 -16 152 -45 19 -7 62 -20 95 -30 33 -10 78 -23 100 -30 155 -49
288 -73 505 -89 516 -39 755 -39 1020 -1 52 7 158 21 235 30 155 17 260 38
349 67 33 10 82 25 110 33 50 13 101 30 141 46 11 4 62 24 113 44 96 38 137
66 129 90 -3 7 0 21 7 31 22 33 26 68 11 114 -7 25 -14 36 -15 25 -1 -20 -1
-20 -10 1 -4 11 -8 117 -8 236 0 119 -3 235 -7 258 -4 23 -4 80 0 126 6 69 10
84 23 84 10 0 28 9 41 19 32 25 41 81 48 301 6 219 3 227 -121 319 -54 40 -56
43 -56 89 0 42 -4 49 -33 69 -50 34 -83 43 -156 43 -62 0 -70 -2 -96 -30 -22
-23 -38 -30 -67 -30 -25 0 -38 5 -38 13 0 8 -13 33 -30 55 -23 32 -40 44 -75
53 -48 12 -75 39 -75 76 0 40 -33 97 -87 151 -48 48 -52 54 -40 75 6 12 15 24
18 27 19 15 49 119 64 220 40 280 53 348 91 469 8 25 14 53 14 64 0 10 9 32
20 47 23 32 130 120 175 143 44 22 172 152 214 216 49 77 51 80 119 216 68
134 102 216 102 245 0 20 8 41 75 185 23 50 50 117 60 150 34 114 87 227 125
265 3 3 12 21 21 40 50 109 74 153 96 177 28 31 73 145 73 186 0 52 -15 68
-83 91 -38 13 -93 16 -270 16 -177 0 -236 4 -292 18 -82 20 -171 69 -224 122
-20 20 -51 45 -69 54 -17 9 -48 28 -69 42 -21 14 -74 43 -118 65 -44 22 -101
55 -127 72 -26 18 -73 49 -105 69 -32 21 -87 65 -122 98 -35 33 -67 60 -72 60
-5 0 -9 5 -9 11 0 7 -6 17 -14 23 -18 15 -46 90 -46 126 0 31 -19 80 -31 80
-4 0 -18 19 -32 43 -43 73 -85 107 -131 107 -34 0 -50 -8 -96 -48z m129 2 c52
-31 136 -180 127 -225 -5 -26 13 -55 117 -183 42 -52 20 -416 -39 -661 -19
-77 -71 -241 -88 -280 -8 -16 -22 -50 -32 -75 -32 -82 -64 -149 -75 -156 -14
-8 -6 78 18 221 9 55 15 157 16 265 0 144 -3 192 -21 275 -25 113 -43 170 -60
187 -7 7 -12 17 -12 22 0 15 -63 140 -72 144 -16 7 6 31 45 47 70 29 107 49
107 57 0 5 -4 16 -9 26 -5 9 -16 61 -25 116 -9 54 -19 103 -22 107 -12 19 -33
6 -105 -64 -91 -88 -189 -249 -189 -310 0 -20 5 -37 11 -37 5 0 34 14 64 30
30 17 60 30 68 30 39 0 120 -151 163 -305 34 -118 36 -438 4 -614 -5 -31 -18
-105 -28 -165 -9 -60 -21 -111 -27 -113 -6 -2 -10 54 -11 155 0 128 -5 172
-22 236 -12 43 -26 84 -31 90 -4 6 -23 38 -41 71 -35 64 -158 193 -209 219
-17 9 -31 21 -31 26 0 6 -4 10 -10 10 -5 0 -32 14 -58 30 -27 17 -58 30 -69
30 -10 0 -28 6 -38 14 -17 13 -17 15 18 50 20 20 37 39 37 42 0 3 13 17 28 32
38 36 54 65 76 137 10 33 25 74 32 92 8 17 14 34 14 37 0 15 45 106 52 106 4
0 8 5 8 12 0 16 86 125 128 163 19 17 57 51 85 78 56 52 66 55 106 31z m-27
-309 c3 -44 6 -42 -112 -94 -91 -41 -120 -47 -120 -27 0 19 95 167 131 206 13
14 35 33 49 43 l25 17 12 -52 c6 -29 13 -71 15 -93z m388 -187 c46 -44 104
-83 180 -121 41 -21 82 -42 90 -47 8 -5 53 -32 100 -59 47 -27 99 -62 115 -77
33 -30 140 -99 198 -128 41 -21 46 -34 20 -42 -57 -19 -123 -49 -123 -56 0 -4
-5 -8 -11 -8 -5 0 -41 -20 -79 -45 -38 -25 -73 -45 -77 -45 -8 0 -257 -251
-328 -330 -22 -25 -80 -88 -130 -141 -50 -53 -102 -116 -115 -142 -14 -25 -45
-78 -70 -117 -25 -39 -52 -83 -61 -98 -12 -21 -23 -27 -49 -27 -28 0 -38 7
-67 48 -32 45 -33 49 -19 75 28 54 76 162 76 171 0 5 7 22 15 38 14 28 22 47
64 153 12 30 26 64 30 75 5 11 16 39 25 63 9 23 23 59 31 80 20 52 41 132 60
232 10 47 22 99 27 115 10 32 31 274 33 390 1 39 2 74 3 78 3 10 32 -6 62 -35z
m-865 -350 c178 -83 316 -246 378 -448 27 -90 26 -337 -3 -493 l-20 -108 31
-55 31 -55 -16 -53 c-29 -93 -98 -146 -189 -146 -48 0 -60 4 -84 28 -15 16
-37 45 -48 66 -19 35 -19 38 -3 66 11 20 13 30 5 33 -27 9 -62 -60 -52 -101 9
-35 53 -91 86 -108 38 -19 177 -19 203 1 36 27 53 19 58 -29 5 -41 83 -217
100 -224 5 -2 8 -8 8 -14 0 -25 61 -66 129 -87 67 -20 73 -21 105 -6 19 9 41
24 49 33 43 50 36 144 -14 186 -28 24 -31 24 -67 10 -20 -9 -41 -20 -46 -25
-6 -5 -41 -9 -79 -9 -64 0 -71 2 -103 33 -32 29 -35 39 -41 102 -10 129 30
205 108 205 46 0 109 19 109 33 0 5 42 50 93 101 81 81 105 99 197 144 58 28
163 70 234 93 125 41 132 42 225 36 128 -8 283 -45 313 -75 7 -7 17 -12 24
-12 6 0 42 -29 79 -65 74 -72 73 -68 36 -165 -12 -30 -26 -71 -30 -90 -14 -52
-60 -167 -81 -200 -5 -8 -25 -48 -44 -88 -47 -95 -140 -235 -181 -270 -107
-91 -134 -110 -199 -135 -153 -61 -196 -71 -301 -71 -61 0 -109 4 -122 12 -13
7 -96 23 -185 37 -91 13 -203 37 -253 54 -108 35 -270 115 -301 147 -11 13
-26 24 -33 24 -6 0 -11 5 -11 11 0 5 -15 16 -34 24 -33 14 -112 81 -206 175
-26 26 -62 79 -84 125 -22 44 -73 124 -113 177 -40 53 -73 102 -73 108 0 5 -3
10 -8 10 -12 0 -80 140 -97 203 -12 42 -17 105 -18 235 l-2 177 95 125 c101
134 130 168 228 268 85 86 121 94 217 50z m-1426 -167 c6 -22 16 -84 21 -138
17 -185 50 -376 87 -513 24 -88 41 -144 48 -162 5 -13 2 -18 -8 -18 -44 0
-135 -48 -194 -103 -64 -61 -81 -65 -123 -33 -61 46 -222 79 -380 79 -150 -1
-153 1 -148 85 6 78 25 124 93 219 17 24 34 43 38 43 11 0 36 -26 83 -85 105
-133 144 -175 160 -175 21 0 17 13 -14 46 -15 16 -50 58 -77 94 -43 58 -96
118 -241 272 -24 26 -44 54 -44 63 0 40 91 149 149 179 17 9 31 20 31 24 0 4
15 13 33 20 35 15 42 18 80 45 59 42 241 94 338 96 l56 1 12 -39z m3592 18
c117 -25 117 -69 -2 -254 -14 -22 -34 -58 -43 -80 -29 -66 -59 -120 -70 -127
-15 -10 -82 6 -196 47 -157 56 -311 46 -600 -41 -81 -24 -130 -44 -170 -69
-22 -14 -42 -25 -45 -25 -10 0 -145 -90 -214 -142 -35 -26 -68 -48 -72 -48
-22 0 -3 27 74 108 45 48 114 123 152 167 132 149 287 295 357 338 38 23 81
50 96 59 15 10 34 20 42 24 8 3 26 11 40 17 14 6 48 16 75 22 69 15 507 19
576 4z m-4137 -35 c51 -25 54 -37 16 -64 -27 -19 -35 -20 -59 -10 -16 6 -44
10 -62 8 -27 -2 -38 -10 -53 -39 -18 -33 -19 -41 -6 -78 12 -38 12 -45 -8 -79
-31 -55 -56 -54 -81 4 -27 59 -28 148 -3 185 29 43 86 96 107 101 33 6 108 -7
149 -28z m3791 -407 c22 -8 73 -25 113 -37 73 -21 94 -39 74 -63 -11 -12 -37
-79 -52 -132 -25 -87 -53 -145 -69 -145 -3 0 -33 25 -66 57 -105 98 -219 139
-426 149 -103 6 -135 4 -175 -9 -27 -9 -74 -24 -104 -33 -59 -18 -109 -38
-152 -60 -14 -8 -31 -14 -36 -14 -20 0 -133 -73 -177 -114 -24 -23 -58 -54
-75 -70 -17 -16 -34 -26 -37 -22 -4 3 0 6 7 6 7 0 10 3 7 7 -4 3 5 16 18 29
14 13 25 26 25 29 0 12 125 135 138 135 6 0 12 4 12 9 0 5 20 22 45 38 25 15
45 31 45 36 0 4 5 7 11 7 6 0 34 15 62 34 104 68 155 91 287 129 114 33 176
47 220 51 85 7 265 -3 305 -17z m-2404 11 c0 -2 6 -66 14 -143 20 -207 45
-267 201 -477 39 -53 88 -131 108 -174 30 -61 55 -96 125 -166 49 -48 91 -88
95 -88 6 0 127 -90 136 -101 3 -3 16 -12 30 -19 14 -7 50 -29 80 -49 52 -34
83 -49 175 -84 93 -35 234 -69 319 -77 50 -5 126 -21 169 -35 43 -14 88 -25
100 -26 l22 0 -22 -9 c-13 -5 -71 -14 -130 -20 -59 -6 -110 -13 -114 -16 -9
-5 -229 22 -299 37 -43 9 -110 37 -120 51 -7 8 -146 78 -157 78 -14 0 -136 64
-197 104 -75 48 -306 280 -306 306 0 5 -4 10 -8 12 -11 4 -135 215 -154 263
-15 36 -38 108 -51 160 -3 11 -15 45 -26 75 -40 104 -54 188 -47 284 6 89 16
116 42 116 8 0 14 -1 15 -2z m-98 -133 c-6 -73 3 -129 39 -230 5 -16 12 -41
15 -55 3 -14 10 -30 15 -37 6 -7 14 -27 18 -45 16 -64 72 -212 83 -216 4 -2 7
-8 7 -14 0 -12 72 -132 83 -136 4 -2 7 -8 7 -14 0 -37 256 -305 368 -385 17
-13 36 -23 42 -23 5 0 10 -4 10 -10 0 -5 7 -10 15 -10 8 0 15 -4 15 -9 0 -6
-46 -7 -112 -4 -106 6 -116 8 -163 39 -27 18 -72 54 -99 79 -48 47 -49 47 -42
98 8 69 -20 126 -79 164 -38 25 -43 33 -47 75 -6 60 -43 109 -103 138 -25 12
-45 28 -45 35 0 16 -56 65 -75 65 -18 0 -105 88 -105 107 0 8 -6 27 -14 41
-20 39 -44 138 -50 209 -6 64 -1 93 15 93 12 0 73 42 77 53 2 4 8 7 13 7 6 0
15 5 22 10 45 38 64 49 79 50 16 0 17 -8 11 -75z m-264 -128 c5 -13 12 -50 16
-83 3 -32 12 -75 19 -94 25 -67 36 -104 31 -108 -2 -2 -21 10 -42 27 -37 29
-147 71 -189 71 -11 0 -29 6 -39 14 -17 12 -16 16 31 66 47 51 141 128 157
129 4 1 11 -9 16 -22z m-77 -238 c60 -23 162 -115 150 -135 -4 -7 -23 -30 -42
-51 -19 -21 -44 -54 -54 -73 -34 -62 -55 -76 -210 -144 -32 -14 -65 -26 -72
-26 -14 0 -134 -52 -164 -71 -33 -21 -64 -29 -83 -23 -25 8 -66 51 -78 81 -18
49 31 200 76 233 11 8 33 27 49 43 16 16 61 50 100 75 95 63 107 71 133 81 11
6 24 15 28 20 11 18 111 12 167 -10z m264 -158 c63 -18 92 -63 59 -91 -17 -14
-20 -46 -5 -55 5 -3 18 3 30 15 35 35 90 23 120 -25 27 -44 25 -80 -7 -121
-19 -26 -23 -38 -15 -46 9 -9 16 -7 30 5 24 21 51 21 77 -1 80 -67 71 -158
-20 -204 -16 -9 -50 -24 -75 -33 -25 -9 -60 -23 -78 -31 -18 -8 -41 -14 -51
-14 -24 0 -129 113 -159 171 -13 24 -32 58 -42 74 -49 79 -60 107 -60 158 0
55 21 97 79 161 40 43 66 52 117 37z m-231 -243 c7 -32 42 -108 54 -118 3 -3
21 -35 40 -72 19 -37 61 -95 93 -129 32 -35 57 -67 55 -73 -5 -15 -170 -116
-190 -116 -21 0 -148 123 -170 165 -41 80 -57 120 -72 190 -21 92 -13 110 61
139 27 10 63 24 79 32 41 19 42 18 50 -18z m-625 -34 c0 -19 28 -71 53 -97 15
-14 16 -21 6 -33 -6 -8 -17 -14 -24 -14 -7 0 -40 -20 -74 -45 -34 -25 -66 -45
-71 -45 -15 0 -12 -86 5 -127 8 -19 15 -42 15 -50 0 -36 96 -208 145 -259 28
-30 48 -59 44 -65 -3 -6 -34 -11 -67 -11 -146 0 -272 126 -272 271 0 108 99
351 186 454 31 38 54 47 54 21z m2368 -85 c2 -46 -1 -58 -19 -75 -29 -26 -119
-26 -148 0 -28 26 -18 36 35 36 32 0 44 4 44 15 0 16 -8 17 -80 16 -25 -1 -52
4 -60 10 -12 8 -7 9 20 6 36 -5 105 17 129 41 7 7 28 12 45 10 30 -3 31 -4 34
-59z m-1978 11 c0 -36 42 -161 71 -210 5 -8 12 -22 16 -30 10 -24 64 -91 111
-139 45 -46 45 -63 -1 -77 -12 -3 -48 -19 -81 -35 -32 -16 -67 -29 -78 -29
-33 0 -120 101 -166 193 -44 90 -62 157 -62 238 0 46 2 50 41 75 46 29 117 53
137 46 6 -2 12 -16 12 -32z m-221 -145 c19 -125 54 -202 145 -324 38 -50 53
-78 46 -86 -5 -6 -35 -21 -67 -34 -32 -12 -73 -29 -92 -37 -30 -13 -35 -13
-51 1 -9 8 -21 15 -26 15 -51 2 -179 234 -209 378 -6 29 -3 37 28 65 44 39
166 104 203 106 6 1 16 -36 23 -84z m999 -111 c18 -20 32 -38 32 -40 0 -2 17
-21 38 -42 36 -35 142 -181 142 -196 0 -9 43 -70 53 -74 4 -2 7 -8 7 -13 0
-13 78 -133 164 -251 39 -53 96 -131 125 -172 30 -42 59 -76 63 -76 4 0 8 -7
8 -15 0 -8 4 -15 9 -15 5 0 22 -20 38 -45 15 -25 31 -45 36 -45 4 0 7 -7 7
-15 0 -8 4 -15 9 -15 5 0 12 -12 15 -26 5 -19 -1 -34 -24 -64 -22 -27 -32 -51
-33 -79 -2 -70 34 -111 113 -126 26 -5 39 -15 50 -38 8 -18 29 -41 46 -52 19
-12 40 -39 52 -68 13 -29 29 -51 41 -54 27 -7 16 -28 -21 -44 -26 -11 -35 -10
-64 6 -19 10 -34 22 -34 27 0 4 -6 8 -14 8 -8 0 -16 4 -18 8 -1 5 -23 22 -48
39 -25 17 -56 41 -70 53 -14 12 -52 43 -85 68 -33 26 -65 51 -71 57 -6 6 -34
28 -62 50 -29 21 -52 43 -52 47 0 4 -7 8 -15 8 -8 0 -15 4 -15 8 0 5 -19 23
-42 40 -41 29 -54 40 -137 113 -19 16 -53 44 -77 61 -24 17 -44 35 -44 40 0 4
-7 8 -15 8 -8 0 -15 4 -15 8 0 4 -15 16 -32 27 -18 10 -55 41 -81 67 -26 26
-50 48 -52 48 -2 0 -34 30 -72 68 -38 37 -120 114 -183 172 -63 57 -139 128
-168 157 -29 29 -54 53 -57 53 -2 0 -18 13 -36 30 -32 29 -33 30 -14 45 11 8
23 15 27 15 16 0 155 71 173 88 51 46 311 177 361 181 6 1 25 -15 42 -35z
m522 -113 c36 -5 90 -20 120 -33 30 -14 75 -33 100 -43 25 -10 52 -25 61 -32
8 -7 20 -13 26 -13 17 0 91 -86 107 -125 45 -106 60 -236 39 -333 -9 -37 -17
-76 -19 -87 -2 -11 -11 -29 -21 -40 -10 -11 -44 -52 -77 -90 -32 -39 -64 -73
-71 -77 -13 -8 -65 33 -65 52 0 5 -3 10 -7 10 -5 0 -21 20 -36 45 -16 25 -33
45 -38 45 -5 0 -9 5 -9 11 0 7 -6 17 -14 23 -21 17 -166 214 -166 226 0 5 -4
10 -9 10 -4 0 -35 42 -69 93 -80 121 -115 171 -124 175 -5 2 -8 9 -8 15 -1 7
-16 34 -34 61 -19 27 -32 54 -30 60 18 46 182 68 344 47z m1097 -107 c-9 -53
-22 -64 -60 -53 -51 15 -234 11 -301 -7 -150 -38 -184 -47 -224 -62 -23 -8
-44 -13 -45 -11 -2 2 -15 21 -30 41 -53 73 -31 93 69 63 27 -8 75 -15 107 -15
82 0 356 44 437 70 48 16 53 13 47 -26z m-2257 -89 c7 -8 17 -15 22 -15 6 0
36 -25 69 -57 67 -64 67 -65 -19 -115 -53 -30 -57 -31 -101 -19 -63 17 -107
39 -172 86 l-56 41 23 17 c13 9 26 17 31 17 11 0 122 46 130 54 12 12 61 6 73
-9z m2161 -1 c30 -9 57 -20 60 -25 3 -5 0 -35 -7 -67 -7 -31 -21 -104 -31
-161 l-18 -104 -48 37 c-26 20 -52 36 -57 36 -6 0 -10 4 -10 8 0 5 -24 17 -52
29 -29 11 -69 26 -88 33 -19 8 -83 16 -141 18 l-105 3 -14 37 c-7 20 -15 42
-17 48 -5 14 87 58 162 78 66 17 176 35 245 39 25 2 50 4 56 5 6 1 35 -5 65
-14z m-2377 -148 c44 -30 103 -64 131 -76 l50 -21 -85 -82 c-47 -45 -95 -94
-107 -109 l-22 -27 -48 21 c-57 24 -209 133 -275 197 -48 45 -61 81 -35 98 6
4 55 8 108 8 55 0 102 5 110 11 14 11 65 32 83 33 5 1 45 -23 90 -53z m500
-100 c38 -36 70 -66 72 -66 2 0 21 -17 42 -38 20 -21 66 -65 102 -97 36 -32
83 -74 105 -94 22 -20 78 -66 125 -101 47 -35 87 -67 90 -71 3 -3 34 -30 70
-59 36 -29 77 -66 92 -82 15 -15 32 -28 37 -28 6 0 11 -4 11 -8 0 -5 27 -28
60 -52 33 -24 60 -47 60 -52 0 -4 5 -8 10 -8 15 0 80 -61 80 -74 0 -6 -14 -27
-29 -46 l-29 -35 -112 -5 -112 -5 -26 35 c-41 58 -68 73 -131 73 -66 0 -109
-23 -160 -83 l-34 -40 -105 0 c-99 0 -107 2 -154 30 -58 36 -120 40 -176 10
-44 -23 -72 -44 -72 -54 0 -25 -56 -58 -160 -93 -41 -15 -77 -29 -80 -32 -3
-3 -23 -15 -45 -25 -98 -48 -130 -101 -139 -222 -8 -134 -20 -153 -52 -86 -26
56 -55 133 -64 172 -4 19 -12 46 -17 60 -22 53 -39 325 -22 336 5 3 9 24 9 47
0 80 89 324 137 375 6 6 15 21 18 32 3 11 11 20 16 20 5 0 9 7 9 15 0 8 4 15
9 15 5 0 14 14 21 30 7 17 16 30 21 30 5 0 9 5 9 11 0 17 57 88 119 148 55 52
180 141 199 141 6 0 12 4 14 9 6 17 83 49 98 41 8 -5 46 -38 84 -74z m-889
-13 c11 -14 63 -58 115 -97 115 -87 137 -101 171 -109 46 -11 45 -42 -1 -112
-11 -16 -23 -37 -27 -45 -9 -19 -94 -163 -100 -170 -5 -5 -74 30 -88 46 -5 5
-44 36 -86 68 -67 50 -149 128 -149 143 0 2 -6 11 -14 18 -12 13 -8 26 29 97
109 214 110 215 150 161z m2492 17 c34 -10 70 -23 80 -28 10 -5 38 -20 63 -32
49 -25 97 -72 111 -108 15 -40 -1 -162 -28 -204 -28 -45 -40 -47 -54 -10 -26
73 -97 164 -154 199 -95 59 -136 78 -184 88 -54 10 -56 12 -59 46 -3 31 1 37
30 51 45 23 120 22 195 -2z m-65 -180 c96 -48 125 -70 160 -122 40 -59 74
-188 49 -188 -5 0 -11 -8 -15 -17 -8 -24 -59 -110 -73 -124 -15 -15 -43 -4
-43 16 0 18 -59 129 -101 190 -36 53 -65 78 -119 106 -77 38 -76 33 -32 142
14 34 18 37 55 37 26 0 66 -13 119 -40z m-2575 -188 c32 -32 81 -76 108 -98
28 -21 52 -42 53 -46 2 -5 10 -8 18 -8 8 0 14 -4 14 -9 0 -5 13 -14 29 -21 16
-6 38 -20 49 -30 18 -17 19 -25 11 -57 -6 -21 -14 -47 -19 -58 -4 -11 -11 -44
-14 -74 -3 -29 -8 -56 -10 -59 -6 -6 -48 21 -73 46 -31 31 -152 118 -198 142
-99 52 -140 79 -143 94 -4 18 98 236 110 236 5 0 34 -26 65 -58z m2455 -4 c27
-18 48 -38 48 -44 0 -7 6 -14 13 -17 26 -10 107 -189 107 -237 0 -14 -12 -41
-27 -59 -36 -42 -63 -35 -63 18 -1 57 -20 74 -90 79 l-60 4 0 57 c0 31 -4 61
-8 66 -18 25 -65 45 -107 45 -44 0 -45 1 -34 23 7 12 26 39 43 59 28 34 36 38
81 38 40 0 59 -6 97 -32z m-129 -140 c23 -11 27 -19 27 -53 0 -36 -6 -47 -50
-90 -48 -47 -52 -49 -106 -49 -65 0 -84 16 -84 71 0 25 9 42 36 69 61 59 123
77 177 52z m536 -32 c33 -18 80 -103 88 -162 5 -41 4 -44 -23 -54 -32 -13 -80
-63 -90 -94 -9 -28 -22 -36 -61 -36 -22 0 -33 5 -33 14 0 8 -25 40 -55 70
l-54 56 24 16 c14 9 25 22 25 28 0 7 12 23 26 37 14 13 30 33 35 44 20 41 37
66 55 80 24 18 29 18 63 1z m-2984 -87 c22 -11 54 -29 70 -40 17 -10 37 -22
45 -26 8 -4 21 -12 27 -19 7 -7 28 -22 48 -34 19 -12 35 -26 35 -31 0 -5 4 -9
9 -9 12 0 81 -61 81 -72 0 -4 9 -17 20 -28 21 -21 28 -90 10 -90 -9 0 -52 17
-155 59 -59 25 -140 41 -203 41 -153 0 -396 -64 -479 -126 -46 -35 -53 -31
-38 24 14 55 53 127 107 198 52 70 186 157 273 178 35 8 108 -4 150 -25z
m2623 -74 c2 -23 -7 -40 -37 -74 -37 -41 -42 -44 -95 -45 -46 0 -59 4 -77 23
-28 30 -16 54 49 98 40 28 55 32 102 30 53 -2 55 -3 58 -32z m62 -107 c11 -12
20 -34 20 -49 0 -60 -119 -100 -186 -64 -38 21 -34 41 13 65 15 8 44 27 63 42
42 34 63 35 90 6z m-2564 -117 c33 -11 83 -31 111 -45 29 -14 56 -26 60 -26
26 -1 57 -46 69 -97 15 -64 7 -78 -33 -62 -14 5 -82 9 -152 9 -138 0 -190 -11
-308 -66 -60 -28 -206 -121 -211 -136 -2 -4 -9 -8 -15 -9 -7 0 -41 -34 -77
-75 -65 -74 -82 -84 -88 -48 -2 10 -7 28 -12 39 -5 11 -14 81 -19 155 -12 160
-5 181 75 243 72 55 126 76 309 121 90 21 220 20 291 -3z m2798 -19 c-12 -9
-32 -26 -46 -37 -21 -17 -34 -38 -79 -127 -17 -34 -39 -103 -39 -125 0 -31
-19 -39 -42 -16 -19 20 -19 20 5 56 l25 36 -34 66 c-18 37 -38 73 -44 80 -9
10 -4 15 22 20 114 22 144 31 160 47 11 11 32 18 56 18 36 -1 37 -1 16 -18z
m468 -22 c18 -16 43 -30 55 -30 13 0 23 -4 23 -9 0 -4 -35 -13 -77 -19 -43 -7
-90 -14 -104 -18 -24 -5 -27 -3 -33 31 -12 61 -2 75 54 75 40 0 55 -5 82 -30z
m-251 8 c60 -12 66 -18 86 -83 10 -33 -2 -32 174 -19 83 6 159 -6 159 -25 0
-4 -17 -13 -37 -20 -61 -20 -113 -74 -113 -117 0 -21 -19 -34 -79 -53 -33 -11
-37 -9 -74 29 -36 36 -45 40 -89 40 -42 0 -54 -5 -87 -35 -21 -19 -43 -46 -50
-59 -11 -19 -24 -25 -68 -29 -63 -7 -97 3 -135 41 -33 31 -35 61 -8 121 11 24
20 50 20 57 0 42 82 126 144 148 52 18 85 19 157 4z m-1086 -8 c121 -26 344
-139 450 -228 6 -4 35 -17 65 -27 30 -11 67 -27 82 -36 26 -14 26 -17 12 -37
-14 -21 -37 -34 -119 -67 -62 -25 -153 -55 -168 -55 -7 0 -24 19 -37 43 -48
84 -103 115 -158 88 -9 -4 -34 -16 -55 -26 -40 -20 -89 -74 -101 -111 -7 -22
-46 -34 -114 -34 -29 0 -35 5 -52 43 -28 59 -49 83 -94 101 -52 22 -98 20
-140 -5 -27 -16 -38 -32 -52 -75 -20 -66 -35 -74 -109 -61 l-53 10 -5 53 c-6
59 -29 96 -78 126 -37 22 -81 23 -143 2 -26 -9 -50 -14 -53 -11 -9 10 -5 85 6
106 15 28 119 105 160 119 19 7 57 12 86 12 53 0 219 -23 290 -40 75 -18 101
-13 123 23 23 36 69 82 92 90 24 9 121 7 165 -3z m599 -90 c45 -72 54 -111 32
-133 -21 -21 -42 -13 -88 35 -21 21 -40 38 -43 38 -9 0 -55 52 -55 61 0 14 92
68 106 62 6 -2 28 -31 48 -63z m1049 13 c59 -33 97 -78 99 -117 1 -40 -16 -70
-75 -129 -43 -43 -58 -38 -33 12 9 16 16 41 16 54 0 26 -42 96 -88 144 l-31
33 32 9 c45 13 45 13 80 -6z m-2766 -15 c5 -7 14 -25 20 -39 l11 -26 -76 1
c-72 1 -80 -1 -130 -34 -29 -19 -55 -43 -58 -53 -6 -20 28 -92 60 -123 46 -46
209 -116 242 -104 59 23 73 132 28 226 -14 31 -24 58 -21 61 3 3 23 1 44 -4
34 -8 38 -12 37 -39 -1 -16 2 -50 7 -75 4 -25 4 -61 0 -80 -9 -40 0 -82 23
-105 15 -14 156 -54 194 -54 9 0 30 7 47 16 25 13 40 13 95 4 36 -6 85 -21
109 -32 53 -26 207 -29 244 -5 28 18 106 37 152 37 36 0 95 -24 95 -38 0 -11
75 -32 117 -33 l38 -1 -30 -10 c-48 -15 -708 -2 -830 17 -203 32 -339 62 -420
92 -108 39 -242 128 -275 182 -14 22 -28 41 -32 41 -5 0 -8 10 -8 23 0 38 50
74 170 125 104 43 132 49 147 30z m-619 -136 c59 -21 88 -44 95 -75 3 -12 15
-47 27 -77 44 -108 47 -104 -72 -119 -105 -14 -270 -62 -299 -87 -8 -8 -18
-14 -22 -14 -14 0 -143 -95 -168 -124 -69 -78 -81 -93 -97 -118 -9 -16 -20
-28 -24 -28 -4 0 -8 -7 -8 -15 0 -8 -7 -15 -15 -15 -8 0 -15 3 -15 8 0 4 -15
24 -34 44 -19 20 -49 57 -67 82 -18 25 -36 46 -41 46 -4 0 -8 7 -8 15 0 8 -4
15 -10 15 -31 0 -42 89 -16 138 24 47 226 222 256 222 6 0 10 4 10 8 0 9 96
54 185 88 80 30 245 33 323 6z m377 -162 c7 0 15 -4 17 -8 6 -15 101 -77 148
-96 25 -10 56 -23 70 -28 14 -6 41 -15 60 -19 44 -11 142 -34 200 -48 163 -38
250 -44 675 -44 231 0 497 5 590 12 94 6 235 16 315 20 80 5 170 14 200 20 30
6 91 18 135 27 451 89 567 125 661 209 21 19 41 32 46 29 12 -8 10 -148 -4
-236 -11 -74 -13 -78 -37 -78 -14 1 -37 7 -51 15 -14 8 -52 14 -85 15 -79 0
-114 -22 -170 -109 -62 -96 -80 -105 -191 -104 -97 0 -138 13 -204 63 -41 31
-91 50 -132 50 -38 0 -146 -54 -194 -97 -86 -76 -174 -103 -334 -103 l-125 0
-47 38 c-26 20 -68 55 -93 76 -46 39 -47 39 -133 40 -92 0 -102 -3 -183 -66
-69 -53 -156 -88 -257 -102 -26 -4 -96 20 -141 48 -22 14 -43 26 -46 26 -2 0
-28 22 -57 50 -29 27 -76 61 -104 75 -50 24 -57 25 -257 25 l-207 0 -63 30
c-35 16 -74 41 -88 56 -23 25 -24 31 -21 141 1 63 7 123 12 134 10 17 13 15
46 -21 20 -22 42 -40 49 -40z m2726 31 c13 -15 41 -34 62 -42 l37 -13 -33 -14
c-48 -21 -168 -52 -204 -52 -25 0 -31 4 -27 15 4 8 12 15 18 15 15 0 34 35 38
70 2 18 12 28 38 37 47 16 42 17 71 -16z m-414 -53 c5 -7 7 -24 3 -38 -5 -20
-1 -28 22 -42 16 -10 41 -18 56 -19 25 0 25 -1 6 -9 -19 -8 -185 -36 -276 -47
-61 -8 -48 20 19 41 65 21 85 40 78 74 -3 13 -1 30 6 38 14 17 73 18 86 2z
m-417 -36 c0 -16 -9 -38 -20 -50 -11 -12 -20 -25 -20 -31 0 -12 55 -31 88 -31
16 0 22 -4 17 -9 -13 -11 -355 -24 -355 -14 0 4 13 17 28 27 16 10 33 28 38
39 10 22 17 27 84 52 25 9 59 23 75 30 49 22 65 19 65 -13z m-2101 -88 c25 -5
35 -15 51 -50 10 -24 23 -44 28 -44 19 0 72 -64 72 -87 0 -51 -16 -63 -83 -63
-61 0 -127 -17 -197 -50 -54 -26 -100 -54 -100 -62 0 -5 -5 -8 -11 -8 -12 0
-127 -115 -146 -145 -7 -11 -30 -50 -53 -87 -22 -37 -44 -70 -49 -73 -5 -3
-24 14 -42 37 -18 24 -54 64 -79 89 -94 96 -112 121 -105 147 8 34 86 134 160
207 85 84 251 168 365 185 61 10 151 11 189 4z m3218 -114 c2 0 3 -210 3 -468
l0 -467 -59 -27 c-58 -27 -131 -52 -241 -84 -54 -16 -77 -25 -153 -58 -21 -9
-50 -16 -65 -16 -15 0 -43 -5 -62 -10 -31 -9 -89 -17 -370 -50 -174 -21 -440
-43 -505 -43 -75 0 -358 15 -620 32 -88 6 -191 18 -230 27 -170 38 -224 53
-325 89 -19 7 -64 21 -100 30 -36 9 -80 23 -98 31 -18 8 -45 14 -61 14 -35 0
-107 31 -142 62 -41 35 -46 69 -42 258 2 96 3 198 3 225 0 69 17 257 31 333
l11 63 32 -7 c17 -4 123 -8 236 -8 231 -1 264 -9 335 -81 20 -19 40 -35 44
-35 5 0 11 -6 14 -12 3 -7 22 -22 43 -33 22 -11 41 -23 44 -27 9 -12 90 -38
119 -38 65 0 241 52 241 72 0 4 6 8 13 8 8 0 24 12 38 26 43 46 91 64 173 64
71 0 77 -2 109 -32 129 -126 146 -132 317 -125 109 5 145 10 185 28 50 22 160
93 170 110 4 5 31 21 61 35 67 31 124 27 188 -14 90 -58 115 -65 226 -66 93
-1 109 2 141 22 40 24 82 74 93 110 4 12 12 22 17 22 5 0 9 6 9 14 0 24 96 47
145 34 16 -4 31 -8 32 -8z m-3090 -247 c-3 -49 -11 -116 -18 -150 -10 -59 -13
-63 -39 -63 -81 0 -235 -86 -328 -184 l-52 -55 -32 17 c-17 9 -42 27 -56 40
-14 12 -29 22 -33 22 -5 0 -9 15 -9 33 0 21 15 55 45 100 25 38 45 73 45 78 0
18 136 146 185 175 71 41 172 72 239 73 l59 1 -6 -87z m-29 -445 c1 -122 -1
-188 -8 -188 -15 0 -42 72 -37 99 8 41 -2 55 -24 35 -23 -21 -25 -78 -4 -114
20 -35 18 -45 -10 -58 -75 -34 -145 8 -145 87 0 33 18 90 35 111 18 23 25 49
15 55 -13 8 -50 -34 -72 -85 -20 -45 -21 -110 -3 -167 7 -22 5 -23 -41 -23
-35 1 -56 7 -74 21 -22 19 -25 29 -25 87 0 44 4 67 13 70 6 2 10 8 7 13 -16
24 90 141 155 172 8 4 31 17 50 28 45 27 108 48 140 46 l25 -2 3 -187z m-654
98 c46 -19 176 -118 176 -133 0 -15 -21 -20 -130 -28 -67 -5 -95 -12 -139 -35
-30 -17 -60 -30 -67 -30 -14 0 -28 102 -22 160 3 30 9 38 48 58 51 25 87 28
134 8z m176 -276 c0 -53 5 -91 15 -110 14 -27 14 -30 -4 -40 -11 -5 -34 -10
-51 -10 -38 0 -78 -20 -152 -76 -31 -24 -62 -44 -69 -44 -17 0 -38 31 -39 56
0 12 -6 39 -14 60 -7 22 -16 61 -20 87 -7 46 -6 50 29 83 59 56 107 72 213 73
l92 1 0 -80z m62 -221 c22 -30 34 -42 117 -116 l36 -32 -28 -1 c-33 0 -127
-38 -127 -51 0 -5 -5 -9 -10 -9 -12 0 -110 -100 -110 -112 0 -4 -7 -8 -15 -8
-8 0 -35 28 -60 63 -24 34 -50 69 -57 78 -7 8 -21 30 -31 48 l-19 32 40 40
c58 58 137 98 194 98 41 1 49 -3 70 -30z m243 -205 c30 -15 58 -31 61 -36 3
-5 -7 -21 -23 -36 -86 -79 -129 -199 -106 -299 6 -26 10 -50 7 -52 -11 -11
-80 41 -170 128 -135 130 -131 123 -103 163 67 98 156 158 236 158 25 0 65
-11 98 -26z m199 -85 c111 -29 156 -45 156 -56 0 -7 -4 -13 -8 -13 -5 0 -25
-35 -47 -77 l-38 -78 6 -102 6 -103 -33 0 c-18 0 -55 7 -82 15 -27 8 -58 15
-69 15 -26 1 -54 24 -93 79 -27 37 -32 53 -32 101 0 72 27 134 81 189 45 45
74 51 153 30z m325 -83 c31 -8 85 -20 119 -27 65 -12 83 -28 63 -53 -35 -42
-57 -212 -37 -289 10 -40 -8 -42 -142 -22 -122 19 -192 47 -213 87 -19 36 -7
177 21 233 42 87 76 100 189 71z m527 -57 c2 -4 -5 -40 -16 -80 -11 -41 -20
-86 -20 -101 0 -36 28 -118 48 -141 8 -9 12 -20 8 -25 -11 -10 -338 -4 -348 6
-5 5 -13 37 -20 72 -14 81 2 177 40 237 l27 42 138 -2 c76 -1 140 -4 143 -8z
m244 -9 c46 -1 53 -12 40 -61 -13 -47 -1 -124 27 -181 29 -58 23 -63 -101 -82
l-114 -18 -34 33 c-72 71 -84 147 -40 250 31 72 38 76 123 68 41 -4 85 -8 99
-9z m330 -22 c58 -6 111 -14 118 -17 9 -5 1 -24 -28 -69 -33 -50 -41 -73 -46
-124 -10 -113 -7 -108 -61 -92 -25 8 -72 14 -103 14 -65 0 -83 14 -116 89 -24
56 -26 197 -3 211 14 10 62 7 239 -12z m325 -66 c50 -20 145 -82 145 -93 0 -5
5 -9 11 -9 14 0 48 -41 49 -57 0 -9 -16 -13 -49 -13 -66 0 -172 -25 -216 -51
-20 -12 -51 -41 -69 -64 -35 -47 -42 -47 -99 4 -22 20 -27 33 -27 70 0 25 5
65 10 88 14 59 66 141 93 146 35 7 109 -3 152 -21z m202 -213 c53 -14 69 -42
80 -139 8 -81 -24 -188 -70 -234 -14 -14 -17 -14 -29 -1 -29 32 -38 45 -38 52
0 19 -100 70 -170 87 -41 11 -81 23 -87 29 -19 14 -16 68 5 98 42 62 80 88
157 105 69 15 99 16 152 3z m-218 -275 c39 -9 71 -20 71 -25 0 -5 5 -9 10 -9
13 0 50 -37 50 -50 0 -5 4 -10 9 -10 19 0 21 -40 4 -74 -20 -38 -121 -111
-175 -127 -79 -22 -195 1 -235 47 -30 35 -31 94 -2 141 20 33 83 73 114 73 8
0 15 3 15 8 0 7 49 41 61 42 4 0 39 -7 78 -16z"/>
<path d="M2890 6302 c-53 -4 -99 -31 -166 -97 -60 -60 -117 -156 -107 -183 3
-7 40 -30 82 -50 74 -35 165 -97 222 -153 17 -16 35 -26 44 -23 18 7 92 111
124 173 16 32 23 63 24 115 3 151 -78 230 -223 218z m109 -50 c77 -38 104
-159 59 -262 -12 -27 -25 -50 -30 -50 -4 0 -8 -5 -8 -11 0 -6 -15 -26 -33 -45
-30 -32 -35 -34 -46 -20 -11 13 -11 16 3 16 9 0 16 7 16 15 0 8 5 15 10 15 23
0 8 53 -24 85 -43 46 -74 46 -103 0 -25 -38 -34 -38 -103 4 -19 11 -45 25 -57
31 -26 11 -30 32 -8 50 8 7 15 19 15 26 0 7 26 40 58 71 85 86 177 113 251 75z"/>
<path d="M3925 5736 c-36 -13 -38 -15 -94 -63 -52 -45 -118 -131 -126 -166 -9
-34 17 -56 124 -108 47 -23 88 -46 89 -51 2 -4 8 -8 14 -8 5 0 16 -7 24 -15
24 -23 52 -18 98 18 48 38 106 98 106 111 0 5 7 17 15 26 22 24 30 109 16 153
-30 91 -163 143 -266 103z m193 -53 c26 -16 52 -69 52 -105 0 -24 -35 -102
-59 -131 -24 -29 -102 -87 -117 -87 -19 0 -18 29 1 36 10 4 15 20 15 45 0 33
-5 41 -30 54 -49 25 -99 15 -128 -27 -11 -15 -21 -18 -45 -12 -17 3 -39 12
-49 18 -19 11 -25 46 -9 46 5 0 12 8 15 18 8 25 105 126 136 143 58 30 172 31
218 2z"/>
<path d="M4696 6520 c-109 -25 -115 -33 -76 -101 43 -75 66 -128 74 -170 4
-24 13 -39 25 -42 24 -6 32 0 55 45 10 21 42 61 70 90 109 113 126 147 90 182
-21 22 -135 20 -238 -4z m214 -35 c0 -8 -21 -36 -47 -64 -27 -27 -65 -68 -86
-92 l-37 -43 -18 24 c-9 14 -29 50 -44 80 -22 45 -24 57 -13 68 31 33 245 56
245 27z"/>
<path d="M11966 4966 c-198 -74 -345 -330 -403 -701 -24 -156 -24 -493 1 -630
44 -244 140 -443 233 -482 44 -18 99 -8 118 21 9 13 21 82 30 162 28 253 68
403 157 583 38 78 67 120 117 172 36 38 71 69 77 69 16 0 22 -29 35 -163 16
-168 13 -174 -74 -217 -85 -42 -181 -133 -217 -205 -32 -66 -39 -188 -16 -267
38 -132 181 -174 306 -92 81 54 128 162 156 354 8 58 17 119 20 136 4 26 11
33 47 44 43 13 116 49 153 75 21 15 21 14 27 -52 14 -145 61 -233 126 -233 16
0 37 7 45 16 9 8 39 89 68 179 l52 164 49 21 c59 26 117 37 117 23 0 -6 -12
-66 -26 -134 -85 -406 4 -729 202 -729 86 0 158 68 235 225 27 55 67 151 88
213 l38 112 34 -57 c20 -33 52 -70 77 -88 38 -26 52 -30 110 -30 84 0 143 32
198 106 39 54 96 177 134 294 22 66 24 68 31 40 4 -16 17 -96 29 -176 l22
-147 -80 -118 c-272 -407 -330 -612 -211 -748 59 -67 122 -91 244 -91 87 0
107 3 156 26 76 36 130 87 166 156 76 146 79 308 13 646 -16 83 -29 151 -27
152 15 8 171 142 181 156 12 18 15 15 35 -37 30 -81 83 -147 151 -192 103 -69
208 -78 320 -26 73 34 194 158 241 247 l36 69 31 -95 c44 -135 99 -242 158
-304 45 -48 55 -54 84 -51 21 2 40 12 52 29 27 36 40 146 32 280 l-6 116 61
12 c33 7 87 20 118 31 32 10 59 18 60 16 2 -1 -4 -50 -13 -107 -25 -158 -23
-411 4 -512 37 -134 108 -238 193 -283 80 -42 191 -10 257 73 58 75 114 218
158 405 l17 77 38 -34 c63 -57 116 -79 189 -80 116 0 209 71 271 209 32 72 36
76 82 91 27 9 66 27 86 40 54 34 141 134 176 202 l30 58 6 -60 c4 -33 7 -85 8
-116 1 -44 6 -60 24 -77 27 -25 101 -40 112 -22 6 9 9 9 15 -1 7 -10 12 -10
23 -1 7 7 16 10 19 7 18 -18 27 55 39 330 16 343 18 710 6 795 -10 72 -40 111
-87 113 -33 2 -35 0 -52 -48 -18 -54 -23 -44 -9 18 10 42 10 42 -28 22 -22
-11 -32 -27 -44 -72 -36 -129 -42 -204 -41 -509 l1 -301 -41 1 c-40 1 -41 0
-76 -65 -19 -36 -46 -80 -59 -98 -23 -32 -96 -91 -112 -91 -5 0 -6 53 -3 118
10 182 -29 332 -112 431 -57 69 -174 131 -245 131 -88 0 -211 -81 -243 -161
-25 -61 -30 -145 -12 -209 13 -51 13 -67 -10 -220 -68 -459 -150 -756 -230
-831 -33 -31 -51 -18 -64 48 -18 84 -7 236 34 463 69 385 84 587 51 696 -33
112 -150 161 -219 92 -50 -50 -76 -132 -112 -355 -4 -27 -11 -34 -52 -47 -55
-18 -154 -36 -193 -36 -35 0 -35 2 -49 246 -10 180 -27 278 -56 322 -19 29
-44 39 -54 23 -5 -9 -9 -8 -14 4 -3 10 -15 15 -28 13 -25 -3 -41 -44 -72 -178
l-15 -65 5 79 c4 44 12 99 19 123 12 39 6 58 -10 33 -4 -6 -10 -8 -15 -5 -15
9 -70 -58 -89 -110 -30 -79 -42 -164 -41 -282 2 -87 -2 -121 -20 -173 -73
-217 -229 -388 -332 -363 -74 18 -119 117 -126 279 -9 219 48 445 133 524 36
33 45 17 45 -83 0 -75 1 -78 26 -88 15 -5 28 -8 29 -7 1 2 8 14 14 26 7 13 15
21 18 19 2 -3 -1 -15 -7 -27 -10 -18 -9 -22 2 -18 27 9 53 80 53 148 -1 80
-28 138 -80 170 -31 19 -46 22 -104 18 -188 -14 -327 -189 -376 -473 -21 -123
-66 -212 -149 -294 -36 -36 -68 -63 -70 -60 -9 8 -45 244 -60 387 -9 90 -20
152 -30 167 -18 27 -70 42 -90 25 -11 -8 -15 -8 -18 2 -4 10 -11 8 -31 -4 -18
-13 -69 -105 -176 -321 -82 -166 -159 -311 -170 -321 -21 -19 -21 -19 -21 15
0 19 14 136 31 259 16 124 33 279 36 346 5 104 4 124 -12 147 -9 15 -23 27
-31 27 -14 0 -34 -57 -34 -100 -1 -14 -16 -119 -35 -235 -25 -149 -33 -187
-30 -130 3 44 17 152 31 240 42 263 40 242 19 225 -11 -9 -16 -10 -11 -2 4 6
3 12 -2 12 -22 0 -96 -239 -118 -378 -5 -29 -10 -40 -17 -33 -17 17 18 196 59
304 21 53 35 100 31 103 -3 3 -20 -2 -37 -13 -67 -39 -128 -181 -161 -371 -41
-243 -189 -672 -280 -814 -17 -26 -35 -48 -39 -48 -15 0 -32 141 -26 204 4 33
18 125 32 204 38 223 31 289 -37 354 -52 49 -125 66 -223 49 -38 -6 -70 -10
-72 -8 -6 6 86 188 124 245 48 69 100 124 112 117 5 -3 11 -19 15 -35 6 -27
11 -32 31 -29 4 0 10 -5 15 -13 6 -10 11 -9 23 7 12 15 15 16 16 5 0 -13 1
-13 10 0 7 11 10 11 10 2 0 -7 5 -10 10 -7 16 10 12 108 -5 132 -34 49 -142
50 -233 4 -64 -33 -163 -155 -226 -279 -15 -30 -29 -52 -31 -50 -2 2 2 58 10
123 24 203 17 286 -24 291 -6 1 -12 2 -13 4 -10 7 -38 6 -38 -2 0 -5 -8 -7
-18 -3 -31 9 -70 -31 -86 -88 -19 -67 -33 -174 -42 -312 -5 -97 -9 -114 -33
-146 -35 -48 -80 -85 -132 -109 l-44 -19 -7 91 c-18 227 -101 338 -244 326
-139 -12 -289 -198 -378 -469 l-33 -101 -6 52 c-3 28 -4 109 0 180 l6 128 79
83 c183 193 338 441 354 565 8 67 -6 131 -38 177 -46 65 -206 105 -292 73z
m182 -97 c46 -49 34 -136 -39 -284 -48 -97 -135 -228 -212 -316 l-37 -44 6 80
c15 197 108 458 197 553 36 37 58 40 85 11z m4920 -498 c47 -25 94 -74 122
-130 46 -92 62 -254 39 -388 -10 -55 -14 -63 -33 -63 -59 0 -206 110 -192 145
2 7 17 75 32 150 27 135 27 138 8 152 -10 8 -26 12 -34 10 -9 -2 -22 2 -29 10
-11 12 -16 12 -32 -3 -11 -10 -19 -12 -19 -6 0 8 -8 9 -26 1 -15 -5 -29 -7
-32 -5 -13 14 13 83 43 113 27 27 41 33 74 33 23 0 58 -9 79 -19z m60 -692
c28 -8 41 -17 38 -26 -14 -36 -78 -123 -86 -118 -20 12 -90 174 -90 206 0 5
21 -4 48 -20 26 -16 66 -35 90 -42z m-4818 -110 c-19 -131 -45 -203 -92 -252
l-40 -42 -10 25 c-17 42 -4 169 21 220 22 43 119 145 129 136 2 -3 -1 -42 -8
-87z m2125 -319 c23 -117 31 -309 15 -385 -10 -47 -21 -68 -50 -97 -33 -33
-44 -38 -83 -38 -34 0 -53 6 -74 24 -27 23 -28 28 -27 108 0 61 7 101 24 148
34 96 160 344 169 334 5 -5 16 -47 26 -94z"/>
<path d="M5085 4880 c-49 -3 -100 -11 -112 -18 -27 -15 -31 -57 -7 -66 19 -7
17 -33 -12 -206 -14 -81 -18 -165 -18 -375 -1 -278 8 -393 45 -583 41 -211 91
-321 142 -308 9 2 17 0 17 -4 0 -7 25 -8 61 -1 4 0 10 67 14 149 16 358 55
521 171 709 49 79 144 173 175 173 44 0 79 -141 79 -322 l0 -107 -42 -12
c-113 -29 -247 -141 -302 -250 -126 -251 -30 -516 188 -519 22 0 60 10 84 21
110 54 211 284 237 541 l7 66 40 -14 c51 -18 96 -17 128 1 14 8 28 14 31 15 4
0 9 -26 13 -57 7 -65 40 -142 80 -190 91 -108 257 -91 352 38 39 54 96 177
134 294 22 66 24 68 31 40 4 -16 17 -96 29 -176 l22 -147 -80 -118 c-272 -407
-330 -612 -211 -748 59 -67 122 -91 244 -91 87 0 107 3 156 26 76 36 130 87
166 156 76 146 79 308 13 646 l-29 150 23 18 c13 10 42 34 66 54 23 19 45 35
48 35 4 0 15 -27 25 -61 34 -117 141 -187 271 -177 80 7 148 42 211 109 75 79
109 134 197 313 l79 161 -6 -120 c-10 -211 -8 -205 -74 -243 -89 -51 -261
-183 -346 -263 -88 -84 -168 -198 -190 -271 -22 -74 -19 -202 5 -282 65 -209
367 -337 566 -240 94 45 170 150 199 276 21 95 52 318 76 558 12 118 22 216
24 217 1 2 36 12 78 22 41 11 94 29 116 40 51 27 61 26 61 -2 0 -39 40 -170
68 -220 37 -69 129 -151 199 -177 81 -31 165 -32 223 -2 96 50 203 178 295
354 50 96 54 100 60 73 18 -81 59 -216 79 -261 13 -28 41 -70 62 -93 40 -45
109 -87 118 -72 4 5 14 7 24 5 12 -3 27 10 51 45 27 40 34 61 37 113 2 35 9
139 14 232 13 212 37 324 95 444 24 50 47 92 50 92 7 0 2 -66 -21 -255 -18
-152 -18 -224 1 -321 17 -92 33 -119 78 -133 39 -13 102 -8 123 10 34 28 45
69 185 669 47 205 85 323 133 418 33 66 66 107 66 83 0 -22 -53 -283 -105
-521 -98 -443 -120 -638 -96 -850 16 -134 27 -182 62 -250 83 -166 257 -198
373 -70 97 108 195 411 262 812 25 148 26 159 10 183 -19 28 -66 34 -85 11 -6
-8 -27 -99 -47 -202 -62 -336 -115 -524 -185 -655 -33 -61 -84 -117 -96 -105
-5 4 -8 69 -7 144 0 122 7 175 63 492 35 195 72 411 82 480 22 142 26 358 8
453 -31 172 -120 249 -246 212 -143 -42 -243 -234 -318 -608 -18 -93 -36 -171
-39 -174 -3 -4 -6 20 -6 53 0 77 -25 172 -52 202 -12 12 -38 27 -58 33 -108
33 -215 -76 -285 -290 -37 -110 -33 -117 -70 118 -30 193 -47 240 -99 265 -49
23 -67 18 -89 -24 -17 -32 -18 -32 -13 -7 9 40 0 48 -35 30 -54 -27 -63 -64
-66 -281 -3 -181 -4 -196 -29 -255 -112 -267 -302 -526 -378 -515 -14 2 -30
22 -51 63 -30 60 -30 61 -34 263 -1 111 0 214 3 228 4 15 49 70 99 123 179
186 248 331 203 420 -36 68 -154 90 -263 49 -45 -16 -75 -38 -134 -97 -101
-101 -156 -210 -204 -405 -19 -77 -42 -151 -52 -165 -22 -31 -114 -79 -166
-88 -45 -7 -43 -25 -21 240 22 247 25 659 5 704 -17 42 -74 76 -111 68 -16 -3
-31 -2 -34 4 -10 16 -60 -4 -73 -30 -7 -13 -22 -76 -35 -139 l-23 -115 -125
-6 c-98 -5 -143 -13 -209 -35 -225 -75 -373 -244 -435 -496 -13 -54 -33 -112
-45 -130 -23 -38 -138 -154 -145 -147 -9 9 -45 244 -60 387 -9 90 -20 152 -30
167 -18 27 -70 42 -90 25 -11 -8 -15 -8 -18 2 -4 10 -11 8 -31 -4 -18 -13 -69
-105 -176 -321 -82 -166 -159 -311 -170 -321 -21 -19 -21 -19 -21 15 0 19 14
136 31 259 16 124 33 279 36 346 5 104 4 124 -12 147 -9 15 -23 27 -31 27 -14
0 -34 -57 -34 -100 -1 -14 -16 -119 -35 -235 -25 -149 -33 -187 -30 -130 3 44
17 152 31 240 42 263 40 242 19 225 -11 -9 -16 -10 -11 -2 4 6 3 12 -2 12 -22
0 -68 -148 -125 -400 l-15 -65 -1 45 c-2 74 26 209 66 312 20 54 34 101 30
104 -3 3 -20 -2 -37 -13 -64 -37 -121 -165 -159 -353 -47 -236 -72 -269 -176
-226 l-35 15 0 110 c0 193 -36 318 -112 387 -56 50 -101 67 -183 68 -59 1 -77
-3 -117 -27 -42 -25 -107 -92 -161 -167 -17 -24 -17 -19 -10 140 5 91 7 202 7
246 l-1 82 36 6 c20 3 100 6 179 6 172 0 212 11 212 60 0 22 -6 33 -23 39 -65
25 -408 50 -562 41z m5276 -422 c-10 -81 -117 -674 -141 -783 -13 -57 -2 82
16 205 22 156 126 681 132 675 2 -2 -1 -45 -7 -97z m-1503 -6 c2 -21 -7 -52
-28 -89 -32 -61 -158 -218 -167 -209 -18 17 80 232 134 295 40 48 57 48 61 3z
m-1068 -71 c0 -12 -102 -246 -144 -329 -71 -141 -158 -270 -250 -370 -48 -53
-54 -45 -55 68 -1 241 103 466 264 568 77 49 185 86 185 63z m-2170 -715 c-15
-105 -54 -254 -81 -308 -23 -46 -63 -94 -91 -109 -40 -22 -73 98 -57 211 17
120 72 210 173 286 58 44 61 45 64 24 2 -13 -1 -60 -8 -104z m2173 -173 c-8
-111 -74 -578 -89 -622 -53 -165 -181 -188 -268 -48 -25 41 -30 61 -34 131 -4
76 -2 86 27 143 33 67 140 204 275 356 48 53 89 97 90 97 1 0 1 -26 -1 -57z
m-1048 -243 c23 -117 31 -309 15 -385 -10 -47 -21 -68 -50 -97 -33 -33 -44
-38 -83 -38 -34 0 -53 6 -74 24 -27 23 -28 28 -27 108 0 61 7 101 24 148 34
96 160 344 169 334 5 -5 16 -47 26 -94z"/>
<path d="M17713 3469 c-94 -27 -77 -147 25 -177 65 -20 98 -15 136 18 106 93
-6 204 -161 159z"/>
<path d="M5625 2295 c-17 -7 -37 -21 -47 -31 -31 -36 -68 -117 -68 -151 0 -26
-5 -35 -23 -42 -72 -28 -181 -121 -225 -192 -24 -39 -29 -98 -11 -131 9 -17 6
-25 -15 -47 -14 -15 -26 -32 -26 -38 0 -13 49 -122 111 -248 22 -44 59 -102
84 -129 41 -46 48 -50 112 -59 81 -12 137 -13 261 -2 87 8 96 10 125 40 40 40
48 51 69 98 43 92 69 158 89 226 12 40 11 46 -10 86 -20 39 -22 47 -10 78 24
67 -26 139 -195 281 -56 47 -58 50 -52 86 10 65 -30 128 -109 172 -26 14 -35
14 -60 3z m65 -42 c85 -58 91 -154 12 -184 -34 -13 -111 -2 -134 18 -22 20
-23 40 -2 88 16 40 38 66 69 83 26 15 26 15 55 -5z m212 -306 c43 -38 85 -81
92 -96 8 -15 22 -33 31 -41 14 -12 13 -16 -11 -42 -34 -35 -45 -35 -103 0 -25
15 -72 40 -105 57 -59 30 -136 114 -148 161 -6 24 14 38 82 59 39 12 27 20
162 -98z m-347 -5 c0 -111 12 -160 55 -223 25 -38 27 -46 15 -58 -12 -12 -23
-12 -76 4 -53 16 -64 24 -76 53 -24 57 -27 123 -9 188 26 92 48 134 71 134 19
0 20 -7 20 -98z m65 51 c32 -86 98 -154 203 -207 90 -46 100 -65 54 -107 -27
-25 -40 -29 -88 -29 -49 0 -63 5 -100 33 -63 48 -109 150 -109 243 0 89 20
122 40 67z m-170 1 c0 -9 -7 -41 -16 -72 -15 -50 -15 -147 -2 -214 4 -19 -42
-21 -84 -3 -41 17 -68 57 -68 103 0 37 50 112 108 162 52 44 62 48 62 24z
m-155 -353 c8 -14 120 -47 203 -60 40 -6 119 -11 176 -11 100 0 137 5 273 36
78 18 73 19 73 -13 0 -31 -24 -99 -64 -180 -14 -29 -26 -57 -26 -61 0 -5 -17
-27 -37 -49 l-38 -41 -117 -7 c-185 -12 -298 9 -322 58 -3 6 -15 26 -25 42
-11 17 -30 50 -42 75 -13 25 -26 47 -30 50 -4 3 -19 34 -32 70 -14 36 -28 73
-32 83 -5 13 -2 17 13 17 12 0 23 -4 27 -9z"/>
<path d="M4675 1557 c-33 -17 -62 -34 -65 -37 -3 -3 -38 -25 -77 -49 -40 -24
-73 -47 -73 -52 0 -5 -4 -9 -10 -9 -17 0 -110 -107 -110 -128 0 -5 -7 -15 -15
-22 -13 -11 -24 -57 -30 -133 -2 -18 -3 -35 -4 -39 -1 -4 -23 -35 -51 -69 -55
-68 -57 -77 -35 -139 8 -23 15 -51 15 -62 0 -11 25 -72 56 -135 51 -103 63
-120 121 -168 77 -63 99 -68 318 -69 141 -1 303 19 412 50 54 16 83 43 83 77
0 10 6 31 14 45 40 79 54 156 55 299 l1 102 -35 35 c-19 20 -35 39 -35 43 0 5
-11 20 -24 34 -32 35 -42 55 -55 118 -14 66 -58 129 -127 181 -29 22 -56 40
-60 40 -7 0 -83 58 -99 76 -21 24 -61 44 -85 43 -14 0 -52 -15 -85 -32z m178
-133 c61 -75 93 -168 82 -240 -11 -78 -95 -144 -182 -144 -27 0 -30 27 -9 69
8 15 22 63 31 107 15 73 15 87 1 155 -9 41 -16 89 -16 108 0 32 1 33 23 19 12
-8 43 -41 70 -74z m-123 49 c0 -15 5 -64 12 -109 20 -140 -17 -271 -92 -321
-61 -42 -130 -20 -130 40 0 73 132 367 173 385 4 2 7 10 7 18 0 8 7 14 15 14
10 0 15 -10 15 -27z m-87 -11 c-4 -9 -10 -19 -13 -22 -8 -6 -19 -27 -71 -132
-41 -84 -59 -131 -66 -171 -6 -33 -57 -87 -82 -87 -10 0 -30 10 -44 23 -23 20
-27 30 -27 80 0 76 26 125 109 207 60 60 176 134 193 123 4 -2 4 -11 1 -21z
m322 -45 c136 -93 175 -229 80 -283 -22 -13 -50 -23 -62 -24 -22 0 -23 2 -16
74 6 74 -11 154 -42 196 -6 8 -19 28 -29 43 l-17 28 28 -7 c15 -4 42 -16 58
-27z m192 -299 c27 -30 37 -73 20 -86 -16 -14 -175 -63 -279 -87 -108 -25
-357 -27 -448 -3 -36 9 -77 20 -93 23 -15 3 -36 14 -47 25 -17 17 -18 23 -8
40 15 24 24 25 46 4 12 -13 29 -15 79 -11 49 4 70 1 98 -14 40 -22 106 -25
138 -7 12 7 56 13 97 13 54 0 82 5 100 18 13 9 35 17 48 17 28 0 171 57 192
76 20 19 33 17 57 -8z m68 -383 c-18 -64 -49 -137 -72 -170 -13 -18 -14 -16
-8 20 4 22 13 72 20 110 23 117 45 250 45 273 0 11 6 22 13 25 20 7 22 -185 2
-258z m-56 232 c8 -10 7 -32 -4 -83 -8 -38 -15 -87 -15 -108 0 -22 -7 -62 -15
-90 -7 -28 -19 -72 -26 -98 -6 -26 -17 -53 -25 -59 -19 -15 -56 -1 -50 19 3 9
9 51 15 92 43 318 42 316 70 328 36 14 37 14 50 -1z m-854 -33 c9 -14 20 -47
25 -72 14 -83 38 -186 54 -231 19 -53 20 -61 3 -61 -26 0 -103 124 -129 210
-36 116 -41 149 -28 165 19 23 56 18 75 -11z m735 -11 c0 -26 -18 -170 -37
-300 -16 -108 -17 -111 -44 -115 -38 -6 -57 4 -53 27 1 11 8 58 14 105 41 325
29 289 108 299 6 0 12 -7 12 -16z m-616 -15 c50 -15 56 -22 56 -73 0 -22 6
-65 13 -95 7 -30 14 -99 16 -153 2 -91 1 -99 -15 -95 -18 3 -24 13 -57 88 -23
54 -27 67 -53 180 -26 115 -30 160 -13 160 7 0 30 -5 53 -12z m480 -133 c-7
-60 -18 -128 -23 -150 -6 -22 -11 -59 -11 -81 0 -45 -18 -68 -47 -62 -34 6
-40 45 -31 203 13 223 11 213 61 217 64 5 66 -1 51 -127z m-320 109 c9 -3 16
-14 16 -23 0 -9 5 -22 10 -27 19 -19 46 -231 42 -321 -2 -31 -4 -33 -40 -33
-51 0 -59 17 -72 145 -6 59 -15 130 -20 157 -6 28 -10 64 -10 79 0 25 4 29 29
29 16 0 36 -3 45 -6z m170 0 c20 -8 22 -136 4 -296 -12 -107 -12 -108 -39
-108 -26 0 -26 1 -33 88 -7 92 -21 189 -37 260 -5 24 -7 48 -4 53 7 10 85 12
109 3z"/>
</g>
</svg>
