<?xml version="1.0" encoding="utf-8"?>
<svg id="master-artboard" viewBox="0 0 400 400" version="1.1" xmlns="http://www.w3.org/2000/svg" x="0px" y="0px" style="enable-background:new 0 0 1400 980;" width="400px" height="400px"><rect id="ee-background" x="0" y="0" width="400" height="400" style="fill: white; fill-opacity: 0; pointer-events: none;"/>

<path class="st0" d="M387.5,307.7C387.5,307.7,387.5,307.7,387.5,307.7C387.5,307.7,387.5,307.7,387.5,307.7z" style="fill: rgb(255, 230, 166);" transform="matrix(1, 0, 0, 1, -30.228317260742188, -57.93760681152344)"/>






<path class="st0" d="M377.6,310.1C377.6,310.1,377.6,310.1,377.6,310.1C377.6,310.1,377.6,310.1,377.6,310.1z" style="fill: rgb(255, 230, 166);" transform="matrix(1, 0, 0, 1, -30.228317260742188, -57.93760681152344)"/>
<path class="st0" d="M367.2,312C367.2,312,367.2,312,367.2,312C367.2,312,367.2,312,367.2,312z" style="fill: rgb(255, 230, 166);" transform="matrix(1, 0, 0, 1, -30.228317260742188, -57.93760681152344)"/>
<path class="st0" d="M397,305C397,305,397,305,397,305C397,305,397,305,397,305z" style="fill: rgb(255, 230, 166);" transform="matrix(1, 0, 0, 1, -30.228317260742188, -57.93760681152344)"/>








































<g transform="matrix(2.2768466472625732, 0, 0, 2.2768466472625732, -65.24008178710938, -572.0616302490234)">
	<path d="M 190 269.70001220703125 L 190 343.70001220703125 L 118.0999984741211 409.70001220703125 L 113.4000015258789 324.5 Z" class="st2" style="fill: rgb(218, 164, 104);"/>
	<path class="st0" d="M47,357.4v27.7c17.1,10.7,42,19.2,71,24.6v-31.2C89,373.9,64.1,366.6,47,357.4z" style="fill: rgb(255, 230, 166);"/>
	<path class="st0" d="M118,343.6C86,338,63.9,328.8,47,318v26.5c17.1,9.2,42,16.5,71,21.1V343.6z" style="fill: rgb(255, 230, 166);"/>
	<path class="st3" d="M47,347.7v12.9c17.1,9.2,42,16.5,71,21.1v-12.9C89,364.2,64.1,356.9,47,347.7z" style="opacity: 0.1;"/>
	<path class="st1" d="M47,344.5v12.9c17.1,9.2,42,16.5,71,21.1v-12.9C89,361,64.1,353.7,47,344.5z" style="fill: rgb(124, 54, 3);"/>
	<path d="M 117.80000305175781 343.6000061035156 L 189.6999969482422 281.70001220703125 L 189.3000030517578 269.70001220703125 L 115 324.5 Z" class="st6" style="fill: rgb(122, 55, 0);"/>
	<path class="st4" d="M118,330.1c-29-5.4-53.9-14.1-71-24.7V318c16.9,10.8,39,20,71,25.6V330.1z" style="fill: rgb(224, 115, 25);"/>
	<path class="st5" d="M118,330.1l71.7-61.1h-0.4L47,305.1v0.3C64.1,316.1,89,324.7,118,330.1L118,330.1z" style="fill: rgb(181, 83, 22);"/>
	<path d="M 118 368.79998779296875 L 190 307.5 L 190 321.20001220703125 L 118 381.70001220703125 Z" class="st3" style="opacity: 0.1;"/>
	<path d="M 118 365.6000061035156 L 190 304.29998779296875 L 190 318 L 118 378.5 Z" class="st6" style="fill: rgb(122, 55, 0);"/>
</g>





<path class="st7" d="M47.8,315.1c1.1,2.3,4.2,2.3,6.7,3.1c2.7,0.8,4.8,2.8,7.4,4c4.2,1.9,9.1,1.4,13.5,2.8c4.4,1.4,8.4,4.6,13,4.8" style="opacity: 0.3; fill: none; stroke: rgb(255, 255, 255); stroke-width: 2; stroke-linecap: round; stroke-miterlimit: 10;" transform="matrix(2.3272485733032227, 0, 0, 2.3272485733032227, -67.60897827148438, -592.7112884521484)"/>

<path class="st7" d="M95.1,331.7c4.9-0.1,9.5,3.7,14.3,2.6" style="opacity: 0.3; fill: none; stroke: rgb(255, 255, 255); stroke-width: 2; stroke-linecap: round; stroke-miterlimit: 10;" transform="matrix(2.3272485733032227, 0, 0, 2.3272485733032227, -67.60897827148438, -592.7112884521484)"/>












































































</svg>