<?xml version="1.0" encoding="utf-8"?>
<svg id="master-artboard" viewBox="0 0 400 400" version="1.1" xmlns="http://www.w3.org/2000/svg" x="0px" y="0px" style="enable-background:new 0 0 1400 980;" width="400px" height="400px"><rect id="ee-background" x="0" y="0" width="400" height="400" style="fill: white; fill-opacity: 0; pointer-events: none;"/>
















































































































<g transform="matrix(-1, 0, 0, 1, 443.1973876953125, -498.76722717285156)">
	<g>
		<g>
			<path class="st2" d="M73.9,534.7c-6.5,3.2-0.2,7.6-0.2,14.9c0,7.3,0.2,7.3,0.2,14.6c0,7.3,0.5,7.3,0.5,14.6&#10;&#9;&#9;&#9;&#9;c0,7.3-0.8,7.3-0.8,14.6c0,7.3,0.2,7.3,0.2,14.6c0,7.3,0.1,7.3,0.1,14.6c0,7.3,0.1,7.3,0.1,14.6c0,7.3,0.5,7.3,0.5,14.6&#10;&#9;&#9;&#9;&#9;c0,7.3-0.3,7.3-0.3,14.6c0,7.3-0.7,7.3-0.7,14.6c0,7.3,1,7.3,1,14.6c0,7.3-3.3,7.8-0.3,14.5c2.9,6.6,5.5,4.5,10.8,9.4&#10;&#9;&#9;&#9;&#9;c5.3,4.9,4.8,5.4,10.1,10.2c5.3,4.9,5,5.2,10.3,10.1c5.3,4.9,5.4,4.7,10.7,9.6c5.3,4.9,5.8,4.3,11.1,9.2&#10;&#9;&#9;&#9;&#9;c5.3,4.9,5.2,4.9,10.5,9.8c5.3,4.9,4.7,5.5,10,10.4c5.3,4.9,5.3,4.8,10.6,9.7c5.3,4.9,5.3,4.8,10.6,9.7c5.3,4.9,5.9,4.2,11.2,9.1&#10;&#9;&#9;&#9;&#9;c5.3,4.9,4.6,5.6,9.9,10.5c5.3,4.9,5.9,4.2,11.2,9.1c5.3,4.9,4.8,5.4,10.1,10.3c5.3,4.9,5.3,4.9,10.6,9.7&#10;&#9;&#9;&#9;&#9;c5.3,4.9,5.9,4.2,11.2,9.1c5.3,4.9,3.3,12.6,10,9.9c6.7-2.7,0.3-6.8,0.7-14c0.4-7.2,0.3-7.2,0.7-14.4c0.4-7.2,0.6-7.2,1-14.4&#10;&#9;&#9;&#9;&#9;c0.4-7.2,1.1-7.2,1.5-14.4c0.4-7.2-0.2-7.2,0.2-14.4c0.4-7.2-0.1-7.2,0.3-14.4c0.4-7.2,0.9-7.2,1.3-14.4&#10;&#9;&#9;&#9;&#9;c0.4-7.2,0.8-7.2,1.2-14.4c0.4-7.2,0.3-7.2,0.7-14.4c0.4-7.2,0.8-7.2,1.2-14.4c0.4-7.2-0.5-7.3-0.1-14.5&#10;&#9;&#9;&#9;&#9;c0.4-7.2,0.2-7.2,0.6-14.4c0.4-7.2,1-7.2,1.4-14.4s4.4-8.1,1.2-14.6c-3.2-6.7-6.3-4.3-12.3-8.6c-6-4.3-5.9-4.4-12-8.8&#10;&#9;&#9;&#9;&#9;c-6-4.3-6.5-3.7-12.5-8c-6-4.3-5.3-5.3-11.4-9.6c-6-4.3-6.6-3.5-12.6-7.9c-6-4.3-6.1-4.2-12.1-8.5c-6-4.3-5.8-4.6-11.9-8.9&#10;&#9;&#9;&#9;&#9;c-6-4.3-6.2-4.1-12.2-8.4c-6-4.3-5.5-5-11.6-9.4c-6-4.3-5.9-4.4-12-8.8c-6-4.3-6-4.3-12.1-8.7c-6-4.3-6.2-4-12.3-8.4&#10;&#9;&#9;&#9;&#9;c-6-4.3-5.9-4.5-11.9-8.9c-6-4.3-7.8-2.4-12.6-8C80.5,537.4,80.5,531.5,73.9,534.7z" style="fill: rgb(218, 164, 104);"/>
		</g>
		<g>
			<path class="st0" d="M410.9,742.6c2.4,6.1,0.1,6.5,0.1,13.1c0,6.6-0.1,6.6-0.1,13.1c0,6.6,0.1,6.6,0.1,13.1&#10;&#9;&#9;&#9;&#9;c0,6.6-0.2,6.6-0.2,13.1s2.1,6.8,0.4,13.2c-4.1,2.5-8.8,4.7-13.3,7.1c-4.3,2.3-8.5,4.9-13.1,7.1c-4.4,2.1-8.8,4.4-13.4,6.4&#10;&#9;&#9;&#9;&#9;c-4.5,2-9.1,3.8-13.8,5.7c-4.5,1.8-9.1,3.7-13.9,5.4c-4.6,1.7-9.4,3-14.2,4.5c-4.6,1.5-9.4,3-14.2,4.4c-4.7,1.4-9.4,3.1-14.2,4.4&#10;&#9;&#9;&#9;&#9;c-4.7,1.3-9.6,2.3-14.5,3.5c-4.8,1.2-9.6,2.4-14.5,3.5c-4.8,1.1-9.7,1.8-14.6,2.8c-4.8,1-9.7,2.2-14.6,3.1&#10;&#9;&#9;&#9;&#9;c-2.5-7,0.2-7.4,0.2-14.8c0-7.4,0-7.4,0-14.8c0-7.4-0.1-7.4-0.1-14.8c0-7.4-0.2-7.4-0.2-14.8c0-7.4-1.8-7.6,0.4-14.7&#10;&#9;&#9;&#9;&#9;c4.9-0.8,9.5-1.5,14.2-2.3c4.9-0.9,9.7-1.8,14.4-2.7c4.9-0.9,9.6-2,14.4-3c4.8-1,9.6-2.3,14.3-3.4c4.8-1.1,9.6-2.2,14.3-3.4&#10;&#9;&#9;&#9;&#9;c4.8-1.2,9.6-2.2,14.3-3.5c4.8-1.3,9.3-3.2,13.9-4.7c4.8-1.5,9.5-2.8,14-4.4c4.7-1.6,9.3-3.4,13.7-5.1c4.7-1.8,9.3-3.3,13.7-5.1&#10;&#9;&#9;&#9;&#9;c4.6-1.9,9.2-3.7,13.5-5.7C402.6,747.2,406.7,744.8,410.9,742.6z" style="fill: rgb(255, 230, 166);"/>
		</g>
		<g>
			<path class="st0" d="M243,709.9c5-0.9,10-1.5,14.8-2.5c5-1,9.8-2.4,14.6-3.5c5-1.1,9.8-2.5,14.5-3.7c4.9-1.2,9.8-2.2,14.6-3.5&#10;&#9;&#9;&#9;&#9;c4.9-1.4,9.7-2.8,14.4-4.3c4.9-1.5,9.6-3.2,14.2-4.8c4.8-1.7,9.6-3.2,14.1-4.9c4.8-1.8,9.3-4,13.8-5.9c4.7-2,9.5-3.6,13.9-5.7&#10;&#9;&#9;&#9;&#9;c4.6-2.2,9.1-4.4,13.4-6.7c4.5-2.4,8.6-5.2,12.9-7.7c4.4-2.5,8.6-4.8,12.7-7.4c2.4,7.5,0,7.8,0,15.6c0,7.9,0.1,7.9,0.1,15.7&#10;&#9;&#9;&#9;&#9;c0,7.9,0.5,7.9,0.5,15.7c0,7.9,1.7,8.1-0.1,15.7c-4.2,2.2-8.8,4.3-13.3,6.4c-4.3,2-8.7,4.1-13.3,6.1c-4.4,1.8-9,3.6-13.7,5.4&#10;&#9;&#9;&#9;&#9;c-4.5,1.7-9.1,3.4-13.8,5c-4.5,1.5-9.3,2.8-14,4.3c-4.6,1.4-9.2,3.2-14,4.5c-4.6,1.3-9.5,2-14.3,3.3c-4.7,1.2-9.3,2.7-14.2,3.8&#10;&#9;&#9;&#9;&#9;c-4.7,1.1-9.4,2.4-14.3,3.4c-4.7,1-9.5,1.9-14.4,2.8c-4.7,0.9-9.5,1.9-14.4,2.8c-4.8,0.8-9.5,1.4-14.4,2.1c-2.4-6.1,0-6.5,0-13&#10;&#9;&#9;&#9;&#9;c0-6.5-0.3-6.5-0.3-13c0-6.5,1-6.6,0.3-13C242.3,716.4,240.8,716.1,243,709.9z" style="fill: rgb(255, 230, 166);"/>
		</g>
		<g class="st3" style="opacity: 0.1;">
			<path d="M410.8,719.8c2.3,7.3,0.4,7.6,0.4,15.2s1.5,7.8-0.3,15.2c-4.2,2.2-8.4,4.6-13,6.7c-4.3,2-8.7,4.2-13.4,6.1&#10;&#9;&#9;&#9;&#9;c-4.4,1.8-9.2,3.1-13.8,4.9c-4.5,1.7-9,3.5-13.7,5.1c-4.5,1.5-9.1,3.3-13.9,4.8c-4.6,1.4-9.4,2.5-14.2,3.8&#10;&#9;&#9;&#9;&#9;c-4.6,1.3-9.4,2.5-14.2,3.7c-4.7,1.2-9.4,2.6-14.2,3.7c-4.7,1.1-9.4,2.4-14.3,3.4c-4.7,1-9.5,2.2-14.3,3.1&#10;&#9;&#9;&#9;&#9;c-4.7,0.9-9.7,1.3-14.5,2.2c-4.8,0.8-9.6,1.8-14.5,2.6c-2.4-7.2,0.3-7.6,0.3-15.3s-2.6-8-0.4-15.3c4.9-0.8,9.8-1.8,14.5-2.7&#10;&#9;&#9;&#9;&#9;c4.9-0.9,9.7-1.4,14.5-2.3c4.9-0.9,9.7-1.9,14.4-2.9c4.8-1,9.6-2.2,14.3-3.3c4.8-1.1,9.6-2.1,14.3-3.3c4.8-1.2,9.4-2.8,14.1-4.1&#10;&#9;&#9;&#9;&#9;c4.8-1.3,9.6-2.3,14.2-3.7c4.8-1.5,9.4-3,13.9-4.6c4.7-1.6,9.1-3.8,13.6-5.5c4.7-1.8,9.4-3,13.9-4.8c4.6-1.9,9.1-3.9,13.4-5.9&#10;&#9;&#9;&#9;&#9;C402.6,724.4,406.6,722,410.8,719.8z"/>
		</g>
		<g>
			<path class="st1" d="M410.7,712.2c2.3,7.3,0.3,7.5,0.3,15.1s1.8,7.8,0,15.2c-4.2,2.2-8.7,4.1-13.3,6.2c-4.3,2-8.7,4.1-13.4,6&#10;&#9;&#9;&#9;&#9;c-4.4,1.8-9,3.6-13.6,5.4c-4.5,1.7-9,3.6-13.7,5.2c-4.5,1.5-9.1,3.2-13.9,4.7c-4.6,1.4-9.4,2.5-14.2,3.8&#10;&#9;&#9;&#9;&#9;c-4.6,1.3-9.3,2.9-14.1,4.1c-4.7,1.2-9.4,2.3-14.3,3.5c-4.7,1.1-9.5,2-14.4,3c-4.7,1-9.6,1.7-14.4,2.7c-4.7,0.9-9.5,2.1-14.4,3&#10;&#9;&#9;&#9;&#9;c-4.8,0.8-9.4,1.6-14.3,2.4c-2.4-7.2-0.4-7.6-0.4-15.2s-1.9-7.9,0.3-15.2c4.9-0.8,9.6-1.7,14.4-2.6c4.9-0.9,9.6-1.9,14.4-2.8&#10;&#9;&#9;&#9;&#9;c4.9-0.9,9.8-1.3,14.5-2.3c4.8-1,9.6-2.3,14.3-3.4c4.8-1.1,9.5-2.6,14.2-3.8c4.8-1.2,9.6-2.2,14.3-3.5c4.8-1.3,9.5-2.6,14.1-4&#10;&#9;&#9;&#9;&#9;c4.8-1.5,9.3-3.2,13.9-4.7c4.7-1.6,9.2-3.5,13.7-5.2c4.7-1.8,9.1-3.7,13.6-5.6c4.6-1.9,9.3-3.4,13.6-5.5&#10;&#9;&#9;&#9;&#9;C402.5,716.7,406.5,714.4,410.7,712.2z" style="fill: rgb(124, 54, 3);"/>
		</g>
		<g>
			<path class="st6" d="M243.3,710.1c-6.4,2.9-5.4-4.7-10.8-9.2c-5.3-4.6-5.5-4.4-10.8-9c-5.3-4.6-4.9-5.1-10.2-9.7&#10;&#9;&#9;&#9;&#9;c-5.3-4.6-5.8-4.1-11.1-8.6c-5.3-4.6-5.1-4.8-10.4-9.4c-5.3-4.6-5.2-4.7-10.5-9.3c-5.3-4.6-5.5-4.3-10.9-8.9&#10;&#9;&#9;&#9;&#9;c-5.3-4.6-5.4-4.4-10.8-9c-5.3-4.6-5.1-4.9-10.4-9.4c-5.3-4.6-5.4-4.5-10.7-9c-5.3-4.6-5.4-4.5-10.7-9c-5.3-4.6-5.3-4.6-10.6-9.2&#10;&#9;&#9;&#9;&#9;c-5.3-4.6-5.1-4.8-10.4-9.4c-5.3-4.6-5.5-4.3-10.9-8.9c-5.3-4.6-5-5-10.3-9.6s-8.2-2.4-11-8.8c-2.8-6.6,0.3-7.2,0.5-14.3&#10;&#9;&#9;&#9;&#9;c0.3-7.1-5.7-11,0.8-14c6.6-3,5.5,4.3,11.4,8.6c5.9,4.3,6.1,4,11.9,8.3c5.9,4.3,5.8,4.3,11.7,8.7c5.9,4.3,5.6,4.6,11.5,9&#10;&#9;&#9;&#9;&#9;c5.9,4.3,5.9,4.2,11.8,8.6c5.9,4.3,5.8,4.4,11.7,8.7c5.9,4.3,6,4.1,11.9,8.4c5.9,4.3,6,4.2,11.8,8.5c5.9,4.3,5.7,4.6,11.5,8.9&#10;&#9;&#9;&#9;&#9;c5.9,4.3,6.1,4,11.9,8.4c5.9,4.3,5.8,4.3,11.7,8.7c5.9,4.3,5.7,4.5,11.6,8.8c5.9,4.3,5.7,4.5,11.6,8.9c5.9,4.3,6.1,4.1,11.9,8.4&#10;&#9;&#9;&#9;&#9;c5.9,4.3,8.8,2,11.6,8.7c2.8,7.1-0.7,7.5-1.8,15c-1.1,7.5-3.3,7.5-2.6,15C246.2,703.3,250.3,706.9,243.3,710.1z" style="fill: rgb(122, 55, 0);"/>
		</g>
		<g>
			<path class="st4" d="M242.9,678.1c4.9-0.9,9.8-2,14.7-3c4.9-1,9.8-2.1,14.6-3.2c4.9-1.1,9.8-1.9,14.6-3.1&#10;&#9;&#9;&#9;&#9;c4.9-1.2,9.7-2.5,14.4-3.8c4.9-1.3,9.5-3.1,14.2-4.5c4.8-1.5,9.7-2.6,14.3-4.1c4.8-1.6,9.4-3.6,14-5.2c4.7-1.7,9.5-3.3,14-5.1&#10;&#9;&#9;&#9;&#9;c4.7-1.9,9.3-3.8,13.7-5.8c4.6-2,9.1-4.3,13.4-6.4c4.6-2.2,9.1-4.3,13.4-6.6c4.5-2.4,8.6-5,12.7-7.6c2.4,7,0.4,7.4,0.4,14.8&#10;&#9;&#9;&#9;&#9;c0,7.4,1.3,7.6-0.4,14.8c-4.1,2.6-8.1,5.4-12.6,8c-4.2,2.4-8.6,4.8-13.2,7.2c-4.3,2.3-8.8,4.4-13.5,6.6&#10;&#9;&#9;&#9;&#9;c-4.4,2.1-8.9,4.3-13.6,6.3c-4.5,1.9-9.4,3.2-14.1,5c-4.6,1.8-9,4.1-13.9,5.7c-4.6,1.6-9.5,2.9-14.3,4.4&#10;&#9;&#9;&#9;&#9;c-4.7,1.5-9.5,2.7-14.4,4.1c-4.7,1.3-9.5,2.9-14.4,4.1c-4.8,1.2-9.6,2.5-14.5,3.6c-4.8,1.1-9.8,1.8-14.7,2.8&#10;&#9;&#9;&#9;&#9;c-4.8,1-9.8,2-14.8,2.9c-2.5-7.6,0.6-8-0.2-15.9C242,686,240.7,685.7,242.9,678.1z" style="fill: rgb(224, 115, 25);"/>
		</g>
		<g>
			<path class="st5" d="M243.1,677.8c-5.6-4.8-5.8-4.6-11.5-9.4c-5.7-4.8-5.2-5.3-10.9-10.1c-5.7-4.8-6.2-4.2-11.8-8.9&#10;&#9;&#9;&#9;&#9;c-5.7-4.8-5.4-5.1-11-9.9c-5.7-4.8-5.8-4.6-11.5-9.4c-5.7-4.8-6-4.3-11.7-9.1c-5.7-4.8-5.7-4.7-11.4-9.5&#10;&#9;&#9;&#9;&#9;c-5.7-4.8-5.1-5.4-10.8-10.1c-5.7-4.8-5.9-4.5-11.6-9.2c-5.7-4.8-5.8-4.6-11.4-9.4c-5.7-4.8-5.4-5.1-11.1-9.8&#10;&#9;&#9;&#9;&#9;c-5.7-4.8-5.4-5.1-11-9.9c-5.7-4.8-5.9-4.5-11.6-9.2c-5.7-4.8-5.4-5.1-11-9.9c-5.7-4.8-6.6-3.7-12-8.7c-0.4-0.4,0.9-0.5,1.4-0.4&#10;&#9;&#9;&#9;&#9;c7,1.6,7.1,1.6,14.1,3.3c7,1.7,6.9,2.4,13.9,4.1c7,1.7,7.1,1.4,14.1,3.1c7,1.7,7.2,1.2,14.2,3c7,1.7,6.8,2.4,13.9,4.2&#10;&#9;&#9;&#9;&#9;c7,1.7,6.9,2.1,13.9,3.9c7,1.7,7.3,0.7,14.3,2.4c7,1.7,6.9,2.3,13.9,4c7,1.7,7,1.8,14,3.6c7,1.7,7,1.9,14,3.6&#10;&#9;&#9;&#9;&#9;c7,1.7,7.1,1.4,14.1,3.1c7,1.7,7.1,1.4,14.1,3.2c7,1.7,7,1.8,14,3.6c7,1.7,6.9,2.2,13.9,3.9c7,1.7,7.1,1.5,14.1,3.3&#10;&#9;&#9;&#9;&#9;c7,1.7,7.1,1.6,14.1,3.3c7,1.7,7,1.7,14,3.5c7,1.7,6.8,2.5,13.9,4.2c7,1.7,7,1.8,14,3.5c7,1.7,7.2,0.9,14.2,2.7&#10;&#9;&#9;&#9;&#9;c7,1.7,6.8,2.5,13.9,4.2c7,1.7,7.2,1,14.2,2.8c7,1.7,6.9,2.2,13.9,3.9s7.1,1.4,14.1,3.5c0.4,0.1,0.5,0.6,0.2,0.9&#10;&#9;&#9;&#9;&#9;c-4.1,2.5-8.7,4.6-13.2,7c-4.3,2.3-8.6,4.7-13.2,6.9c-4.4,2.1-8.5,5-13.2,7c-4.5,2-9.4,3.1-14.1,5c-4.5,1.8-8.9,4.2-13.7,6&#10;&#9;&#9;&#9;&#9;c-4.6,1.7-9.3,3.2-14.1,4.8c-4.6,1.5-9.4,2.9-14.3,4.3c-4.7,1.4-9.3,3.2-14.2,4.6c-4.7,1.3-9.9,1.3-14.7,2.6&#10;&#9;&#9;&#9;&#9;c-4.8,1.2-9.3,3.6-14.2,4.7c-4.8,1.1-9.8,1.6-14.7,2.6c-4.8,1-9.8,1.5-14.7,2.5C242.8,677.8,243.2,677.9,243.1,677.8z" style="fill: rgb(181, 83, 22);"/>
		</g>
		<g class="st3" style="opacity: 0.1;">
			<path d="M242.7,769.9c-3.1-6.8-5.4-4.9-11-9.7c-5.6-4.8-5.5-5-11.1-9.8c-5.6-4.8-5.6-4.9-11.2-9.8c-5.6-4.8-5.6-4.8-11.3-9.7&#10;&#9;&#9;&#9;&#9;c-5.6-4.8-5.6-4.9-11.2-9.7c-5.6-4.8-6-4.4-11.7-9.2c-5.6-4.8-5.6-4.8-11.3-9.7c-5.6-4.8-5.6-4.9-11.3-9.7&#10;&#9;&#9;&#9;&#9;c-5.6-4.8-5.7-4.8-11.3-9.6c-5.6-4.8-5.6-4.9-11.2-9.7c-5.6-4.8-5.3-5.2-11-10c-5.6-4.8-5.8-4.7-11.4-9.5&#10;&#9;&#9;&#9;&#9;c-5.6-4.8-5.5-5-11.2-9.8c-5.6-4.8-5.5-5-11.1-9.9s-5.1-13.3-11.6-9.6c-7,4,0,8.2,0,16.3c0,8.1-3.1,8.7,0.2,16.1&#10;&#9;&#9;&#9;&#9;c3,6.8,5.5,4.9,11.1,9.7c5.6,4.8,5.7,4.7,11.3,9.5c5.6,4.8,5.4,5,11,9.8c5.6,4.8,5.9,4.5,11.5,9.2c5.6,4.8,5.5,5,11.1,9.7&#10;&#9;&#9;&#9;&#9;c5.6,4.8,5.7,4.7,11.3,9.5c5.6,4.8,5.8,4.6,11.5,9.3c5.6,4.8,5.7,4.7,11.3,9.5c5.6,4.8,5.4,5.1,11,9.9c5.6,4.8,5.8,4.6,11.4,9.4&#10;&#9;&#9;&#9;&#9;c5.6,4.8,5.7,4.7,11.3,9.5c5.6,4.8,5.5,4.9,11.1,9.7c5.6,4.8,5.5,5,11.1,9.7c5.6,4.8,5.8,4.6,11.4,9.4c5.6,4.8,4.9,13.1,11.5,9.8&#10;&#9;&#9;&#9;&#9;c6.8-3.4-1.3-8-0.4-15.6C243.7,777.3,245.8,776.8,242.7,769.9z"/>
		</g>
		<g>
			<path class="st6" d="M242.9,762.1c-3.1-6.8-5.5-4.9-11.1-9.8c-5.6-4.8-5.8-4.7-11.4-9.5c-5.6-4.8-5.7-4.8-11.3-9.6&#10;&#9;&#9;&#9;&#9;c-5.6-4.8-5.6-4.8-11.3-9.7c-5.6-4.8-5.5-5-11.1-9.9c-5.6-4.8-5.9-4.5-11.5-9.4c-5.6-4.8-5.4-5.1-11-10&#10;&#9;&#9;&#9;&#9;c-5.6-4.8-5.6-4.9-11.2-9.7c-5.6-4.8-5.7-4.8-11.3-9.6c-5.6-4.8-5.6-4.9-11.2-9.7c-5.6-4.8-5.8-4.6-11.4-9.5&#10;&#9;&#9;&#9;&#9;c-5.6-4.8-5.8-4.7-11.4-9.5c-5.6-4.8-5.5-5-11.1-9.8c-5.6-4.8-5.8-4.7-11.4-9.5c-5.6-4.8-4.7-13.8-11.2-10c-7,4,0,8.2,0,16.3&#10;&#9;&#9;&#9;&#9;c0,8.1-3.2,8.8,0,16.2c3,6.8,5.9,4.5,11.6,9.3c5.6,4.8,5.5,5,11.1,9.7c5.6,4.8,5.5,4.9,11.1,9.7c5.6,4.8,5.6,4.9,11.2,9.6&#10;&#9;&#9;&#9;&#9;c5.6,4.8,5.6,4.8,11.3,9.6c5.6,4.8,5.6,4.8,11.2,9.6c5.6,4.8,6,4.3,11.7,9.1c5.6,4.8,5.6,4.8,11.3,9.6c5.6,4.8,5.6,4.8,11.3,9.6&#10;&#9;&#9;&#9;&#9;c5.6,4.8,5.7,4.7,11.3,9.5c5.6,4.8,5.6,4.8,11.2,9.6c5.6,4.8,5.3,5.1,11,9.9c5.6,4.8,5.8,4.6,11.4,9.4c5.6,4.8,5.5,4.9,11.2,9.7&#10;&#9;&#9;&#9;&#9;c5.6,4.8,4.9,13.1,11.5,9.8c6.8-3.4-1-8,0-15.5C244.2,769.6,246.1,769.1,242.9,762.1z" style="fill: rgb(122, 55, 0);"/>
		</g>
	</g>
</g><path d="M 322 628.200012 A 56.5 17.299999 0 0 1 265.5 645.500011 A 56.5 17.299999 0 0 1 209 628.200012 A 56.5 17.299999 0 0 1 265.5 610.900013 A 56.5 17.299999 0 0 1 322 628.200012 Z" class="st6" style="fill: rgb(122, 55, 0);" transform="matrix(-1, 0, 0, 1, 443.1973876953125, -498.76722717285156)"/>
<g transform="matrix(-1, 0, 0, 1, 443.1973876953125, -498.76722717285156)">
	<path class="st15" d="M270.1,624.8c-2.9-0.9-5.8-1.6-8.3-3.2c-3.4-2.2-5.7-5.9-6.9-9.8c-1.2-3.9-1.3-8-1.3-12.1&#10;&#9;&#9;c0-5.6,0.4-11.2,1.1-16.7c-9.5,4.1-18.8,9-25.9,16.4c-4.3,4.4-7.8,9.9-9.7,15.7c-3.2-6.2-3.8-14.3,0.4-25&#10;&#9;&#9;c14-34.9,37.1-47.3,37.1-47.3c4.1,18.1,30.2,21.3,48.9,40.9c18.7,19.7-6,45.7-6,45.7s-9.4,1.7-19.8,3.1c-0.3-1.3-0.9-2.7-1.8-3.7&#10;&#9;&#9;C275.8,626.8,272.9,625.7,270.1,624.8z" style="fill: rgb(240, 244, 252);"/>
	<path class="st16" d="M255.3,634.4c-7.9-0.9-28.9-5-36.3-19.2c1.9-5.9,5.4-11.3,9.7-15.7c7.2-7.4,16.5-12.3,25.9-16.4&#10;&#9;&#9;c-0.7,5.6-1.1,11.2-1.1,16.7c0,4.1,0.1,8.2,1.3,12.1c1.2,3.9,3.4,7.6,6.9,9.8c2.5,1.6,5.5,2.3,8.3,3.2c2.9,0.9,5.8,2,7.7,4.3&#10;&#9;&#9;c0.9,1,1.5,2.3,1.8,3.7C270.5,634,260.6,634.9,255.3,634.4z" style="fill: rgb(222, 232, 255);"/>
</g>






















</svg>