<?xml version="1.0" encoding="utf-8"?>
<svg id="master-artboard" viewBox="0 0 400 400" version="1.1" xmlns="http://www.w3.org/2000/svg" x="0px" y="0px" style="enable-background:new 0 0 1400 980;" width="400px" height="400px"><rect id="ee-background" x="0" y="0" width="400" height="400" style="fill: white; fill-opacity: 0; pointer-events: none;"/>





































































































































<g transform="matrix(-1, 0, 0, 1, 1337.4518280029297, -507.5837707519531)">
	<g>
		<g>
			<path class="st2" d="M969.9,539.7c-6.5,3.2-0.2,7.6-0.2,14.9c0,7.3,0.2,7.3,0.2,14.6c0,7.3,0.5,7.3,0.5,14.6&#10;&#9;&#9;&#9;&#9;c0,7.3-0.8,7.3-0.8,14.6c0,7.3,0.2,7.3,0.2,14.6c0,7.3,0.1,7.3,0.1,14.6c0,7.3,0.1,7.3,0.1,14.6c0,7.3,0.5,7.3,0.5,14.6&#10;&#9;&#9;&#9;&#9;c0,7.3-0.3,7.3-0.3,14.6c0,7.3-0.7,7.3-0.7,14.6c0,7.3,1,7.3,1,14.6c0,7.3-3.3,7.8-0.3,14.5c2.9,6.6,5.5,4.5,10.8,9.4&#10;&#9;&#9;&#9;&#9;c5.3,4.9,4.8,5.4,10.1,10.2c5.3,4.9,5,5.2,10.3,10.1c5.3,4.9,5.4,4.7,10.7,9.6c5.3,4.9,5.8,4.3,11.1,9.2&#10;&#9;&#9;&#9;&#9;c5.3,4.9,5.2,4.9,10.5,9.8c5.3,4.9,4.7,5.5,10,10.4c5.3,4.9,5.3,4.8,10.6,9.7c5.3,4.9,5.3,4.8,10.6,9.7c5.3,4.9,5.9,4.2,11.2,9.1&#10;&#9;&#9;&#9;&#9;c5.3,4.9,4.6,5.6,9.9,10.5c5.3,4.9,5.9,4.2,11.2,9.1c5.3,4.9,4.8,5.4,10.1,10.3c5.3,4.9,5.3,4.9,10.6,9.7&#10;&#9;&#9;&#9;&#9;c5.3,4.9,5.9,4.2,11.2,9.1c5.3,4.9,3.3,12.6,10,9.9c6.7-2.7,0.3-6.8,0.7-14c0.4-7.2,0.3-7.2,0.7-14.4c0.4-7.2,0.6-7.2,1-14.4&#10;&#9;&#9;&#9;&#9;c0.4-7.2,1.1-7.2,1.5-14.4c0.4-7.2-0.2-7.2,0.2-14.4c0.4-7.2-0.1-7.2,0.3-14.4c0.4-7.2,0.9-7.2,1.3-14.4&#10;&#9;&#9;&#9;&#9;c0.4-7.2,0.8-7.2,1.2-14.4c0.4-7.2,0.3-7.2,0.7-14.4c0.4-7.2,0.8-7.2,1.2-14.4c0.4-7.2-0.5-7.3-0.1-14.5&#10;&#9;&#9;&#9;&#9;c0.4-7.2,0.2-7.2,0.6-14.4c0.4-7.2,1-7.2,1.4-14.4s4.4-8.1,1.2-14.6c-3.2-6.7-6.3-4.3-12.3-8.6c-6-4.3-5.9-4.4-12-8.8&#10;&#9;&#9;&#9;&#9;c-6-4.3-6.5-3.7-12.5-8c-6-4.3-5.3-5.3-11.4-9.6c-6-4.3-6.6-3.5-12.6-7.9c-6-4.3-6.1-4.2-12.1-8.5c-6-4.3-5.8-4.6-11.9-8.9&#10;&#9;&#9;&#9;&#9;c-6-4.3-6.2-4.1-12.2-8.4c-6-4.3-5.5-5-11.6-9.4c-6-4.3-5.9-4.4-12-8.8c-6-4.3-6-4.3-12.1-8.7c-6-4.3-6.2-4-12.3-8.4&#10;&#9;&#9;&#9;&#9;c-6-4.3-5.9-4.5-11.9-8.9c-6-4.3-7.8-2.4-12.6-8C976.5,542.4,976.5,536.5,969.9,539.7z" style="fill: rgb(218, 164, 104);"/>
		</g>
		<g>
			<path class="st0" d="M1306.9,747.6c2.4,6.1,0.1,6.5,0.1,13.1c0,6.6-0.1,6.6-0.1,13.1c0,6.6,0.1,6.6,0.1,13.1&#10;&#9;&#9;&#9;&#9;c0,6.6-0.2,6.6-0.2,13.1s2.1,6.8,0.4,13.2c-4.1,2.5-8.8,4.7-13.3,7.1c-4.3,2.3-8.5,4.9-13.1,7.1c-4.4,2.1-8.8,4.4-13.4,6.4&#10;&#9;&#9;&#9;&#9;c-4.5,2-9.1,3.8-13.8,5.7c-4.5,1.8-9.1,3.7-13.9,5.4c-4.6,1.7-9.4,3-14.2,4.5c-4.6,1.5-9.4,3-14.2,4.4c-4.7,1.4-9.4,3.1-14.2,4.4&#10;&#9;&#9;&#9;&#9;c-4.7,1.3-9.6,2.3-14.5,3.5c-4.8,1.2-9.6,2.4-14.5,3.5c-4.8,1.1-9.7,1.8-14.6,2.8c-4.8,1-9.7,2.2-14.6,3.1&#10;&#9;&#9;&#9;&#9;c-2.5-7,0.2-7.4,0.2-14.8c0-7.4,0-7.4,0-14.8c0-7.4-0.1-7.4-0.1-14.8c0-7.4-0.2-7.4-0.2-14.8c0-7.4-1.8-7.6,0.4-14.7&#10;&#9;&#9;&#9;&#9;c4.9-0.8,9.5-1.5,14.2-2.3c4.9-0.9,9.7-1.8,14.4-2.7c4.9-0.9,9.6-2,14.4-3c4.8-1,9.6-2.3,14.3-3.4c4.8-1.1,9.6-2.2,14.3-3.4&#10;&#9;&#9;&#9;&#9;c4.8-1.2,9.6-2.2,14.3-3.5c4.8-1.3,9.3-3.2,13.9-4.7c4.8-1.5,9.5-2.8,14-4.4c4.7-1.6,9.3-3.4,13.7-5.1c4.7-1.8,9.3-3.3,13.7-5.1&#10;&#9;&#9;&#9;&#9;c4.6-1.9,9.2-3.7,13.5-5.7C1298.6,752.2,1302.7,749.8,1306.9,747.6z" style="fill: rgb(255, 230, 166);"/>
		</g>
		<g>
			<path class="st0" d="M1139,714.9c5-0.9,10-1.5,14.8-2.5c5-1,9.8-2.4,14.6-3.5c5-1.1,9.8-2.5,14.5-3.7c4.9-1.2,9.8-2.2,14.6-3.5&#10;&#9;&#9;&#9;&#9;c4.9-1.4,9.7-2.8,14.4-4.3c4.9-1.5,9.6-3.2,14.2-4.8c4.8-1.7,9.6-3.2,14.2-4.9c4.8-1.8,9.3-4,13.8-5.9c4.7-2,9.5-3.6,13.9-5.7&#10;&#9;&#9;&#9;&#9;c4.6-2.2,9.1-4.4,13.4-6.7c4.5-2.4,8.6-5.2,12.9-7.7c4.4-2.5,8.6-4.8,12.7-7.4c2.4,7.5,0,7.8,0,15.6c0,7.9,0.1,7.9,0.1,15.7&#10;&#9;&#9;&#9;&#9;c0,7.9,0.5,7.9,0.5,15.7c0,7.9,1.7,8.1-0.1,15.7c-4.2,2.2-8.8,4.3-13.3,6.4c-4.3,2-8.7,4.1-13.3,6.1c-4.4,1.8-9,3.6-13.7,5.4&#10;&#9;&#9;&#9;&#9;c-4.5,1.7-9.1,3.4-13.8,5c-4.5,1.5-9.3,2.8-14,4.3c-4.6,1.4-9.2,3.2-14,4.5c-4.6,1.3-9.5,2-14.3,3.3c-4.7,1.2-9.3,2.7-14.2,3.8&#10;&#9;&#9;&#9;&#9;c-4.7,1.1-9.4,2.4-14.3,3.4c-4.7,1-9.5,1.9-14.4,2.8c-4.7,0.9-9.5,1.9-14.4,2.8c-4.8,0.8-9.5,1.4-14.4,2.1c-2.4-6.1,0-6.5,0-13&#10;&#9;&#9;&#9;&#9;c0-6.5-0.3-6.5-0.3-13c0-6.5,1-6.6,0.3-13C1138.3,721.4,1136.8,721.1,1139,714.9z" style="fill: rgb(255, 230, 166);"/>
		</g>
		<g class="st3" style="opacity: 0.1;">
			<path d="M1306.8,724.8c2.3,7.3,0.4,7.6,0.4,15.2s1.5,7.8-0.3,15.2c-4.2,2.2-8.4,4.6-13,6.7c-4.3,2-8.7,4.2-13.4,6.1&#10;&#9;&#9;&#9;&#9;c-4.4,1.8-9.2,3.1-13.8,4.9c-4.5,1.7-9,3.5-13.7,5.1c-4.5,1.5-9.1,3.3-13.9,4.8c-4.6,1.4-9.4,2.5-14.2,3.8&#10;&#9;&#9;&#9;&#9;c-4.6,1.3-9.4,2.5-14.2,3.7c-4.7,1.2-9.4,2.6-14.2,3.7c-4.7,1.1-9.4,2.4-14.3,3.4c-4.7,1-9.5,2.2-14.3,3.1&#10;&#9;&#9;&#9;&#9;c-4.7,0.9-9.7,1.3-14.5,2.2c-4.8,0.8-9.6,1.8-14.5,2.6c-2.4-7.2,0.3-7.6,0.3-15.3s-2.6-8-0.4-15.3c4.9-0.8,9.8-1.8,14.5-2.7&#10;&#9;&#9;&#9;&#9;c4.9-0.9,9.7-1.4,14.5-2.3c4.9-0.9,9.7-1.9,14.4-2.9c4.8-1,9.6-2.2,14.3-3.3c4.8-1.1,9.6-2.1,14.3-3.3c4.8-1.2,9.4-2.8,14.1-4.1&#10;&#9;&#9;&#9;&#9;c4.8-1.3,9.6-2.3,14.2-3.7c4.8-1.5,9.4-3,13.9-4.6c4.7-1.6,9.1-3.8,13.6-5.5c4.7-1.8,9.4-3,13.9-4.8c4.6-1.9,9.1-3.9,13.4-5.9&#10;&#9;&#9;&#9;&#9;C1298.6,729.4,1302.6,727,1306.8,724.8z"/>
		</g>
		<g>
			<path class="st15" d="M1306.7,717.2c2.3,7.3,0.3,7.5,0.3,15.1s1.8,7.8,0,15.2c-4.2,2.2-8.7,4.1-13.3,6.2c-4.3,2-8.7,4.1-13.4,6&#10;&#9;&#9;&#9;&#9;c-4.4,1.8-9,3.6-13.6,5.4c-4.5,1.7-9,3.6-13.7,5.2c-4.5,1.5-9.1,3.2-13.9,4.7c-4.6,1.4-9.4,2.5-14.2,3.8&#10;&#9;&#9;&#9;&#9;c-4.6,1.3-9.3,2.9-14.1,4.1c-4.7,1.2-9.4,2.3-14.3,3.5c-4.7,1.1-9.5,2-14.4,3c-4.7,1-9.6,1.7-14.4,2.7c-4.7,0.9-9.5,2.1-14.4,3&#10;&#9;&#9;&#9;&#9;c-4.8,0.8-9.4,1.6-14.3,2.4c-2.4-7.2-0.4-7.6-0.4-15.2s-1.9-7.9,0.3-15.2c4.9-0.8,9.6-1.7,14.4-2.6c4.9-0.9,9.6-1.9,14.4-2.8&#10;&#9;&#9;&#9;&#9;c4.9-0.9,9.8-1.3,14.5-2.3c4.8-1,9.6-2.3,14.3-3.4c4.8-1.1,9.5-2.6,14.2-3.8c4.8-1.2,9.6-2.2,14.3-3.5c4.8-1.3,9.5-2.6,14.1-4&#10;&#9;&#9;&#9;&#9;c4.8-1.5,9.3-3.2,13.9-4.7c4.7-1.6,9.2-3.5,13.7-5.2c4.7-1.8,9.1-3.7,13.6-5.6c4.6-1.9,9.3-3.4,13.6-5.5&#10;&#9;&#9;&#9;&#9;C1298.5,721.7,1302.5,719.4,1306.7,717.2z" style="fill: rgb(240, 244, 252);"/>
		</g>
		<g>
			<path class="st14" d="M1139.3,715.1c-6.4,2.9-5.4-4.7-10.8-9.2c-5.3-4.6-5.5-4.4-10.8-9c-5.3-4.6-4.9-5.1-10.2-9.7&#10;&#9;&#9;&#9;&#9;c-5.3-4.6-5.8-4.1-11.1-8.6c-5.3-4.6-5.1-4.8-10.4-9.4c-5.3-4.6-5.2-4.7-10.5-9.3c-5.3-4.6-5.5-4.3-10.9-8.9&#10;&#9;&#9;&#9;&#9;c-5.3-4.6-5.4-4.4-10.8-9c-5.3-4.6-5.1-4.9-10.4-9.4c-5.3-4.6-5.4-4.5-10.7-9c-5.3-4.6-5.4-4.5-10.7-9c-5.3-4.6-5.3-4.6-10.6-9.2&#10;&#9;&#9;&#9;&#9;c-5.3-4.6-5.1-4.8-10.4-9.4c-5.3-4.6-5.5-4.3-10.9-8.9c-5.3-4.6-5-5-10.3-9.6s-8.2-2.4-11-8.8c-2.8-6.6,0.3-7.2,0.5-14.3&#10;&#9;&#9;&#9;&#9;c0.3-7.1-5.7-11,0.8-14c6.6-3,5.5,4.3,11.4,8.6c5.9,4.3,6.1,4,11.9,8.3c5.9,4.3,5.8,4.3,11.7,8.7c5.9,4.3,5.6,4.6,11.5,9&#10;&#9;&#9;&#9;&#9;c5.9,4.3,5.9,4.2,11.8,8.6c5.9,4.3,5.8,4.4,11.7,8.7c5.9,4.3,6,4.1,11.9,8.4c5.9,4.3,6,4.2,11.8,8.5c5.9,4.3,5.7,4.6,11.5,8.9&#10;&#9;&#9;&#9;&#9;c5.9,4.3,6.1,4,11.9,8.4c5.9,4.3,5.8,4.3,11.7,8.7c5.9,4.3,5.7,4.5,11.6,8.8c5.9,4.3,5.7,4.5,11.6,8.9c5.9,4.3,6.1,4.1,11.9,8.4&#10;&#9;&#9;&#9;&#9;c5.9,4.3,8.8,2,11.6,8.7c2.8,7.1-0.7,7.5-1.8,15c-1.1,7.5-3.3,7.5-2.6,15C1142.2,708.3,1146.3,711.9,1139.3,715.1z" style="fill: rgb(197, 207, 226);"/>
		</g>
		<g>
			<path class="st15" d="M1138.9,683.1c4.9-0.9,9.8-2,14.7-3c4.9-1,9.8-2.1,14.6-3.2c4.9-1.1,9.8-1.9,14.6-3.1&#10;&#9;&#9;&#9;&#9;c4.9-1.2,9.7-2.5,14.4-3.8c4.9-1.3,9.5-3.1,14.2-4.5c4.8-1.5,9.7-2.6,14.3-4.1c4.8-1.6,9.4-3.6,14-5.2c4.7-1.7,9.5-3.3,14-5.1&#10;&#9;&#9;&#9;&#9;c4.7-1.9,9.3-3.8,13.7-5.8c4.6-2,9.1-4.3,13.4-6.4c4.6-2.2,9.1-4.3,13.4-6.6c4.5-2.4,8.6-5,12.7-7.6c2.4,7,0.4,7.4,0.4,14.8&#10;&#9;&#9;&#9;&#9;c0,7.4,1.3,7.6-0.4,14.8c-4.1,2.6-8.1,5.4-12.6,8c-4.2,2.4-8.6,4.8-13.2,7.2c-4.3,2.3-8.8,4.4-13.5,6.6&#10;&#9;&#9;&#9;&#9;c-4.4,2.1-8.9,4.3-13.6,6.3c-4.5,1.9-9.4,3.2-14.1,5c-4.6,1.8-9,4.1-13.9,5.7c-4.6,1.6-9.5,2.9-14.3,4.4&#10;&#9;&#9;&#9;&#9;c-4.7,1.5-9.5,2.7-14.4,4.1c-4.7,1.3-9.5,2.9-14.4,4.1c-4.8,1.2-9.6,2.5-14.5,3.6c-4.8,1.1-9.8,1.8-14.7,2.8&#10;&#9;&#9;&#9;&#9;c-4.8,1-9.8,2-14.8,2.9c-2.5-7.6,0.6-8-0.2-15.9C1138,691,1136.7,690.7,1138.9,683.1z" style="fill: rgb(240, 244, 252);"/>
		</g>
		<g>
			<path class="st16" d="M1139.1,682.8c-5.6-4.8-5.8-4.6-11.5-9.4c-5.7-4.8-5.2-5.3-10.9-10.1c-5.7-4.8-6.2-4.2-11.8-8.9&#10;&#9;&#9;&#9;&#9;c-5.7-4.8-5.4-5.1-11-9.9c-5.7-4.8-5.8-4.6-11.5-9.4c-5.7-4.8-6-4.3-11.7-9.1c-5.7-4.8-5.7-4.7-11.4-9.5&#10;&#9;&#9;&#9;&#9;c-5.7-4.8-5.1-5.4-10.8-10.1c-5.7-4.8-5.9-4.5-11.6-9.2c-5.7-4.8-5.8-4.6-11.4-9.4c-5.7-4.8-5.4-5.1-11.1-9.8&#10;&#9;&#9;&#9;&#9;c-5.7-4.8-5.4-5.1-11-9.9c-5.7-4.8-5.9-4.5-11.6-9.2c-5.7-4.8-5.4-5.1-11-9.9c-5.7-4.8-6.6-3.7-12-8.7c-0.4-0.4,0.9-0.5,1.4-0.4&#10;&#9;&#9;&#9;&#9;c7,1.6,7.1,1.6,14.1,3.3c7,1.7,6.9,2.4,13.9,4.1c7,1.7,7.1,1.4,14.1,3.1c7,1.7,7.2,1.2,14.2,3c7,1.7,6.8,2.4,13.9,4.2&#10;&#9;&#9;&#9;&#9;c7,1.7,6.9,2.1,13.9,3.9c7,1.7,7.3,0.7,14.3,2.4c7,1.7,6.9,2.3,13.9,4c7,1.7,7,1.8,14,3.6c7,1.7,7,1.9,14,3.6&#10;&#9;&#9;&#9;&#9;c7,1.7,7.1,1.4,14.1,3.1c7,1.7,7.1,1.4,14.1,3.2c7,1.7,7,1.8,14,3.6c7,1.7,6.9,2.2,13.9,3.9c7,1.7,7.1,1.5,14.1,3.3&#10;&#9;&#9;&#9;&#9;c7,1.7,7.1,1.6,14.1,3.3c7,1.7,7,1.7,14,3.5c7,1.7,6.8,2.5,13.9,4.2c7,1.7,7,1.8,14,3.5c7,1.7,7.2,0.9,14.2,2.7&#10;&#9;&#9;&#9;&#9;c7,1.7,6.8,2.5,13.9,4.2c7,1.7,7.2,1,14.2,2.8c7,1.7,6.9,2.2,13.9,3.9c7,1.7,7.1,1.4,14.1,3.5c0.4,0.1,0.5,0.6,0.2,0.9&#10;&#9;&#9;&#9;&#9;c-4.1,2.5-8.7,4.6-13.2,7c-4.3,2.3-8.6,4.7-13.2,6.9c-4.4,2.1-8.5,5-13.2,7c-4.5,2-9.4,3.1-14.1,5c-4.5,1.8-8.9,4.2-13.7,6&#10;&#9;&#9;&#9;&#9;c-4.6,1.7-9.3,3.2-14.1,4.8c-4.6,1.5-9.4,2.9-14.3,4.3c-4.7,1.4-9.3,3.2-14.2,4.6c-4.7,1.3-9.9,1.3-14.7,2.6&#10;&#9;&#9;&#9;&#9;c-4.8,1.2-9.3,3.6-14.2,4.7c-4.8,1.1-9.8,1.6-14.7,2.6c-4.8,1-9.8,1.5-14.7,2.5C1138.8,682.8,1139.2,682.9,1139.1,682.8z" style="fill: rgb(222, 232, 255);"/>
		</g>
		<g class="st3" style="opacity: 0.1;">
			<path d="M1138.7,774.9c-3.1-6.8-5.4-4.9-11-9.7c-5.6-4.8-5.5-5-11.1-9.8c-5.6-4.8-5.6-4.9-11.2-9.8c-5.6-4.8-5.6-4.8-11.3-9.7&#10;&#9;&#9;&#9;&#9;c-5.6-4.8-5.6-4.9-11.2-9.7c-5.6-4.8-6-4.4-11.7-9.2c-5.6-4.8-5.6-4.8-11.3-9.7c-5.6-4.8-5.6-4.9-11.2-9.7&#10;&#9;&#9;&#9;&#9;c-5.6-4.8-5.7-4.8-11.3-9.6c-5.6-4.8-5.6-4.9-11.2-9.7c-5.6-4.8-5.3-5.2-11-10c-5.6-4.8-5.8-4.7-11.4-9.5&#10;&#9;&#9;&#9;&#9;c-5.6-4.8-5.5-5-11.2-9.8c-5.6-4.8-5.5-5-11.1-9.9s-5.1-13.3-11.6-9.6c-7,4,0,8.2,0,16.3c0,8.1-3.1,8.7,0.2,16.1&#10;&#9;&#9;&#9;&#9;c3,6.8,5.5,4.9,11.1,9.7c5.6,4.8,5.7,4.7,11.3,9.5c5.6,4.8,5.4,5,11,9.8c5.6,4.8,5.9,4.5,11.5,9.2c5.6,4.8,5.5,5,11.1,9.7&#10;&#9;&#9;&#9;&#9;c5.6,4.8,5.7,4.7,11.3,9.5c5.6,4.8,5.8,4.6,11.5,9.3c5.6,4.8,5.7,4.7,11.3,9.5c5.6,4.8,5.4,5.1,11,9.9c5.6,4.8,5.8,4.6,11.4,9.4&#10;&#9;&#9;&#9;&#9;c5.6,4.8,5.7,4.7,11.3,9.5c5.6,4.8,5.5,4.9,11.1,9.7c5.6,4.8,5.5,5,11.1,9.7c5.6,4.8,5.8,4.6,11.4,9.4c5.6,4.8,4.9,13.1,11.5,9.8&#10;&#9;&#9;&#9;&#9;c6.8-3.4-1.3-8-0.4-15.6C1139.7,782.3,1141.8,781.8,1138.7,774.9z"/>
		</g>
		<g>
			<path class="st14" d="M1138.9,767.1c-3.1-6.8-5.5-4.9-11.1-9.8c-5.6-4.8-5.8-4.7-11.4-9.5c-5.6-4.8-5.7-4.8-11.3-9.6&#10;&#9;&#9;&#9;&#9;c-5.6-4.8-5.6-4.8-11.3-9.7c-5.6-4.8-5.5-5-11.1-9.9c-5.6-4.8-5.9-4.5-11.5-9.4c-5.6-4.8-5.4-5.1-11-10&#10;&#9;&#9;&#9;&#9;c-5.6-4.8-5.6-4.9-11.2-9.7c-5.6-4.8-5.7-4.8-11.3-9.6c-5.6-4.8-5.6-4.9-11.2-9.7c-5.6-4.8-5.8-4.6-11.4-9.5&#10;&#9;&#9;&#9;&#9;c-5.6-4.8-5.8-4.7-11.4-9.5c-5.6-4.8-5.5-5-11.1-9.8c-5.6-4.8-5.8-4.7-11.4-9.5c-5.6-4.8-4.7-13.8-11.2-10c-7,4,0,8.2,0,16.3&#10;&#9;&#9;&#9;&#9;c0,8.1-3.2,8.8,0,16.2c3,6.8,5.9,4.5,11.6,9.3c5.6,4.8,5.5,5,11.1,9.7c5.6,4.8,5.5,4.9,11.1,9.7c5.6,4.8,5.6,4.9,11.2,9.6&#10;&#9;&#9;&#9;&#9;c5.6,4.8,5.6,4.8,11.3,9.6c5.6,4.8,5.6,4.8,11.2,9.6c5.6,4.8,6,4.3,11.7,9.1c5.6,4.8,5.6,4.8,11.3,9.6c5.6,4.8,5.6,4.8,11.3,9.6&#10;&#9;&#9;&#9;&#9;c5.6,4.8,5.7,4.7,11.3,9.5c5.6,4.8,5.6,4.8,11.2,9.6c5.6,4.8,5.3,5.1,11,9.9c5.6,4.8,5.8,4.6,11.4,9.4c5.6,4.8,5.5,4.9,11.2,9.7&#10;&#9;&#9;&#9;&#9;c5.6,4.8,4.9,13.1,11.5,9.8c6.8-3.4-1-8,0-15.5C1140.2,774.6,1142.1,774.1,1138.9,767.1z" style="fill: rgb(197, 207, 226);"/>
		</g>
		<g>
			<path class="st13" d="M975,587.9c7.8-1.7,6.1,5,12.1,10.2c6.1,5.2,6,5.2,12.1,10.4c6.1,5.2,6.1,5.2,12.1,10.4&#10;&#9;&#9;&#9;&#9;c6.1,5.2,8.5,3.3,12.2,10.3c2.1,3.8,2.2,8.7-2.1,8.5c-7.4-0.4-5.8-4.6-11.6-9.2c-5.8-4.6-5.8-4.6-11.6-9.2&#10;&#9;&#9;&#9;&#9;c-5.8-4.6-5.8-4.6-11.6-9.2c-5.8-4.6-6.6-3.7-11.5-9.3C970.2,595.2,968.7,589.3,975,587.9z" style="fill: rgb(170, 48, 48);"/>
		</g>
		<g>
			<path class="st13" d="M996.7,629.2c6.7-0.1,5.4,4,10.9,8c5.4,4,5.4,4,10.8,8c5.4,4,5.5,3.9,10.9,7.9c5.4,4,5.4,4,10.8,8&#10;&#9;&#9;&#9;&#9;c5.4,4,5.5,3.9,11,7.9c5.4,4,8.4,1.7,10.8,8c1.7,4.6,0.4,8.4-4.5,8.6c-6.7,0.3-5.3-4.1-10.6-8.1c-5.3-4-5.3-4-10.7-8&#10;&#9;&#9;&#9;&#9;c-5.3-4-5.3-4.1-10.6-8.1c-5.3-4-5.4-4-10.7-8c-5.3-4-5.4-3.9-10.7-7.9c-5.3-4-6.6-2.8-10.5-8.2&#10;&#9;&#9;&#9;&#9;C990.8,633.4,992.3,629.2,996.7,629.2z" style="fill: rgb(170, 48, 48);"/>
		</g>
		<g>
			<path class="st13" d="M1075.9,673.4c0.5,0.1,5,3.6,11.2,8.8c3.3,2.7,7.1,5.8,11,9.1c3.6,3,7.3,6.2,10.9,9.3&#10;&#9;&#9;&#9;&#9;c3.9,3.3,7.7,6.5,10.9,9.3c6.4,5.4,10.3,2.1,11.1,9.2c0.7,6.4,3.6,11.4-2.8,12.7c-7.3,1.5-5.8-4.9-11.5-9.7&#10;&#9;&#9;&#9;&#9;c-5.7-4.9-5.6-4.9-11.4-9.8c-5.7-4.9-5.7-4.8-11.4-9.7c-5.7-4.9-5.6-4.9-11.4-9.8c-5.7-4.9-7.4-3.4-11.4-9.7&#10;&#9;&#9;&#9;&#9;C1068.5,678.5,1073.4,678.1,1075.9,673.4z" style="fill: rgb(170, 48, 48);"/>
		</g>
		<g>
			<path class="st13" d="M1071.3,691.6c6.7,1.8,5.2,4.6,10.5,9.2c5.2,4.6,5.2,4.6,10.4,9.2c5.2,4.6,8.2,2.5,10.5,9.1&#10;&#9;&#9;&#9;&#9;c1.6,4.5,0.7,9.2-4,8.6c-7.8-0.9-5.8-5.3-11.6-10.6c-5.8-5.3-5.9-5.2-11.7-10.5c-5.8-5.3-8-3.6-11.6-10.6&#10;&#9;&#9;&#9;&#9;C1061.6,691.8,1067,690.5,1071.3,691.6z" style="fill: rgb(170, 48, 48);"/>
		</g>
		<g>
			<path class="st13" d="M1029.3,633.4c7.3,0.2,5.4,4.9,10.9,9.8c5.4,4.9,5.5,4.8,10.9,9.7s7.7,3.2,10.9,9.7&#10;&#9;&#9;&#9;&#9;c1.2,2.5-1.9,4.2-4.6,3.4c-6.3-1.8-5.3-3.9-10.6-7.8c-5.3-3.9-5.3-3.8-10.6-7.7c-5.3-3.9-6.8-2.4-10.6-7.8&#10;&#9;&#9;&#9;&#9;C1022.5,638.1,1024.3,633.3,1029.3,633.4z" style="fill: rgb(170, 48, 48);"/>
		</g>
		<g>
			<path class="st13" d="M979.3,675.7c6.4-0.9,5,4,10,8.2c5,4.2,4.9,4.3,9.9,8.4c5,4.2,5.1,4.1,10.1,8.3c5,4.2,4.9,4.3,9.9,8.5&#10;&#9;&#9;&#9;&#9;c5,4.2,7.5,2.3,10,8.3c1.5,3.8,0.5,7.9-3.6,7.3c-7.6-1.2-6-4.8-12-9.7c-6-4.9-6-4.9-12-9.8c-6-4.9-6-4.8-12-9.7&#10;&#9;&#9;&#9;&#9;c-6-4.9-7.2-3.7-12-9.7C974.1,681.2,974.3,676.5,979.3,675.7z" style="fill: rgb(170, 48, 48);"/>
		</g>
		<g>
			<path class="st13" d="M1012,722c7.8,0,6.1,4.8,12.2,9.7c6.1,4.8,6.2,4.8,12.3,9.6c6.1,4.8,6.1,4.8,12.2,9.6&#10;&#9;&#9;&#9;&#9;c6.1,4.8,6,4.9,12.2,9.8c6.1,4.8,8.4,2.9,12.2,9.7c1.6,2.9-0.3,6.3-3.6,5.6c-7.1-1.5-5.7-4.5-11.4-8.9c-5.7-4.4-5.8-4.4-11.5-8.9&#10;&#9;&#9;&#9;&#9;c-5.7-4.4-5.8-4.3-11.6-8.7c-5.7-4.4-5.6-4.6-11.4-9c-5.7-4.4-6.7-3.4-11.5-8.8C1008.3,727.4,1007.2,722,1012,722z" style="fill: rgb(170, 48, 48);"/>
		</g>
		<g>
			<path class="st13" d="M983,705.7c5.6,0.6,4.5,3.3,9,6.6s6.2,1.8,9,6.7c1.5,2.6,1.2,6-1.8,5.7c-6.4-0.7-5.4-3.5-10.8-7&#10;&#9;&#9;&#9;&#9;c-5.4-3.5-7-1.8-10.8-7C975.4,707.5,979.4,705.3,983,705.7z" style="fill: rgb(170, 48, 48);"/>
		</g>
		<g>
			<path class="st13" d="M1089,773.5c0.6,0.4,5.2,4.3,11.3,9.4c3.4,2.9,7.4,6,11.3,9.3c3.9,3.3,7.8,6.5,11.2,9.4&#10;&#9;&#9;&#9;&#9;c6.4,5.4,9.3,2.4,11.3,9.4c1.8,6.3,5.9,10.5-0.1,13c-6.2,2.5-5.1-4.3-10.2-8.7c-5.1-4.4-5-4.5-10.1-8.9c-5.1-4.4-5-4.5-10.1-8.9&#10;&#9;&#9;&#9;&#9;c-5.1-4.4-5.1-4.5-10.2-8.9c-5.1-4.4-6.7-3.1-10.2-8.8C1081,776,1085.8,776.3,1089,773.5z" style="fill: rgb(170, 48, 48);"/>
		</g>
		<g>
			<path class="st13" d="M1048.3,738c2.4,6.5,5.4,4.5,10.7,8.9c5.3,4.5,5.3,4.5,10.7,9c5.3,4.5,3.7,8.3,10.7,9&#10;&#9;&#9;&#9;&#9;c4,0.4,4.5-3.9,2.9-7.7c-2.6-6-5-4.3-10-8.6c-5-4.3-5-4.3-10-8.5c-5-4.3-3.8-6.2-10-8.5C1049.1,730.2,1046.9,734.2,1048.3,738z" style="fill: rgb(170, 48, 48);"/>
		</g>
		<g>
			<path class="st13" d="M1065.4,783.8c6,3.2,4.8,4.8,9.6,9.5c4.8,4.8,4.8,4.8,9.7,9.5c4.8,4.8,5,4.6,9.8,9.4&#10;&#9;&#9;&#9;&#9;c4.8,4.8,4.8,4.8,9.6,9.6c4.8,4.8,4.8,4.8,9.6,9.6c4.8,4.8,7.5,3.1,9.8,9.5c1.2,3.2-1.2,6.4-4.5,5.5c-6.5-1.9-4.8-4.9-9.7-9.6&#10;&#9;&#9;&#9;&#9;c-4.9-4.7-5-4.6-9.9-9.3c-4.9-4.7-4.9-4.8-9.8-9.5c-4.9-4.7-4.8-4.9-9.7-9.6c-4.9-4.7-5-4.7-9.9-9.4c-4.9-4.7-5-4.7-9.9-9.4&#10;&#9;&#9;&#9;&#9;c-4.9-4.7-8.6-2.8-9.7-9.6C1049,772.3,1058.5,780.1,1065.4,783.8z" style="fill: rgb(170, 48, 48);"/>
		</g>
	</g>
</g>
<path class="st8" d="M1154.4,588.8c6.4-4.3,14.3-5.8,22-6.6c7.7-0.9,15.5-1.3,22.9-3.8c13.7-4.8,24.4-17.4,26.8-31.8&#10;&#9;c11.7,17.9,18.3,39.1,18.7,60.5c0.1,5.1-0.1,10.2-1.7,15c-3.2,9.5-11.4,16.6-20.6,20.5s-19.4,4.9-29.3,5.1&#10;&#9;c-11.3,0.3-23.5-0.6-32.3-7.8c-3.3-2.7-5.9-6.1-8.3-9.5C1143.2,617.5,1138.6,599.3,1154.4,588.8z" style="fill: rgb(26, 170, 70);" transform="matrix(-1, 0, 0, 1, 1337.4518280029297, -507.5837707519531)"/>
<path class="st25" d="M1159.1,624.9c4.4-1.1,9-1,13.6-1.5c12.6-1.3,25.4-7.7,31.1-19.1c-0.5,5.7-4.2,10.7-8.8,14s-10.1,5.2-15.6,6.6&#10;&#9;c-4.8,1.2-9.7,2.2-14.6,2.8c-2.5,0.3-5,0.6-7.4,1.4c-3.6,1.2-6.7,3.6-8.8,6.8c-1,1.5-3.5,7.5-6.1,6.9c-2.8-0.6-1.7-3.8-0.9-5.7&#10;&#9;C1144.3,631.4,1153.4,626.4,1159.1,624.9z" style="fill: rgb(27, 135, 55);" transform="matrix(-1, 0, 0, 1, 1337.4518280029297, -507.5837707519531)"/>
</svg>