<?xml version="1.0" encoding="utf-8"?>
<svg id="master-artboard" viewBox="0 0 400 400" version="1.1" xmlns="http://www.w3.org/2000/svg" x="0px" y="0px" style="enable-background:new 0 0 1400 980;" width="400px" height="400px"><rect id="ee-background" x="0" y="0" width="400" height="400" style="fill: white; fill-opacity: 0; pointer-events: none;"/>


























































<path class="st8" d="M663.2,111c4.4,1.7,8.5,4.2,12,7.4c3.2-4.1,6.9-7.8,10.9-11.1c-0.8,5.2-1.6,10.5-2.3,15.7&#10;&#9;c9.3-1.2,18.6-1.4,27.9-0.5c-6.8,3-14,5.3-21.2,6.9c4.8,1.3,9.5,2.6,14.3,3.9c3,0.8,6.5,2.2,7,5.3c-4.8-2.3-10.2-3.4-15.5-3.4&#10;&#9;c2.3,4.9,4.6,9.8,6.8,14.7c-8.8-5.9-19.4-11.3-27.2-18.5C670.3,126.3,667,117.5,663.2,111z" style="fill: rgb(26, 170, 70);" transform="matrix(1, 0, 0, 1, -494.9887390136719, -69.27320861816406)"/>

<g transform="matrix(1, 0, 0, 1, -494.9887390136719, -69.27320861816406)">
	<path d="M 860 114.5999984741211 L 860 286 L 694.0999755859375 438.79998779296875 L 682.9000244140625 241.5 Z" class="st2" style="fill: rgb(218, 164, 104);"/>
	<path class="st0" d="M530,317.6v64.2c39.6,24.7,98,44.6,165,57v-72.2C628,355.9,569.6,338.9,530,317.6z" style="fill: rgb(255, 230, 166);"/>
	<path class="st0" d="M695,285.7c-74-12.9-125.8-34.3-165-59.3v61.4c39.6,21.3,98,38.3,165,48.9V285.7z" style="fill: rgb(255, 230, 166);"/>
	<path class="st3" d="M530,295.3v29.8c39.6,21.3,98,38.3,165,48.9v-29.8C628,333.5,569.6,316.5,530,295.3z" style="opacity: 0.1;"/>
	<path class="st9" d="M530,287.8v29.8c39.6,21.3,98,38.3,165,48.9v-29.8C628,326.1,569.6,309.1,530,287.8z" style="fill: rgb(221, 62, 62);"/>
	<path d="M 694 285.70001220703125 L 860.5 142.5 L 859.5 114.5999984741211 L 687.4000244140625 241.5 Z" class="st10" style="fill: rgb(84, 34, 12);"/>
	<path class="st11" d="M695,254.5C628,242,569.6,222,530,197.3v29.1c39.2,25.1,91,46.4,165,59.3V254.5z" style="fill: rgb(158, 76, 40);"/>
	<path class="st12" d="M695,254.4L860.5,114h-1L530,196.5v0.7c39.6,24.7,98,44.7,165,57.3V254.4z" style="fill: rgb(124, 56, 19);"/>
	<path d="M 695 344.20001220703125 L 860 202.10000610351562 L 860 233.8000030517578 L 695 374 Z" class="st3" style="opacity: 0.1;"/>
	<path d="M 695 336.70001220703125 L 860 194.6999969482422 L 860 226.39999389648438 L 695 366.5 Z" class="st13" style="fill: rgb(170, 48, 48);"/>
</g>

<path d="M 687.799999 209.699997 A 34.799999 9.6 0 0 1 653 219.299997 A 34.799999 9.6 0 0 1 618.200001 209.699997 A 34.799999 9.6 0 0 1 653 200.099997 A 34.799999 9.6 0 0 1 687.799999 209.699997 Z" class="st10" style="fill: rgb(84, 34, 12);" transform="matrix(1, 0, 0, 1, -494.9887390136719, -69.27320861816406)"/>
<path class="st17" d="M613,170.5c-3.4,4-7.7,7.3-9.8,12.1c-3.2,7.3-0.1,16.3,5.9,21.6c6,5.3,14.2,7.4,22.1,8&#10;&#9;c18.9,1.3,38.3-5.7,51.9-18.9c22.5-21.7,22.3-62.2-11.5-72.9C636.5,109.3,629.5,151.2,613,170.5z" style="fill: rgb(244, 55, 55);" transform="matrix(1, 0, 0, 1, -494.9887390136719, -69.27320861816406)"/>
<path class="st18" d="M652.8,128.2c-0.5,0.1-1,0.2-1.4,0.5c-0.4,0.3-0.7,0.7-0.7,1.2c0,0.5,0.4,0.9,0.8,1.1c0.4,0.2,0.9,0.3,1.4,0.3&#10;&#9;c1.2,0,3.5-0.6,3.2-2.2C655.9,127.7,653.8,128.1,652.8,128.2z" style="fill: rgb(255, 226, 153);" transform="matrix(1, 0, 0, 1, -494.9887390136719, -69.27320861816406)"/>
<path class="st18" d="M664.8,131.2c-0.5,0.1-1,0.2-1.4,0.5c-0.4,0.3-0.7,0.7-0.7,1.2c0,0.5,0.4,0.9,0.8,1.1c0.4,0.2,0.9,0.3,1.4,0.3&#10;&#9;c1.2,0,3.5-0.6,3.2-2.2C667.9,130.7,665.8,131.1,664.8,131.2z" style="fill: rgb(255, 226, 153);" transform="matrix(1, 0, 0, 1, -494.9887390136719, -69.27320861816406)"/>
<path class="st18" d="M675.8,136.2c-0.5,0.1-1,0.2-1.4,0.5c-0.4,0.3-0.7,0.7-0.7,1.2c0,0.5,0.4,0.9,0.8,1.1c0.4,0.2,0.9,0.3,1.4,0.3&#10;&#9;c1.2,0,3.5-0.6,3.2-2.2C678.9,135.7,676.8,136.1,675.8,136.2z" style="fill: rgb(255, 226, 153);" transform="matrix(1, 0, 0, 1, -494.9887390136719, -69.27320861816406)"/>
<path class="st18" d="M686.8,144.2c-0.5,0.1-1,0.2-1.4,0.5c-0.4,0.3-0.7,0.7-0.7,1.2c0,0.5,0.4,0.9,0.8,1.1c0.4,0.2,0.9,0.3,1.4,0.3&#10;&#9;c1.2,0,3.5-0.6,3.2-2.2C689.9,143.7,687.8,144.1,686.8,144.2z" style="fill: rgb(255, 226, 153);" transform="matrix(1, 0, 0, 1, -494.9887390136719, -69.27320861816406)"/>
<path class="st18" d="M689.8,158.2c-0.5,0.1-1,0.2-1.4,0.5c-0.4,0.3-0.7,0.7-0.7,1.2c0,0.5,0.4,0.9,0.8,1.1c0.4,0.2,0.9,0.3,1.4,0.3&#10;&#9;c1.2,0,3.5-0.6,3.2-2.2C692.9,157.7,690.8,158.1,689.8,158.2z" style="fill: rgb(255, 226, 153);" transform="matrix(1, 0, 0, 1, -494.9887390136719, -69.27320861816406)"/>
<path class="st18" d="M675.8,151.2c-0.5,0.1-1,0.2-1.4,0.5c-0.4,0.3-0.7,0.7-0.7,1.2c0,0.5,0.4,0.9,0.8,1.1c0.4,0.2,0.9,0.3,1.4,0.3&#10;&#9;c1.2,0,3.5-0.6,3.2-2.2C678.9,150.7,676.8,151.1,675.8,151.2z" style="fill: rgb(255, 226, 153);" transform="matrix(1, 0, 0, 1, -494.9887390136719, -69.27320861816406)"/>
<path class="st18" d="M661.8,143.2c-0.5,0.1-1,0.2-1.4,0.5c-0.4,0.3-0.7,0.7-0.7,1.2c0,0.5,0.4,0.9,0.8,1.1c0.4,0.2,0.9,0.3,1.4,0.3&#10;&#9;c1.2,0,3.5-0.6,3.2-2.2C664.9,142.7,662.8,143.1,661.8,143.2z" style="fill: rgb(255, 226, 153);" transform="matrix(1, 0, 0, 1, -494.9887390136719, -69.27320861816406)"/>
<path class="st18" d="M641.8,138.2c-0.5,0.1-1,0.2-1.4,0.5c-0.4,0.3-0.7,0.7-0.7,1.2c0,0.5,0.4,0.9,0.8,1.1c0.4,0.2,0.9,0.3,1.4,0.3&#10;&#9;c1.2,0,3.5-0.6,3.2-2.2C644.9,137.7,642.8,138.1,641.8,138.2z" style="fill: rgb(255, 226, 153);" transform="matrix(1, 0, 0, 1, -494.9887390136719, -69.27320861816406)"/>
<path class="st18" d="M647.8,147.2c-0.5,0.1-1,0.2-1.4,0.5c-0.4,0.3-0.7,0.7-0.7,1.2c0,0.5,0.4,0.9,0.8,1.1c0.4,0.2,0.9,0.3,1.4,0.3&#10;&#9;c1.2,0,3.5-0.6,3.2-2.2C650.9,146.7,648.8,147.1,647.8,147.2z" style="fill: rgb(255, 226, 153);" transform="matrix(1, 0, 0, 1, -494.9887390136719, -69.27320861816406)"/>
<path class="st18" d="M632.8,153.2c-0.5,0.1-1,0.2-1.4,0.5c-0.4,0.3-0.7,0.7-0.7,1.2c0,0.5,0.4,0.9,0.8,1.1c0.4,0.2,0.9,0.3,1.4,0.3&#10;&#9;c1.2,0,3.5-0.6,3.2-2.2C635.9,152.7,633.8,153.1,632.8,153.2z" style="fill: rgb(255, 226, 153);" transform="matrix(1, 0, 0, 1, -494.9887390136719, -69.27320861816406)"/>
<path class="st18" d="M659.8,158.2c-0.5,0.1-1,0.2-1.4,0.5c-0.4,0.3-0.7,0.7-0.7,1.2c0,0.5,0.4,0.9,0.8,1.1c0.4,0.2,0.9,0.3,1.4,0.3&#10;&#9;c1.2,0,3.5-0.6,3.2-2.2C662.9,157.7,660.8,158.1,659.8,158.2z" style="fill: rgb(255, 226, 153);" transform="matrix(1, 0, 0, 1, -494.9887390136719, -69.27320861816406)"/>
<path class="st18" d="M677.8,171.2c-0.5,0.1-1,0.2-1.4,0.5c-0.4,0.3-0.7,0.7-0.7,1.2c0,0.5,0.4,0.9,0.8,1.1c0.4,0.2,0.9,0.3,1.4,0.3&#10;&#9;c1.2,0,3.5-0.6,3.2-2.2C680.9,170.7,678.8,171.1,677.8,171.2z" style="fill: rgb(255, 226, 153);" transform="matrix(1, 0, 0, 1, -494.9887390136719, -69.27320861816406)"/>
<path class="st18" d="M672.8,187.2c-0.5,0.1-1,0.2-1.4,0.5c-0.4,0.3-0.7,0.7-0.7,1.2c0,0.5,0.4,0.9,0.8,1.1c0.4,0.2,0.9,0.3,1.4,0.3&#10;&#9;c1.2,0,3.5-0.6,3.2-2.2C675.9,186.7,673.8,187.1,672.8,187.2z" style="fill: rgb(255, 226, 153);" transform="matrix(1, 0, 0, 1, -494.9887390136719, -69.27320861816406)"/>
<path class="st18" d="M660.8,172.2c-0.5,0.1-1,0.2-1.4,0.5c-0.4,0.3-0.7,0.7-0.7,1.2c0,0.5,0.4,0.9,0.8,1.1c0.4,0.2,0.9,0.3,1.4,0.3&#10;&#9;c1.2,0,3.5-0.6,3.2-2.2C663.9,171.7,661.8,172.1,660.8,172.2z" style="fill: rgb(255, 226, 153);" transform="matrix(1, 0, 0, 1, -494.9887390136719, -69.27320861816406)"/>
<path class="st18" d="M644.8,163.2c-0.5,0.1-1,0.2-1.4,0.5c-0.4,0.3-0.7,0.7-0.7,1.2c0,0.5,0.4,0.9,0.8,1.1c0.4,0.2,0.9,0.3,1.4,0.3&#10;&#9;c1.2,0,3.5-0.6,3.2-2.2C647.9,162.7,645.8,163.1,644.8,163.2z" style="fill: rgb(255, 226, 153);" transform="matrix(1, 0, 0, 1, -494.9887390136719, -69.27320861816406)"/>
<path class="st18" d="M627.8,169.2c-0.5,0.1-1,0.2-1.4,0.5c-0.4,0.3-0.7,0.7-0.7,1.2c0,0.5,0.4,0.9,0.8,1.1c0.4,0.2,0.9,0.3,1.4,0.3&#10;&#9;c1.2,0,3.5-0.6,3.2-2.2C630.9,168.7,628.8,169.1,627.8,169.2z" style="fill: rgb(255, 226, 153);" transform="matrix(1, 0, 0, 1, -494.9887390136719, -69.27320861816406)"/>
<path class="st18" d="M646.8,177.2c-0.5,0.1-1,0.2-1.4,0.5c-0.4,0.3-0.7,0.7-0.7,1.2c0,0.5,0.4,0.9,0.8,1.1c0.4,0.2,0.9,0.3,1.4,0.3&#10;&#9;c1.2,0,3.5-0.6,3.2-2.2C649.9,176.7,647.8,177.1,646.8,177.2z" style="fill: rgb(255, 226, 153);" transform="matrix(1, 0, 0, 1, -494.9887390136719, -69.27320861816406)"/>
<path class="st18" d="M657.8,187.2c-0.5,0.1-1,0.2-1.4,0.5c-0.4,0.3-0.7,0.7-0.7,1.2c0,0.5,0.4,0.9,0.8,1.1c0.4,0.2,0.9,0.3,1.4,0.3&#10;&#9;c1.2,0,3.5-0.6,3.2-2.2C660.9,186.7,658.8,187.1,657.8,187.2z" style="fill: rgb(255, 226, 153);" transform="matrix(1, 0, 0, 1, -494.9887390136719, -69.27320861816406)"/>
<path class="st18" d="M640.8,195.2c-0.5,0.1-1,0.2-1.4,0.5c-0.4,0.3-0.7,0.7-0.7,1.2c0,0.5,0.4,0.9,0.8,1.1c0.4,0.2,0.9,0.3,1.4,0.3&#10;&#9;c1.2,0,3.5-0.6,3.2-2.2C643.9,194.7,641.8,195.1,640.8,195.2z" style="fill: rgb(255, 226, 153);" transform="matrix(1, 0, 0, 1, -494.9887390136719, -69.27320861816406)"/>
<path class="st18" d="M631.8,184.2c-0.5,0.1-1,0.2-1.4,0.5c-0.4,0.3-0.7,0.7-0.7,1.2c0,0.5,0.4,0.9,0.8,1.1c0.4,0.2,0.9,0.3,1.4,0.3&#10;&#9;c1.2,0,3.5-0.6,3.2-2.2C634.9,183.7,632.8,184.1,631.8,184.2z" style="fill: rgb(255, 226, 153);" transform="matrix(1, 0, 0, 1, -494.9887390136719, -69.27320861816406)"/>
<path class="st18" d="M614.8,184.2c-0.5,0.1-1,0.2-1.4,0.5c-0.4,0.3-0.7,0.7-0.7,1.2c0,0.5,0.4,0.9,0.8,1.1c0.4,0.2,0.9,0.3,1.4,0.3&#10;&#9;c1.2,0,3.5-0.6,3.2-2.2C617.9,183.7,615.8,184.1,614.8,184.2z" style="fill: rgb(255, 226, 153);" transform="matrix(1, 0, 0, 1, -494.9887390136719, -69.27320861816406)"/>
<path class="st18" d="M624.8,197.2c-0.5,0.1-1,0.2-1.4,0.5c-0.4,0.3-0.7,0.7-0.7,1.2c0,0.5,0.4,0.9,0.8,1.1c0.4,0.2,0.9,0.3,1.4,0.3&#10;&#9;c1.2,0,3.5-0.6,3.2-2.2C627.9,196.7,625.8,197.1,624.8,197.2z" style="fill: rgb(255, 226, 153);" transform="matrix(1, 0, 0, 1, -494.9887390136719, -69.27320861816406)"/>


















































</svg>